<svg width="120" height="53" viewBox="0 0 120 53" fill="none" xmlns="http://www.w3.org/2000/svg">
<rect width="53" height="53" transform="translate(0.0297852)" fill="#FFC107"/>
<path d="M8.77479 19.61C6.12479 18.815 4.00479 16.43 4.00479 13.25C4.00479 9.54 6.91979 6.625 10.6298 6.625C13.5448 6.625 16.1948 8.745 16.9898 11.395M36.0698 11.66C36.8648 8.745 39.5148 6.625 42.4298 6.625C46.1398 6.625 49.0548 9.54 49.0548 13.25C49.0548 16.43 46.9348 19.08 44.0198 19.61" stroke="black" stroke-width="2" stroke-miterlimit="10"/>
<path d="M42.1648 16.43C43.6283 16.43 44.8148 15.2436 44.8148 13.78C44.8148 12.3165 43.6283 11.13 42.1648 11.13C40.7012 11.13 39.5148 12.3165 39.5148 13.78C39.5148 15.2436 40.7012 16.43 42.1648 16.43Z" fill="black"/>
<path d="M10.8948 16.43C12.3583 16.43 13.5448 15.2436 13.5448 13.78C13.5448 12.3165 12.3583 11.13 10.8948 11.13C9.43123 11.13 8.24478 12.3165 8.24478 13.78C8.24478 15.2436 9.43123 16.43 10.8948 16.43Z" fill="black"/>
<path d="M39.7798 25.705C39.7798 21.2 36.0698 17.49 31.5648 17.49C29.7098 17.49 27.8548 18.02 26.5298 19.08C25.2048 18.02 23.3498 17.225 21.4948 17.225C16.9898 17.225 13.2798 20.935 13.2798 25.705C13.2798 29.15 15.3998 32.33 18.5798 33.39C18.3148 34.185 18.3148 34.715 18.3148 35.51C18.3148 40.015 22.0248 43.725 26.5298 43.725C31.0348 43.725 34.7448 40.015 34.7448 35.51C34.7448 34.715 34.4798 33.92 34.4798 33.39C37.6598 32.065 39.7798 29.15 39.7798 25.705Z" stroke="black" stroke-width="2" stroke-miterlimit="10"/>
<path d="M21.2298 29.15C22.6933 29.15 23.8798 27.9636 23.8798 26.5C23.8798 25.0365 22.6933 23.85 21.2298 23.85C19.7662 23.85 18.5798 25.0365 18.5798 26.5C18.5798 27.9636 19.7662 29.15 21.2298 29.15Z" stroke="black" stroke-width="2" stroke-miterlimit="10"/>
<path d="M31.8298 29.15C33.2933 29.15 34.4798 27.9636 34.4798 26.5C34.4798 25.0365 33.2933 23.85 31.8298 23.85C30.3662 23.85 29.1798 25.0365 29.1798 26.5C29.1798 27.9636 30.3662 29.15 31.8298 29.15Z" stroke="black" stroke-width="2" stroke-miterlimit="10"/>
<path d="M27.8548 38.425C27.8548 39.22 27.3248 38.425 26.5298 38.425V39.75C25.7348 39.75 25.2048 39.22 25.2048 38.425V34.45C25.2048 33.655 25.7348 33.125 26.5298 33.125C27.3248 33.125 27.8548 33.655 27.8548 34.45V38.425Z" fill="black"/>
<path d="M26.5298 39.75C24.6748 39.75 23.0848 39.22 21.7598 38.16C21.2298 37.895 20.9648 37.1 21.4948 36.305C22.0248 35.775 22.8198 35.51 23.3498 36.04C25.2048 37.365 27.8548 37.365 29.7098 36.04C30.2398 35.51 31.0348 35.775 31.5648 36.305C32.0948 36.835 31.8298 37.63 31.2998 38.16C29.9748 39.22 28.3848 39.75 26.5298 39.75ZM27.8548 34.45H25.2048C24.4098 34.45 23.8798 33.92 23.8798 33.125C23.8798 32.595 24.4098 31.8 25.2048 31.8H27.8548C28.6498 31.8 29.1798 32.33 29.1798 33.125C29.1798 33.92 28.6498 34.45 27.8548 34.45Z" fill="black"/>
<path d="M26.5298 49.025C37.5064 49.025 46.4048 40.1267 46.4048 29.15C46.4048 18.1733 37.5064 9.27499 26.5298 9.27499C15.5531 9.27499 6.65479 18.1733 6.65479 29.15C6.65479 40.1267 15.5531 49.025 26.5298 49.025Z" stroke="black" stroke-width="2" stroke-miterlimit="10"/>
<path d="M57.4786 21V4.2H60.0466L67.3906 16.464H66.0466L73.2706 4.2H75.8386L75.8626 21H72.9106L72.8866 8.832H73.5106L67.3666 19.08H65.9746L59.7346 8.832H60.4546V21H57.4786ZM88.2725 21.24C86.9605 21.24 85.7525 21.024 84.6485 20.592C83.5445 20.16 82.5845 19.56 81.7685 18.792C80.9525 18.008 80.3205 17.096 79.8725 16.056C79.4245 15 79.2005 13.848 79.2005 12.6C79.2005 11.352 79.4245 10.208 79.8725 9.168C80.3205 8.112 80.9525 7.2 81.7685 6.432C82.5845 5.648 83.5445 5.04 84.6485 4.608C85.7525 4.176 86.9525 3.96 88.2485 3.96C89.5605 3.96 90.7605 4.176 91.8485 4.608C92.9525 5.04 93.9125 5.648 94.7285 6.432C95.5445 7.2 96.1765 8.112 96.6245 9.168C97.0725 10.208 97.2965 11.352 97.2965 12.6C97.2965 13.848 97.0725 15 96.6245 16.056C96.1765 17.112 95.5445 18.024 94.7285 18.792C93.9125 19.56 92.9525 20.16 91.8485 20.592C90.7605 21.024 89.5685 21.24 88.2725 21.24ZM88.2485 18.504C89.0965 18.504 89.8805 18.36 90.6005 18.072C91.3205 17.784 91.9445 17.376 92.4725 16.848C93.0005 16.304 93.4085 15.68 93.6965 14.976C94.0005 14.256 94.1525 13.464 94.1525 12.6C94.1525 11.736 94.0005 10.952 93.6965 10.248C93.4085 9.528 93.0005 8.904 92.4725 8.376C91.9445 7.832 91.3205 7.416 90.6005 7.128C89.8805 6.84 89.0965 6.696 88.2485 6.696C87.4005 6.696 86.6165 6.84 85.8965 7.128C85.1925 7.416 84.5685 7.832 84.0245 8.376C83.4965 8.904 83.0805 9.528 82.7765 10.248C82.4885 10.952 82.3445 11.736 82.3445 12.6C82.3445 13.448 82.4885 14.232 82.7765 14.952C83.0805 15.672 83.4965 16.304 84.0245 16.848C84.5525 17.376 85.1765 17.784 85.8965 18.072C86.6165 18.36 87.4005 18.504 88.2485 18.504ZM100.604 21V4.2H103.172L113.708 17.136H112.436V4.2H115.532V21H112.964L102.428 8.064H103.7V21H100.604ZM60.1455 46.04L59.9775 42.344L68.7855 33.2H72.2895L64.9695 40.976L63.2415 42.872L60.1455 46.04ZM57.3615 50V33.2H60.4815V50H57.3615ZM69.0735 50L62.6415 42.344L64.7055 40.064L72.7215 50H69.0735ZM77.7258 40.184H86.0778V42.752H77.7258V40.184ZM77.9658 47.384H87.4458V50H74.8458V33.2H87.1098V35.816H77.9658V47.384ZM94.8645 50V43.352L95.5605 45.272L88.2645 33.2H91.6005L97.4565 42.92H95.5845L101.488 33.2H104.56L97.2645 45.272L97.9845 43.352V50H94.8645ZM110.503 50.24C109.319 50.24 108.159 50.072 107.023 49.736C105.903 49.384 104.959 48.904 104.191 48.296L105.511 45.872C106.119 46.368 106.855 46.768 107.719 47.072C108.599 47.376 109.511 47.528 110.455 47.528C111.559 47.528 112.423 47.296 113.047 46.832C113.687 46.368 114.007 45.744 114.007 44.96C114.007 44.432 113.871 43.968 113.599 43.568C113.343 43.168 112.879 42.864 112.207 42.656C111.551 42.448 110.647 42.344 109.495 42.344H105.439L106.303 33.2H116.167V35.816H107.455L109.087 34.328L108.439 41.168L106.807 39.704H110.191C111.855 39.704 113.191 39.928 114.199 40.376C115.223 40.808 115.967 41.416 116.431 42.2C116.911 42.968 117.151 43.848 117.151 44.84C117.151 45.816 116.911 46.712 116.431 47.528C115.951 48.344 115.215 49 114.223 49.496C113.247 49.992 112.007 50.24 110.503 50.24Z" fill="black"/>
</svg>
