<svg width="54" height="54" viewBox="0 0 54 54" fill="none" xmlns="http://www.w3.org/2000/svg">
<g clip-path="url(#clip0_22_1192)">
<path d="M35.0881 0.230707C35.4728 0.460335 35.7819 0.708622 36.0703 1.05468C36.1168 1.11002 36.1633 1.16535 36.2112 1.22236C36.7725 1.93775 36.8754 2.68896 36.8086 3.58593C36.7153 4.20231 36.5942 4.81271 36.4734 5.42419C36.4373 5.6104 36.4013 5.79662 36.3653 5.98286C36.2676 6.48792 36.1687 6.99277 36.0697 7.49758C35.9652 8.03083 35.8619 8.56429 35.7584 9.09772C35.5614 10.1123 35.3635 11.1267 35.1652 12.141C34.9213 13.3895 34.6784 14.6381 34.4355 15.8868C34.3492 16.3309 34.2628 16.7749 34.1764 17.219C34.1554 17.3273 34.1343 17.4357 34.1126 17.5473C33.9707 18.2764 33.8285 19.0056 33.6862 19.7346C33.4797 20.7925 33.274 21.8505 33.0688 22.9086C33.0094 23.2151 32.9498 23.5216 32.8902 23.8281C32.7896 24.3459 32.6896 24.8638 32.5899 25.3819C32.5522 25.5775 32.5143 25.7731 32.4762 25.9687C32.4238 26.2381 32.3721 26.5076 32.3204 26.7772C32.3049 26.8565 32.2893 26.9357 32.2733 27.0174C32.2004 27.4018 32.1361 27.7685 32.168 28.1602C32.3008 28.3409 32.3008 28.3409 32.491 28.4897C34.4953 30.3604 34.7209 33.3988 34.9101 35.9648C34.9122 36.1758 34.9127 36.3867 34.9101 36.5977C35.0197 36.594 35.1293 36.5903 35.2422 36.5865C36.0113 36.5687 36.6969 36.5652 37.4294 36.8345C37.6843 36.9254 37.9097 36.9929 38.1797 37.0195C38.38 36.918 38.38 36.918 38.5554 36.7493C39.5773 35.9217 40.8738 35.4126 42.1875 35.332C42.3135 35.3237 42.3135 35.3237 42.4421 35.3151C44.1927 35.2557 45.8825 35.8096 47.2038 36.9668C47.3621 37.1227 47.5184 37.2808 47.6719 37.4414C47.7718 37.5383 47.7718 37.5383 47.8737 37.6371C48.5416 38.327 49.1135 39.3332 49.2539 40.2891C49.3459 40.3012 49.438 40.3133 49.5328 40.3257C50.7603 40.5644 51.7819 41.3996 52.5341 42.3671C53.5446 43.8721 53.8205 45.5668 53.506 47.3402C53.0861 48.7986 52.1905 50.0384 50.9262 50.8813C49.3932 51.7243 47.7162 51.9239 46.0359 51.4428C45.7734 51.3633 45.7734 51.3633 45.5625 51.2739C45.2147 51.2474 45.0506 51.4616 44.7912 51.6797C43.0947 53.0275 41.0935 53.4498 38.948 53.2197C37.4901 52.9841 35.7261 52.2243 34.7515 51.0699C34.5989 50.9157 34.5989 50.9157 34.3721 50.9566C34.2843 50.9799 34.1964 51.0031 34.1059 51.0271C32.801 51.3015 31.5068 51.259 30.2695 50.7305C30.1809 50.6691 30.0922 50.6078 30.0009 50.5447C29.752 50.3848 29.752 50.3848 29.4975 50.4684C29.1977 50.6345 28.9034 50.8069 28.6115 50.9864C23.7111 53.9952 17.3849 53.6233 11.9905 52.3743C8.1949 51.4453 4.05056 49.778 1.77195 46.4046C1.09992 45.2909 0.355163 44.0561 0.527331 42.7148C0.708129 42.1998 1.02077 41.8465 1.47655 41.5547C1.86203 41.4397 2.25392 41.3731 2.64989 41.3042C2.88862 41.2594 3.12729 41.2144 3.36592 41.1691C3.48927 41.146 3.61262 41.1228 3.7397 41.099C9.11245 40.068 14.6868 38.3763 18.8789 34.6992C18.9761 34.616 19.0733 34.5328 19.1735 34.4471C20.5521 33.2377 21.5731 31.7875 22.366 30.1443C23.0183 28.7987 23.8254 27.6602 25.2113 27.0213C25.7514 26.7075 25.9427 26.4733 26.1109 25.8715C26.1741 25.5815 26.2233 25.2904 26.2716 24.9976C26.3023 24.8362 26.3335 24.6749 26.3652 24.5137C26.4498 24.0757 26.5277 23.6366 26.6045 23.1972C26.6874 22.7295 26.7767 22.2631 26.8652 21.7965C27.0334 20.9054 27.196 20.0134 27.3566 19.1209C27.5346 18.1333 27.718 17.1467 27.9021 16.1603C27.9925 15.6762 28.0827 15.1921 28.1728 14.708C28.1905 14.6126 28.2083 14.5171 28.2266 14.4188C28.3514 13.7478 28.4753 13.0765 28.5987 12.4052C29.0205 10.1111 29.446 7.81772 29.8913 5.52797C29.9498 5.22687 30.0078 4.92566 30.0652 4.62435C30.1435 4.21363 30.2238 3.80332 30.3044 3.39304C30.3268 3.27419 30.3492 3.15534 30.3723 3.03289C30.5759 2.0142 30.9101 1.07166 31.791 0.45318C32.8071 -0.135314 34.0017 -0.277702 35.0881 0.230707Z" fill="#010100"/>
<path d="M23.2031 32.5898C23.5345 32.7417 23.8309 32.9331 24.1334 33.1355C24.7826 33.5678 25.4059 33.9405 26.1562 34.1719C26.2501 34.2031 26.3439 34.2344 26.4405 34.2666C28.1212 34.745 29.946 34.5483 31.6343 34.2102C32.0207 34.142 32.4105 34.1044 32.8008 34.0664C32.9359 34.7448 33.0508 35.4183 33.097 36.109C33.1127 36.3844 33.1127 36.3844 33.1604 36.6446C33.1923 36.9095 33.2008 37.0816 33.1172 37.3359C32.8738 37.5609 32.618 37.7254 32.3365 37.8999C31.3872 38.5038 30.8097 39.7496 30.553 40.8164C30.4306 41.2266 30.2488 41.3514 29.8806 41.5613C29.7872 41.6109 29.6938 41.6605 29.5976 41.7117C28.5068 42.3389 27.8507 43.519 27.4956 44.692C27.2172 45.9876 27.4221 47.4599 28.1317 48.5972C28.1759 48.6747 28.2201 48.7522 28.2656 48.832C28.1368 49.2187 28.054 49.2364 27.7024 49.4183C27.5602 49.4924 27.5602 49.4924 27.4151 49.568C27.3151 49.6188 27.2151 49.6696 27.1121 49.7219C26.9676 49.7975 26.9676 49.7975 26.8202 49.8746C25.0623 50.7815 23.091 51.3993 21.0938 51.3633C21.3884 51.1267 21.6844 50.892 21.9824 50.6596C22.7767 50.0339 23.5283 49.3816 24.2446 48.6672C24.3167 48.5957 24.3888 48.5241 24.4631 48.4504C24.907 48.0063 24.907 48.0063 25.207 47.4609C25.1933 47.0703 25.18 46.8192 24.9302 46.5117C24.6557 46.3962 24.4562 46.3719 24.162 46.4204C23.6392 46.6368 23.2712 47.1408 22.8933 47.5466C21.4388 49.0605 19.8816 50.1587 18.0352 51.1523C17.9668 51.1922 17.8985 51.232 17.8281 51.2731C17.5702 51.3814 17.4086 51.3754 17.1313 51.3489C16.9909 51.336 16.9909 51.336 16.8476 51.323C16.7479 51.3123 16.6482 51.3017 16.5454 51.2908C16.4421 51.2804 16.3387 51.2701 16.2323 51.2594C14.723 51.1011 13.27 50.8376 11.8125 50.4141C11.9932 50.0527 12.4297 50.0058 12.7947 49.8801C15.9578 48.749 19.0939 47.1691 21.6211 44.9297C21.7077 44.8545 21.7943 44.7793 21.8835 44.7019C22.1517 44.4654 22.4145 44.2244 22.6758 43.9805C22.7692 43.894 22.8626 43.8075 22.9588 43.7184C24.3634 42.3999 24.3634 42.3999 25.1345 40.7241C25.1269 40.3909 25.1269 40.3909 24.9368 40.144C24.6802 39.9509 24.6802 39.9509 24.3303 39.8936C23.7512 40.0113 23.5454 40.3567 23.2031 40.8164C23.0847 40.9704 22.966 41.1242 22.8472 41.2778C22.7864 41.3567 22.7256 41.4355 22.663 41.5168C22.0633 42.2699 21.416 42.949 20.6719 43.5586C20.5908 43.6267 20.5908 43.6267 20.508 43.6961C19.5253 44.5201 18.5095 45.2325 17.4023 45.8789C17.328 45.9227 17.2536 45.9664 17.177 46.0115C15.2275 47.1513 13.1947 47.9872 11.063 48.7239C10.8591 48.7961 10.6563 48.8714 10.4546 48.9496C8.98308 49.5177 8.98308 49.5177 8.21173 49.2185C8.06597 49.1495 7.9215 49.0777 7.77832 49.0034C7.70169 48.9656 7.62506 48.9278 7.54611 48.8888C6.80978 48.5146 6.14689 48.0577 5.48438 47.5664C5.32775 47.462 5.32775 47.462 5.16797 47.3555C5.16797 47.2859 5.16797 47.2163 5.16797 47.1445C5.2592 47.129 5.35042 47.1135 5.44441 47.0976C8.4046 46.5704 11.2798 45.7554 14.0471 44.5737C14.1479 44.5311 14.2488 44.4884 14.3527 44.4445C14.4448 44.4036 14.5368 44.3628 14.6317 44.3208C14.7116 44.2855 14.7914 44.2502 14.8736 44.2139C15.1214 44.0617 15.2466 43.9109 15.3984 43.6641C15.4541 43.2825 15.4469 43.1049 15.2336 42.7808C14.874 42.541 14.6682 42.5698 14.2383 42.6094C13.91 42.7276 13.6054 42.8846 13.2957 43.0444C13.1154 43.1329 12.935 43.2209 12.7543 43.3085C12.6655 43.3516 12.5767 43.3947 12.4852 43.4392C10.3352 44.463 7.9171 44.9527 5.58984 45.4043C5.5198 45.418 5.44976 45.4317 5.37759 45.4458C4.73815 45.5697 4.13383 45.6841 3.48047 45.668C2.55071 44.1479 2.55071 44.1479 2.42578 43.2422C3.20177 43.049 3.98099 42.8888 4.76685 42.7418C10.8091 41.6093 16.5632 39.381 21.0938 35.1211C21.1621 35.0584 21.2305 34.9957 21.301 34.9312C21.9062 34.3573 22.3888 33.6776 22.8867 33.0117C22.9493 32.9284 23.0118 32.845 23.0762 32.7592C23.1181 32.7033 23.16 32.6474 23.2031 32.5898Z" fill="#FDDA00"/>
<path d="M45.6799 38.1352C45.7784 38.2094 45.7784 38.2094 45.8789 38.2852C45.9702 38.3461 46.0616 38.407 46.1557 38.4697C46.9524 39.2245 47.4174 40.1922 47.718 41.2317C47.8257 41.5789 47.8257 41.5789 48.1003 41.8052C48.2026 41.8269 48.3048 41.8487 48.4101 41.8711C49.6271 42.1738 50.5233 42.7349 51.2578 43.7695C51.8485 44.7674 51.9648 45.8164 51.7114 46.946C51.3455 48.0605 50.607 48.9507 49.5637 49.4912C48.6756 49.9193 47.7771 50.0531 46.8124 49.7994C46.4512 49.6696 46.1052 49.5279 45.7648 49.3503C45.4013 49.1771 45.098 49.1349 44.7187 49.2539C44.4336 49.4953 44.1881 49.7594 43.9343 50.0334C43.5377 50.4373 43.1165 50.6963 42.6093 50.9414C42.4776 51.0067 42.4776 51.0067 42.3432 51.0733C41.0426 51.6099 39.2593 51.5683 37.9498 51.0811C36.9004 50.5884 36.1256 49.9181 35.3781 49.043C35.1279 48.8005 35.1279 48.8005 34.7519 48.7793C34.3627 48.8349 34.1781 48.9333 33.8554 49.1485C33.0232 49.4733 32.125 49.4988 31.2846 49.1814C30.2767 48.7117 29.695 48.0889 29.228 47.072C28.9731 46.309 28.9724 45.3709 29.2807 44.6265C29.3594 44.4788 29.443 44.3336 29.5312 44.1914C29.576 44.1179 29.6207 44.0443 29.6668 43.9685C30.1323 43.2799 30.7629 42.8463 31.5285 42.5369C31.8773 42.4222 31.8773 42.4222 32.0625 42.082C32.0971 41.8875 32.1249 41.6916 32.1482 41.4954C32.3077 40.4795 32.7213 39.6623 33.539 39.0235C34.4119 38.4549 35.133 38.2977 36.1758 38.3906C36.6895 38.5233 37.1582 38.7037 37.6111 38.981C37.9778 39.1961 38.1821 39.2 38.6015 39.1289C38.9111 38.9126 39.1727 38.6511 39.4453 38.3906C41.2327 36.8834 43.7658 36.7469 45.6799 38.1352Z" fill="#7E8D93"/>
<path d="M34.1719 1.79297C34.5299 2.00929 34.6785 2.18371 34.9102 2.53125C35.0221 3.47118 34.8247 4.39047 34.6333 5.3064C34.604 5.45107 34.5749 5.59577 34.5459 5.7405C34.486 6.03851 34.4256 6.33641 34.3648 6.63423C34.2591 7.15384 34.1595 7.67456 34.06 8.19538C33.7086 10.0345 33.3391 11.8701 32.9698 13.7057C32.5974 15.5585 32.2361 17.4127 31.9109 19.2744C31.7268 20.3163 31.53 21.3548 31.3194 22.3917C31.1907 23.0253 31.0651 23.6595 30.9431 24.2945C30.9288 24.3692 30.9144 24.444 30.8996 24.5211C30.8424 24.8185 30.7854 25.1159 30.7287 25.4134C30.6895 25.619 30.6501 25.8246 30.6107 26.0302C30.5768 26.208 30.5768 26.208 30.5422 26.3894C30.4805 26.6836 30.4805 26.6836 30.375 27C29.9117 26.8992 29.4496 26.7967 28.9907 26.677C28.6057 26.5839 28.236 26.5217 27.8438 26.4727C27.901 25.7248 27.9925 24.9951 28.1338 24.2586C28.1521 24.1609 28.1704 24.0631 28.1893 23.9624C28.2493 23.6432 28.3102 23.3243 28.3711 23.0054C28.4138 22.7795 28.4565 22.5536 28.4992 22.3278C28.8017 20.7327 29.1177 19.1404 29.4392 17.549C29.748 16.0206 30.0394 14.4897 30.321 12.9561C30.63 11.2757 30.961 9.6003 31.3002 7.92578C31.4839 7.01706 31.6645 6.10819 31.8301 5.19598C31.8446 5.11673 31.8591 5.03748 31.874 4.95582C31.9403 4.59133 32.0056 4.2267 32.0689 3.86168C32.0916 3.73602 32.1142 3.61035 32.1375 3.48088C32.1563 3.37301 32.1751 3.26513 32.1945 3.15399C32.3133 2.69304 32.4954 2.32358 32.8074 1.96435C33.2592 1.71443 33.6667 1.70904 34.1719 1.79297Z" fill="#9E512C"/>
<path d="M11.6475 7.15837C11.7176 7.16974 11.7877 7.18111 11.8599 7.19282C12.098 7.23172 12.3359 7.2718 12.5738 7.31194C12.7463 7.34051 12.9187 7.36905 13.0911 7.39757C15.383 7.77873 17.6706 8.18518 19.958 8.59152C20.6055 8.70653 21.2532 8.82073 21.9009 8.93475C22.4047 9.02357 22.9085 9.11291 23.4122 9.2024C23.6514 9.2448 23.8906 9.28701 24.1298 9.32904C24.4607 9.38724 24.7915 9.44616 25.1223 9.50526C25.2198 9.52225 25.3173 9.53923 25.4178 9.55673C26.6707 9.78267 26.6707 9.78267 27 10.2305C27.0891 10.6666 27.0656 11.0574 26.855 11.4499C26.07 11.8798 24.9283 11.5225 24.097 11.3725C23.9566 11.3479 23.8161 11.3233 23.6757 11.2988C23.2973 11.2324 22.9191 11.165 22.5409 11.0974C22.1438 11.0265 21.7465 10.9566 21.3493 10.8865C20.6828 10.7689 20.0165 10.6505 19.3503 10.5317C18.5811 10.3945 17.8117 10.2583 17.0422 10.1226C16.3 9.99176 15.5579 9.86036 14.8159 9.72865C14.5009 9.67274 14.1858 9.617 13.8707 9.56138C13.4998 9.49587 13.1289 9.42987 12.7581 9.36349C12.5578 9.32774 12.3574 9.29246 12.157 9.25719C12.0369 9.2356 11.9169 9.21401 11.7932 9.19177C11.6894 9.17329 11.5856 9.15482 11.4786 9.13579C11.0198 9.03527 10.6474 8.94703 10.2898 8.63525C10.0927 8.27266 10.0919 8.07613 10.1654 7.6782C10.2603 7.40119 10.3942 7.30093 10.6523 7.17187C11.0369 7.04366 11.2478 7.09255 11.6475 7.15837Z" fill="black"/>
<path d="M51.3633 27.8438C52.0337 28.3699 52.4526 28.973 52.708 29.7817C52.8142 30.8968 52.6987 31.8119 51.9837 32.7101C51.233 33.4516 50.4093 33.6804 49.3872 33.6851C48.5124 33.6669 47.9045 33.3565 47.2632 32.7678C46.6044 32.0546 46.3704 31.2684 46.3832 30.312C46.4651 29.4124 46.8889 28.698 47.54 28.0877C48.6096 27.2022 50.1677 27.1048 51.3633 27.8438Z" fill="black"/>
<path d="M30.005 28.8379C30.4632 29.1286 30.854 29.4435 31.2188 29.8477C31.2695 29.9004 31.3202 29.9532 31.3724 30.0075C31.9401 30.6226 32.3469 31.3369 32.4844 32.168C32.1138 32.415 31.7736 32.4701 31.344 32.5437C31.2702 32.557 31.1965 32.5702 31.1205 32.5839C30.9745 32.6099 30.8284 32.6355 30.6822 32.6604C30.5101 32.6902 30.3384 32.7229 30.1669 32.7563C28.3314 33.0121 26.5638 32.7566 24.9961 31.7461C24.6821 31.4874 24.408 31.2185 24.1523 30.9023C24.4102 29.871 25.1924 29.1354 26.0417 28.5478C27.248 27.8842 28.8701 28.1886 30.005 28.8379Z" fill="#FC9600"/>
<path d="M32.8008 34.0664C32.9359 34.7448 33.0508 35.4183 33.097 36.109C33.1127 36.3844 33.1127 36.3844 33.1604 36.6446C33.1923 36.9095 33.2008 37.0816 33.1172 37.3359C32.8738 37.5609 32.618 37.7254 32.3365 37.8999C31.3872 38.5038 30.8097 39.7496 30.553 40.8164C30.4306 41.2266 30.2488 41.3514 29.8806 41.5613C29.7872 41.6109 29.6938 41.6605 29.5976 41.7117C28.5068 42.3389 27.8507 43.519 27.4956 44.692C27.2172 45.9876 27.4221 47.4599 28.1317 48.5972C28.1759 48.6747 28.2201 48.7522 28.2656 48.832C28.1368 49.2187 28.054 49.2364 27.7024 49.4183C27.6076 49.4677 27.5128 49.5171 27.4151 49.568C27.3151 49.6188 27.2151 49.6696 27.1121 49.7219C27.0157 49.7723 26.9194 49.8227 26.8202 49.8746C25.1612 50.7305 25.1612 50.7305 24.6797 50.7305C24.6797 50.6609 24.6797 50.5912 24.6797 50.5195C24.9319 50.3542 25.183 50.201 25.4443 50.0515C25.5878 49.9684 25.7312 49.885 25.8745 49.8014C25.9421 49.762 26.0097 49.7226 26.0794 49.682C26.2776 49.5646 26.2776 49.5646 26.5106 49.382C26.6836 49.2539 26.6836 49.2539 26.8945 49.2539C26.7474 49.0005 26.5967 48.7528 26.4273 48.5136C26.3727 48.4359 26.318 48.3583 26.2617 48.2783C26.2095 48.206 26.1573 48.1337 26.1035 48.0591C25.702 47.3439 25.5722 46.6461 25.5828 45.8328C25.5836 45.745 25.5845 45.6571 25.5854 45.5667C25.6164 44.4402 26.0173 43.6392 26.7891 42.8203C27.2646 42.3924 28.0246 41.7656 28.6875 41.7656C28.6777 41.6155 28.6777 41.6155 28.6677 41.4624C28.6746 40.3338 29.2444 39.4186 29.9993 38.6213C30.3516 38.2847 30.8152 37.8633 31.3242 37.8633C31.2198 36.1404 31.2198 36.1404 31.1133 34.3828C32.2998 34.0269 32.2998 34.0269 32.8008 34.0664Z" fill="#FBBE07"/>
<path d="M14.5966 16.7415C14.7545 16.7688 14.7545 16.7688 14.9155 16.7966C15.2606 16.8564 15.6055 16.9165 15.9505 16.9768C16.1914 17.0187 16.4324 17.0606 16.6733 17.1025C17.1769 17.1901 17.6804 17.278 18.1839 17.3661C18.8292 17.4788 19.4745 17.5908 20.12 17.7026C20.6169 17.7888 21.1138 17.8755 21.6107 17.9624C21.8487 18.0039 22.0867 18.0452 22.3247 18.0864C22.657 18.1439 22.9891 18.2021 23.3213 18.2605C23.4195 18.2773 23.5176 18.2941 23.6188 18.3115C24.6297 18.4909 24.6297 18.4909 25.0752 18.7932C25.2847 19.0969 25.2999 19.3584 25.3125 19.7227C25.207 20.0193 25.207 20.0193 24.9961 20.25C24.3291 20.5303 23.7863 20.4267 23.0883 20.2996C22.9728 20.2799 22.8573 20.2602 22.7383 20.2399C22.3576 20.1745 21.9774 20.1067 21.5972 20.0386C21.3323 19.9922 21.0674 19.9459 20.8025 19.8997C20.2479 19.8024 19.6935 19.7039 19.1392 19.6046C18.4993 19.4899 17.859 19.378 17.2184 19.2675C16.6008 19.1608 15.9836 19.0517 15.3666 18.9418C15.1046 18.8953 14.8425 18.8495 14.5802 18.8044C14.2137 18.7411 13.8479 18.6751 13.482 18.6084C13.3736 18.5902 13.2653 18.5721 13.1536 18.5534C12.5587 18.4416 12.1852 18.3389 11.8125 17.8242C11.7402 17.3742 11.7597 17.1696 12.0037 16.7827C12.6408 16.1638 13.8066 16.6032 14.5966 16.7415Z" fill="black"/>
<path d="M43.7828 22.01C44.6254 22.078 45.3716 22.3526 45.9383 22.9955C46.4907 23.752 46.6342 24.4889 46.5118 25.418C46.2607 26.308 45.7238 26.8559 44.9297 27.3164C44.0601 27.6326 43.3379 27.58 42.5039 27.2109C41.8729 26.8613 41.5233 26.4278 41.212 25.7739C41.0083 24.8575 41.0485 24.0082 41.5547 23.2031C41.978 22.6858 42.5548 22.2661 43.1961 22.0627C43.3919 22.0477 43.5874 22.0295 43.7828 22.01Z" fill="black"/>
<path d="M18.3998 12.8857C18.5976 12.9205 18.7954 12.9552 18.9932 12.9899C19.4058 13.0624 19.8182 13.1356 20.2306 13.2093C20.7582 13.3036 21.286 13.3961 21.814 13.488C22.2218 13.5592 22.6293 13.6314 23.0369 13.7038C23.2315 13.7383 23.4261 13.7725 23.6208 13.8064C23.8928 13.8538 24.1645 13.9026 24.4361 13.9517C24.5159 13.9653 24.5956 13.979 24.6777 13.993C25.1463 14.0793 25.537 14.2016 25.9453 14.4492C26.209 14.8448 26.2128 15.0355 26.1562 15.5039C25.9519 15.8137 25.9519 15.8137 25.6289 16.0312C25.0046 16.1104 24.3729 16.0011 23.759 15.8894C23.6725 15.8743 23.5859 15.8592 23.4967 15.8436C23.2137 15.7941 22.931 15.7434 22.6482 15.6926C22.4501 15.6576 22.2519 15.6226 22.0538 15.5877C21.64 15.5146 21.2263 15.441 20.8126 15.3669C20.2833 15.2722 19.7538 15.1786 19.2242 15.0853C18.8157 15.0133 18.4072 14.9408 17.9987 14.8682C17.8035 14.8335 17.6082 14.7989 17.413 14.7645C17.1401 14.7163 16.8673 14.6674 16.5946 14.6184C16.5145 14.6043 16.4344 14.5903 16.352 14.5759C15.3081 14.3864 15.3081 14.3864 14.8909 14.113C14.6906 13.8074 14.6726 13.5448 14.6602 13.1836C15.232 11.9309 17.3186 12.6923 18.3998 12.8857Z" fill="black"/>
<path d="M47.8828 41.7656C49.2608 42.0568 50.4003 42.4825 51.2088 43.6962C51.8042 44.7273 51.9702 45.7717 51.7126 46.9484C51.3396 48.0613 50.6088 48.9497 49.5637 49.4912C48.9697 49.7776 48.4536 49.9134 47.7905 49.8999C47.669 49.898 47.5474 49.8961 47.4222 49.8941C47.3306 49.8917 47.2389 49.8892 47.1445 49.8867C47.1445 49.8519 47.1445 49.8171 47.1445 49.7813C47.2045 49.781 47.2644 49.7807 47.3262 49.7804C47.8978 49.7518 48.2474 49.6474 48.6606 49.2457C48.9892 48.8571 49.2356 48.4415 49.4648 47.9883C49.5088 47.9015 49.5527 47.8148 49.5979 47.7254C50.0506 46.6802 50.0781 45.3083 49.6869 44.2338C49.2677 43.3228 48.8156 42.4429 47.8828 41.9766C47.8828 41.907 47.8828 41.8373 47.8828 41.7656Z" fill="#535B5E"/>
<path d="M44.1914 39.2344C45.0299 39.722 45.4539 40.3882 45.8789 41.2383C45.9259 41.9674 45.9259 41.9674 45.7734 42.3391C45.4473 42.5939 45.1277 42.6398 44.7187 42.6094C44.2069 42.3534 44.0766 41.9585 43.8717 41.4554C43.7449 41.1859 43.6118 41.0582 43.3477 40.9219C42.9659 40.7946 42.6946 40.7824 42.293 40.8164C41.9799 40.9944 41.7196 41.1863 41.4492 41.4228C41.1439 41.6137 40.9588 41.6124 40.6055 41.5547C40.2256 41.2822 40.0963 41.1273 40.0122 40.6648C40.0929 40.205 40.2546 39.9495 40.6055 39.6562C40.9113 39.456 41.2265 39.2891 41.5547 39.1289C41.6819 39.0604 41.6819 39.0604 41.8118 38.9905C42.6116 38.7759 43.443 38.9001 44.1914 39.2344Z" fill="#F2F2F2"/>
<path d="M9.47736 27.3613C9.93449 27.4839 10.2246 27.8304 10.5469 28.1602C10.6238 28.2322 10.7008 28.3043 10.7801 28.3785C11.1643 28.7433 11.4396 29.0159 11.6016 29.5312C11.5932 29.9398 11.546 30.1083 11.272 30.4145C10.8724 30.6404 10.6841 30.6705 10.2305 30.5859C9.91317 30.375 9.65443 30.1174 9.38672 29.8477C9.30963 29.7744 9.23254 29.7011 9.15312 29.6256C8.48741 28.984 8.48741 28.984 8.33203 28.582C8.3463 28.1825 8.38557 27.9248 8.60229 27.5867C8.8958 27.3985 9.12794 27.3425 9.47736 27.3613Z" fill="#01A9F3"/>
<path d="M13.711 31.4297C14.0336 31.636 14.2884 31.8944 14.5547 32.168C14.6329 32.2437 14.7111 32.3194 14.7916 32.3974C15.4925 33.0808 15.4925 33.0808 15.5369 33.6313C15.5312 33.9463 15.5144 34.0502 15.3391 34.3235C14.9919 34.5461 14.7565 34.5938 14.3438 34.5938C13.8703 34.3202 13.4859 33.9795 13.1045 33.5918C13.0538 33.5419 13.0031 33.492 12.9509 33.4406C12.3543 32.8407 12.3543 32.8407 12.3275 32.3752C12.3681 32.0354 12.3962 31.809 12.6101 31.5352C12.991 31.3789 13.3139 31.3297 13.711 31.4297Z" fill="#01A8F4"/>
<path d="M11.0743 31.4297C11.3445 31.5813 11.3445 31.5813 11.4961 31.8516C11.5681 32.1826 11.5694 32.4697 11.4961 32.8008C11.2643 33.1496 10.9748 33.4171 10.6656 33.6973C10.5869 33.7726 10.5081 33.8479 10.427 33.9255C9.73845 34.5781 9.73845 34.5781 9.30107 34.6267C8.87502 34.5849 8.7226 34.4895 8.43755 34.1719C8.32672 33.7909 8.27226 33.5584 8.44661 33.1946C8.71658 32.809 9.02127 32.4739 9.34722 32.135C9.43878 32.0329 9.43878 32.0329 9.5322 31.9288C10.0089 31.436 10.392 31.299 11.0743 31.4297Z" fill="#02A9F4"/>
<path d="M14.9766 27.4219C15.2864 27.6328 15.2864 27.6328 15.5039 27.9492C15.5796 28.3951 15.6093 28.6407 15.3483 29.0179C15.1324 29.2514 14.9077 29.4679 14.6733 29.6829C14.5946 29.7586 14.5159 29.8344 14.4348 29.9125C13.738 30.5773 13.738 30.5773 13.3022 30.6057C12.9768 30.5862 12.8134 30.5626 12.5508 30.375C12.3829 30.14 12.3385 29.9463 12.2805 29.6631C12.3727 29.1302 12.7056 28.8518 13.0781 28.4766C13.2033 28.3473 13.2033 28.3473 13.3311 28.2154C14.1881 27.3417 14.1881 27.3417 14.9766 27.4219Z" fill="#02A8F4"/>
<path d="M7.17182 22.1484C7.44441 22.3483 7.4843 22.4531 7.5937 22.7812C7.62333 23.1631 7.62296 23.5454 7.62666 23.9282C7.62972 24.033 7.63278 24.1379 7.63593 24.2459C7.64267 25.0206 7.64267 25.0206 7.39388 25.432C7.1283 25.6675 7.01803 25.728 6.66425 25.7673C6.251 25.7268 6.09468 25.598 5.80073 25.3125C5.59118 24.8934 5.66651 24.3693 5.6623 23.9084C5.65924 23.7981 5.65618 23.6878 5.65303 23.5741C5.6463 22.7604 5.6463 22.7604 5.88848 22.3417C6.31676 21.9797 6.64492 22.0355 7.17182 22.1484Z" fill="#EF304B"/>
<path d="M6.96093 16.7695C7.24569 16.9594 7.43996 17.0948 7.59375 17.4023C7.62196 17.7818 7.61817 18.1623 7.62011 18.5427C7.62229 18.648 7.62446 18.7533 7.6267 18.8618C7.63199 19.8528 7.63199 19.8528 7.27734 20.25C6.84443 20.446 6.64096 20.4975 6.18969 20.3357C5.90625 20.1445 5.90625 20.1445 5.69531 19.8281C5.64654 19.4298 5.65625 19.0294 5.65576 18.6284C5.65317 18.5186 5.65059 18.4087 5.64793 18.2955C5.64483 17.4865 5.64483 17.4865 5.89553 17.0686C6.25544 16.7542 6.48546 16.7229 6.96093 16.7695Z" fill="#EF304C"/>
<path d="M43.3477 37.2305C44.6155 37.3932 45.792 37.9425 46.5999 38.948C47.2423 39.8249 47.5958 40.7241 47.8828 41.7656C47.012 41.5135 46.035 41.1401 45.5627 40.3164C45.4617 40.109 45.3666 39.8998 45.2725 39.6892C44.9132 38.9282 44.4816 38.3471 43.875 37.7578C43.8165 37.6981 43.7581 37.6384 43.6978 37.577C43.5829 37.4597 43.4657 37.3447 43.3477 37.2305Z" fill="#535B5F"/>
<path d="M3.94189 20.3027C4.06181 20.2997 4.18172 20.2967 4.30527 20.2937C5.18369 20.2916 5.18369 20.2916 5.61621 20.5994C5.86159 20.9762 5.87961 21.1796 5.80078 21.6211C5.6158 21.9041 5.6158 21.9041 5.27344 22.1484C4.83061 22.2247 4.39671 22.2172 3.94849 22.2078C3.82864 22.2089 3.7088 22.2101 3.58532 22.2113C2.70395 22.2035 2.70395 22.2035 2.39408 21.9498C2.18271 21.6865 2.12579 21.5357 2.10938 21.1992C2.39543 20.198 3.02784 20.3007 3.94189 20.3027Z" fill="#EF304B"/>
<path d="M9.3406 20.2961C9.52036 20.2944 9.52036 20.2944 9.70376 20.2926C10.585 20.3004 10.585 20.3004 10.8973 20.5555C11.1011 20.811 11.1314 20.9291 11.127 21.2519C11.1281 21.3313 11.1291 21.4107 11.1303 21.4925C11.0521 21.8189 10.9106 21.9375 10.6524 22.1484C10.2193 22.235 9.78137 22.212 9.3406 22.2078C9.22116 22.2103 9.10172 22.2128 8.97867 22.2154C8.1073 22.2138 8.1073 22.2138 7.67328 21.9041C7.42721 21.5276 7.40946 21.3243 7.4883 20.8828C7.94738 20.1804 8.58243 20.2802 9.3406 20.2961Z" fill="#EF304B"/>
<path d="M49.8867 29.2148C50.3309 29.3857 50.589 29.5469 50.8359 29.9531C50.9238 30.4846 50.9196 30.9615 50.6579 31.4363C50.2821 31.7512 50.0106 31.838 49.5241 31.8911C49.0754 31.8439 48.8628 31.7123 48.5156 31.4297C48.2029 30.9606 48.2241 30.5031 48.3047 29.9531C48.7496 29.3639 49.1529 29.1526 49.8867 29.2148Z" fill="#7C8B91"/>
<path d="M43.8223 23.8755C44.2895 23.9589 44.4437 24.0853 44.7188 24.4688C44.7847 24.7852 44.7847 24.7852 44.7188 25.1016C44.4437 25.485 44.2895 25.6114 43.8223 25.6948C43.3551 25.6114 43.2008 25.485 42.9258 25.1016C42.8599 24.7852 42.8599 24.7852 42.9258 24.4688C43.2008 24.0853 43.3551 23.9589 43.8223 23.8755Z" fill="#7A888E"/>
</g>
<defs>
<clipPath id="clip0_22_1192">
<rect width="54" height="54" fill="white"/>
</clipPath>
</defs>
</svg>
