<?xml version="1.0" encoding="UTF-8"?>
<svg version="1.1" xmlns="http://www.w3.org/2000/svg" width="300" height="300">
<path d="M0 0 C99 0 198 0 300 0 C300 99 300 198 300 300 C201 300 102 300 0 300 C0 201 0 102 0 0 Z " fill="#FDFEFE" transform="translate(0,0)"/>
<path d="M0 0 C12.52463211 -0.39887363 22.75937617 3.29026347 32.10546875 11.84765625 C40.60854787 21.22284605 43.87765252 31.52210833 43.56640625 44.0390625 C42.91443999 55.78260477 37.33607135 65.56081509 28.87890625 73.46484375 C18.05463064 82.61263223 6.89096543 82.96534089 -6.74609375 82.15234375 C-15.43629888 80.93693045 -23.27495056 75.19149219 -28.89453125 68.65234375 C-37.20115494 57.15625696 -38.67453359 46.0583093 -37.74609375 32.15234375 C-35.95008753 21.25454328 -28.40028527 12.53863621 -19.74609375 6.15234375 C-13.20458225 2.12141235 -7.67188323 0.42560945 0 0 Z " fill="#1B85BC" transform="translate(105.74609375,88.84765625)"/>
<path d="M0 0 C7.52507106 6.89004397 12.76338805 16.82495095 13.3359375 27.05078125 C13.51333075 35.44089729 13.26256259 42.53719571 9 50 C8.57589844 50.76570313 8.15179688 51.53140625 7.71484375 52.3203125 C2.28104217 61.25051566 -5.89373313 68.82658062 -16.15625 71.578125 C-26.27910043 73.07986655 -38.20464086 73.85021611 -47 68 C-48.0725 67.34 -49.145 66.68 -50.25 66 C-58.9766978 59.65331069 -66.26066653 51.01060208 -68 40 C-69.22621374 26.27662457 -67.96884211 14.9032821 -58.86328125 4.00390625 C-42.40956324 -13.6916018 -18.95377403 -14.40965155 0 0 Z " fill="#1A84BC" transform="translate(223,99)"/>
<path d="M0 0 C2.71666168 2.36581205 3.81406331 4.58933213 5.1015625 7.9296875 C9.30728428 19.46027877 9.30728428 19.46027877 17.9765625 27.31640625 C21.53416314 28.42254753 25.17910956 28.99764509 28.85546875 29.56738281 C32.3977311 30.28196488 35.51486173 31.7390368 38.75 33.3125 C39.35787354 33.60253906 39.96574707 33.89257812 40.59204102 34.19140625 C46.0797057 36.89139328 51.19989705 40.11993175 56.29296875 43.49609375 C59.06664943 45.32376195 59.06664943 45.32376195 63 45 C64.94219851 43.94075709 64.94219851 43.94075709 66.875 42.4375 C77.21050755 35.2652329 91.28171752 27.76220741 103.9765625 26.65234375 C107.07027733 25.90101301 107.92193215 25.10533503 109.85302734 22.49975586 C111.71267993 19.1793869 113.38015534 15.81858586 115 12.375 C115.87591797 10.59996094 115.87591797 10.59996094 116.76953125 8.7890625 C118.20519999 5.8706539 119.613693 2.94209383 121 0 C121.66 0 122.32 0 123 0 C131.06153041 15.43371381 138.04607833 30.79997031 132.98046875 48.578125 C132.49513672 49.77695313 132.49513672 49.77695313 132 51 C131.35933594 50.79503906 130.71867188 50.59007812 130.05859375 50.37890625 C129.19363281 50.10949219 128.32867187 49.84007812 127.4375 49.5625 C126.59058594 49.29566406 125.74367187 49.02882812 124.87109375 48.75390625 C108.44353674 44.44027563 92.44629865 46.68264334 77.78515625 55.08203125 C72.38490985 58.80085451 64.96864015 64.0627197 62 70 C61.34 70 60.68 70 60 70 C59.01848198 68.89163965 58.09072098 67.73554396 57.1875 66.5625 C49.13340379 57.15771684 38.6575081 51.67268891 27 48 C26.36191406 47.79761719 25.72382812 47.59523437 25.06640625 47.38671875 C13.8617965 45.28982581 0.55655819 46.89467182 -10 51 C-14.46751964 39.27276095 -12.41891847 25.50037516 -8 14 C-5.70036078 9.11499484 -2.91936763 4.53494001 0 0 Z " fill="#1A84BB" transform="translate(88,31)"/>
<path d="M0 0 C6.4158461 4.28924542 12.39672577 10.3776773 14.875 17.8125 C15.66797987 28.65422478 14.9251015 36.77922005 8.1875 45.5625 C3.32208792 50.88597886 -3.22358142 54.29611566 -10.38671875 55.05078125 C-19.90458103 55.34198799 -26.48481001 52.10806941 -33.40234375 45.671875 C-39.474911 39.11735797 -41.63589356 31.3993793 -41.43359375 22.6171875 C-40.55238351 14.60821342 -36.05674308 8.08007108 -30.125 2.8125 C-21.63027106 -3.55082423 -9.5412155 -5.01750064 0 0 Z " fill="#F9FAFB" transform="translate(208.125,104.1875)"/>
<path d="M0 0 C6.97728477 4.0786755 13.4376048 9.90313295 15.5625 17.9375 C16.7325622 28.82993471 15.53780112 37.00173141 8.875 45.6875 C4.00958792 51.01097886 -2.53608142 54.42111566 -9.69921875 55.17578125 C-19.16654333 55.46544174 -25.75922524 52.27148411 -32.64453125 45.8671875 C-38.98371181 39.04462716 -40.80360209 32.71824244 -40.640625 23.55078125 C-39.9564446 14.74853731 -35.99181448 8.72994544 -29.4375 2.9375 C-20.839623 -3.455029 -9.77008373 -4.4760962 0 0 Z " fill="#F9FBFB" transform="translate(120.4375,104.0625)"/>
<path d="M0 0 C0.66 0 1.32 0 2 0 C10.06153041 15.43371381 17.04607833 30.79997031 11.98046875 48.578125 C11.65691406 49.37734375 11.33335937 50.1765625 11 51 C10.35933594 50.79503906 9.71867187 50.59007812 9.05859375 50.37890625 C8.19363281 50.10949219 7.32867187 49.84007812 6.4375 49.5625 C5.59058594 49.29566406 4.74367188 49.02882812 3.87109375 48.75390625 C-12.57318005 44.43588605 -28.53515119 46.69983626 -43.21875 55.078125 C-47.72784595 58.19396096 -51.63478836 61.90260302 -55.56640625 65.70703125 C-58 68 -58 68 -60 69 C-60.17479953 65.43812343 -60.28101143 61.87735227 -60.375 58.3125 C-60.42527344 57.30509766 -60.47554687 56.29769531 -60.52734375 55.25976562 C-60.67517796 47.79413789 -60.67517796 47.79413789 -57.5390625 44.10546875 C-55.88134766 43.02807617 -55.88134766 43.02807617 -54 42 C-53.32372559 41.59563721 -52.64745117 41.19127441 -51.95068359 40.7746582 C-49.66389596 39.45012767 -47.34622835 38.21595096 -45 37 C-44.1649292 36.56429687 -43.3298584 36.12859375 -42.46948242 35.6796875 C-34.49703463 31.60306699 -26.05544349 27.42918869 -17.04296875 26.6640625 C-13.94353181 25.90671054 -13.08089748 25.10911308 -11.14575195 22.49902344 C-9.28700215 19.17874736 -7.61962393 15.81811661 -6 12.375 C-5.41605469 11.19164062 -4.83210938 10.00828125 -4.23046875 8.7890625 C-2.79480001 5.8706539 -1.386307 2.94209383 0 0 Z " fill="#131212" transform="translate(209,31)"/>
<path d="M0 0 C4.84063945 2.33067825 7.56352878 5.22076799 10 10 C10.6065099 14.24556929 10.32632523 16.35990051 8.375 20.1875 C5.20616104 23.94007245 2.61242131 26.58303373 -2.3984375 27.3828125 C-6.71423597 27.57721784 -9.49212192 27.24008782 -13.4375 25.375 C-17.49497939 21.61440935 -18.74868354 18.55816208 -19.625 13.125 C-19.48008739 8.42439724 -16.8491429 5.84961321 -13.7265625 2.56640625 C-9.76432542 -1.028293 -5.0874259 -0.55570344 0 0 Z " fill="#40ACFF" transform="translate(139,224)"/>
<path d="M0 0 C3.9235221 2.04488652 6.37675579 4.15298189 7.96875 8.2734375 C8.49760803 13.82644683 8.27773069 17.57681975 4.96875 22.2734375 C0.40390176 25.74272216 -3.14799625 26.94367065 -8.88671875 26.66015625 C-13.33366634 25.85824767 -16.00080718 23.44127269 -18.90625 20.1484375 C-20.59112729 15.84263998 -20.707348 11.83334288 -20.03125 7.2734375 C-15.69737629 -0.27071302 -8.17429215 -2.92388142 0 0 Z " fill="#3EABFF" transform="translate(109.03125,224.7265625)"/>
<path d="M0 0 C3.55939356 1.53013011 6.02831385 3.63626291 8.8125 6.3125 C9.62332031 7.07175781 10.43414062 7.83101562 11.26953125 8.61328125 C13 11 13 11 12.76464844 13.37255859 C11.97959574 16.07011196 10.9831914 18.04984363 9.49609375 20.42578125 C9.00302734 21.22177734 8.50996094 22.01777344 8.00195312 22.83789062 C7.48568359 23.65451172 6.96941406 24.47113281 6.4375 25.3125 C5.91736328 26.14845703 5.39722656 26.98441406 4.86132812 27.84570312 C3.58089645 29.90144205 2.2936642 31.95257223 1 34 C-1.01855648 31.38382769 -2.81589746 28.74417578 -4.48046875 25.890625 C-4.92197266 25.13652344 -5.36347656 24.38242188 -5.81835938 23.60546875 C-6.27017578 22.82816406 -6.72199219 22.05085938 -7.1875 21.25 C-7.65091797 20.45722656 -8.11433594 19.66445312 -8.59179688 18.84765625 C-9.73005838 16.89970356 -10.86604696 14.95046285 -12 13 C-8.16171005 8.46548035 -4.25222428 4.15098084 0 0 Z " fill="#121212" transform="translate(148,169)"/>
<path d="M0 0 C1.98 0 3.96 0 6 0 C6 8.91 6 17.82 6 27 C1 27 1 27 -1.09765625 25.20703125 C-1.74605469 24.41683594 -2.39445313 23.62664062 -3.0625 22.8125 C-3.74441406 21.99265625 -4.42632812 21.1728125 -5.12890625 20.328125 C-5.74636719 19.55984375 -6.36382812 18.7915625 -7 18 C-8.2375 16.5459375 -8.2375 16.5459375 -9.5 15.0625 C-11 13 -11 13 -11 11 C-11.66 11 -12.32 11 -13 11 C-13 15.95 -13 20.9 -13 26 C-14.65 26 -16.3 26 -18 26 C-18 17.75 -18 9.5 -18 1 C-13 1 -13 1 -10.39453125 3.30078125 C-9.54246094 4.29464844 -8.69039062 5.28851563 -7.8125 6.3125 C-6.95269531 7.29863281 -6.09289062 8.28476563 -5.20703125 9.30078125 C-3 12 -3 12 -1 15 C-0.67 10.05 -0.34 5.1 0 0 Z " fill="#3AAAFF" transform="translate(209,224)"/>
<path d="M0 0 C3.0220794 1.74450506 5.41651082 3.83302164 7 7 C7.34708476 12.29304255 7.51351894 15.73358414 4 20 C-0.19847182 22.51015017 -4.22622531 23.06358711 -9 22 C-12.4180525 19.70969598 -14.52626348 16.94635936 -15.50390625 12.9296875 C-15.71630605 9.32574259 -15.10104196 7.16027346 -13.1875 4.125 C-9.09747399 0.15183187 -5.61143703 -1.06934932 0 0 Z " fill="#151515" transform="translate(112,120)"/>
<path d="M0 0 C3.19163753 1.52328155 5.76213211 3.25782385 8 6 C8.90354546 10.80262903 8.68099449 14.84935415 6.1875 19.0625 C2.74558242 22.11105557 -0.47883666 22.33892827 -5 22.2890625 C-8.16746226 21.83126522 -9.8193869 20.24474878 -12 18 C-14.45876515 14.31185227 -14.6943399 11.283157 -14 7 C-10.28937969 1.11418847 -6.90600742 -0.59534547 0 0 Z " fill="#131313" transform="translate(198,120)"/>
<path d="M0 0 C1.98 0 3.96 0 6 0 C6 8.91 6 17.82 6 27 C3.69 27 1.38 27 -1 27 C-1 23.37 -1 19.74 -1 16 C-4.96 16 -8.92 16 -13 16 C-13 19.3 -13 22.6 -13 26 C-14.65 26 -16.3 26 -18 26 C-18 17.75 -18 9.5 -18 1 C-16.35 1 -14.7 1 -13 1 C-13 4.3 -13 7.6 -13 11 C-8.71 11 -4.42 11 0 11 C0 7.37 0 3.74 0 0 Z " fill="#3FADFF" transform="translate(78,224)"/>
<path d="M0 0 C3.125 1.5 3.125 1.5 5 3 C4.67 4.32 4.34 5.64 4 7 C0 7 0 7 -2 6 C-5.15863501 5.72533609 -7.41353643 5.76850122 -10.375 6.9375 C-12.6640717 9.84286023 -12.43961204 12.23277324 -12.43359375 15.84375 C-11.89583419 18.51801377 -11.21577623 19.42799659 -9 21 C-6.94636394 21.3606631 -6.94636394 21.3606631 -4.8125 21.1875 C-3.554375 21.125625 -2.29625 21.06375 -1 21 C-0.67 18.36 -0.34 15.72 0 13 C1.65 13 3.3 13 5 13 C5.76945755 23.07134434 5.76945755 23.07134434 3.1875 26.1875 C-2.29385662 27.58470855 -8.11720586 28.64803092 -13.234375 25.72265625 C-16.43004112 23.02218632 -18.78179295 20.90775303 -19.2734375 16.609375 C-19.58144695 7.9377243 -19.58144695 7.9377243 -16.75 4.4375 C-11.44201482 -0.26730505 -6.94648217 -0.77432515 0 0 Z " fill="#3EACFF" transform="translate(239,224)"/>
<path d="M0 0 C7.26 0 14.52 0 22 0 C20.87543808 5.62280961 20.87543808 5.62280961 18.3125 8.48046875 C17.51199219 9.39022461 17.51199219 9.39022461 16.6953125 10.31835938 C16.13585937 10.93517578 15.57640625 11.55199219 15 12.1875 C13.8942381 13.42957125 12.78999737 14.6729989 11.6875 15.91796875 C11.19636719 16.46219482 10.70523438 17.0064209 10.19921875 17.56713867 C8.90007788 19.00725507 8.90007788 19.00725507 8 21 C12.95 21 17.9 21 23 21 C23 22.65 23 24.3 23 26 C15.08 26 7.16 26 -1 26 C-1 21 -1 21 1.19921875 18.55078125 C2.58560547 17.28814453 2.58560547 17.28814453 4 16 C5.62781995 14.08232976 7.23252733 12.14477957 8.8125 10.1875 C9.60269531 9.21167969 10.39289063 8.23585937 11.20703125 7.23046875 C11.79871094 6.49441406 12.39039063 5.75835937 13 5 C8.71 4.67 4.42 4.34 0 4 C0 2.68 0 1.36 0 0 Z " fill="#3DACFF" transform="translate(152,225)"/>
<path d="M0 0 C2.4375 1.4375 2.4375 1.4375 4 4 C4.77201236 8.33759522 4.75587974 11.76035723 2.4375 15.5625 C-0.99917081 17.58925458 -3.07417186 17.6198676 -7 17 C-10.69186542 14.40783917 -11.82883761 12.95850936 -12.625 8.5 C-11.33940733 1.30068103 -7.0374661 -1.15158536 0 0 Z " fill="#F6FAFE" transform="translate(138,229)"/>
<path d="M0 0 C3.63525215 2.60789828 4.83397068 4.0702358 5.625 8.5 C4.82883761 12.95850936 3.69186542 14.40783917 0 17 C-3.92582814 17.6198676 -6.00082919 17.58925458 -9.4375 15.5625 C-11.75071492 11.76882754 -11.91245385 8.32423783 -11 4 C-7.79382821 0.13373402 -4.93752469 -0.92578588 0 0 Z " fill="#F7FBFE" transform="translate(106,229)"/>
<path d="M0 0 C2.31 1.98 4.62 3.96 7 6 C7.99 6.845625 8.98 7.69125 10 8.5625 C12 11 12 11 11.9375 13.1015625 C10.55888297 17.36378681 8.3069383 20.9900314 6 24.8125 C5.5359375 25.60076172 5.071875 26.38902344 4.59375 27.20117188 C2.06316117 31.44947144 2.06316117 31.44947144 1 33 C0.67 33 0.34 33 0 33 C0 22.11 0 11.22 0 0 Z " fill="#1A84BC" transform="translate(149,169)"/>
<path d="M0 0 C1.65 0 3.3 0 5 0 C5 8.25 5 16.5 5 25 C3.35 25 1.7 25 0 25 C0 16.75 0 8.5 0 0 Z " fill="#30A7FF" transform="translate(179,225)"/>
<path d="M0 0 C0 11.22 0 22.44 0 34 C-3.17483445 29.7668874 -3.36878745 29.09411312 -3.29296875 24.140625 C-3.28330078 23.02558594 -3.27363281 21.91054687 -3.26367188 20.76171875 C-3.23853516 19.60285156 -3.21339844 18.44398438 -3.1875 17.25 C-3.17396484 16.07566406 -3.16042969 14.90132812 -3.14648438 13.69140625 C-3.1111478 10.79380702 -3.06180979 7.89713573 -3 5 C-5.31 7.31 -7.62 9.62 -10 12 C-10 9 -10 9 -8.06640625 6.73828125 C-7.24011719 5.93777344 -6.41382813 5.13726562 -5.5625 4.3125 C-4.73878906 3.50425781 -3.91507813 2.69601563 -3.06640625 1.86328125 C-1 0 -1 0 0 0 Z " fill="#131C26" transform="translate(149,169)"/>
<path d="M0 0 C1.98 0 3.96 0 6 0 C6 8.91 6 17.82 6 27 C4.35 27 2.7 27 1 27 C1 26.34 1 25.68 1 25 C1.99 25 2.98 25 4 25 C4 17.41 4 9.82 4 2 C3.01 2 2.02 2 1 2 C1 6.29 1 10.58 1 15 C0.67 15 0.34 15 0 15 C0 10.05 0 5.1 0 0 Z " fill="#4CB1FF" transform="translate(209,224)"/>
<path d="M0 0 C0.33 0 0.66 0 1 0 C1 7.92 1 15.84 1 24 C0.34 24 -0.32 24 -1 24 C-1 17.4 -1 10.8 -1 4 C-6.4328648 9.13308671 -6.4328648 9.13308671 -5.8125 13.375 C-5.544375 14.24125 -5.27625 15.1075 -5 16 C-7.25245881 13.31158141 -8.88213958 11.35358125 -10 8 C-8.9171875 7.4121875 -8.9171875 7.4121875 -7.8125 6.8125 C-4.77619516 4.85577022 -2.51127063 2.58102815 0 0 Z " fill="#131618" transform="translate(146,173)"/>
<path d="M0 0 C4.18423892 3.50897269 8.19588166 7.08060535 12 11 C11.67 11.99 11.34 12.98 11 14 C10.37351563 13.36191406 9.74703125 12.72382813 9.1015625 12.06640625 C8.28429687 11.24011719 7.46703125 10.41382813 6.625 9.5625 C5.81289062 8.73878906 5.00078125 7.91507813 4.1640625 7.06640625 C2.17651485 4.96565328 2.17651485 4.96565328 0 4 C0 2.68 0 1.36 0 0 Z " fill="#338DC1" transform="translate(149,169)"/>
<path d="M0 0 C-1 2 -1 2 -3.65234375 2.921875 C-4.73644531 3.19515625 -5.82054687 3.4684375 -6.9375 3.75 C-8.01902344 4.03359375 -9.10054687 4.3171875 -10.21484375 4.609375 C-11.13394531 4.73828125 -12.05304688 4.8671875 -13 5 C-13.66 4.34 -14.32 3.68 -15 3 C-9.89665983 1.094753 -5.53657294 -0.42589023 0 0 Z " fill="#282828" transform="translate(194,58)"/>
<path d="M0 0 C2.86453858 3.41016497 4.34703566 6.90694544 6 11 C5.01 11 4.02 11 3 11 C2.30034557 9.73581754 1.61565237 8.46334598 0.9375 7.1875 C0.55464844 6.47980469 0.17179687 5.77210937 -0.22265625 5.04296875 C-1 3 -1 3 0 0 Z " fill="#2588BE" transform="translate(92,38)"/>
<path d="M0 0 C0.66 0 1.32 0 2 0 C2.66 1.65 3.32 3.3 4 5 C3.01 5.495 3.01 5.495 2 6 C1.34 5.67 0.68 5.34 0 5 C-0.33 5.99 -0.66 6.98 -1 8 C-1.66 7.34 -2.32 6.68 -3 6 C-2.01 4.02 -1.02 2.04 0 0 Z " fill="#2B2B2B" transform="translate(209,31)"/>
<path d="M0 0 C0.99 0.495 0.99 0.495 2 1 C2 7.33333333 2 13.66666667 2 20 C1.34 19.67 0.68 19.34 0 19 C0 12.73 0 6.46 0 0 Z " fill="#171B1E" transform="translate(150,78)"/>
<path d="M0 0 C0.33 0.99 0.66 1.98 1 3 C1.66 3 2.32 3 3 3 C3 4.98 3 6.96 3 9 C2.01 8.67 1.02 8.34 0 8 C0 5.36 0 2.72 0 0 Z " fill="#292929" transform="translate(184,127)"/>
<path d="M0 0 C3.67420866 0.30618405 4.78135513 0.75771784 7.3125 3.5625 C8.1478125 4.7690625 8.1478125 4.7690625 9 6 C4.58763974 6 3.21615077 3.9302707 0 1 C0 0.67 0 0.34 0 0 Z " fill="#338DC1" transform="translate(218,98)"/>
<path d="M0 0 C2.2477975 2.05233685 3.0022242 3.00667261 4 6 C2.35 6 0.7 6 -1 6 C-1.33 5.01 -1.66 4.02 -2 3 C-1.34 2.01 -0.68 1.02 0 0 Z " fill="#298ABF" transform="translate(88,31)"/>
<path d="M0 0 C2.52259061 1.97420135 2.9929808 2.96745642 3.6875 6.1875 C3.790625 7.115625 3.89375 8.04375 4 9 C1.74754119 6.31158141 0.11786042 4.35358125 -1 1 C-0.67 0.67 -0.34 0.34 0 0 Z " fill="#1D1D1D" transform="translate(137,180)"/>
<path d="M0 0 C2.1519437 3.22791555 2.20086443 4.28400809 2 8 C1.34 8 0.68 8 0 8 C-1.125 2.25 -1.125 2.25 0 0 Z " fill="#333333" transform="translate(220,54)"/>
</svg>
