<?xml version="1.0" standalone="no"?>
<!DOCTYPE svg PUBLIC "-//W3C//DTD SVG 20010904//EN"
 "http://www.w3.org/TR/2001/REC-SVG-20010904/DTD/svg10.dtd">
<svg version="1.0" xmlns="http://www.w3.org/2000/svg"
 width="1024.000000pt" height="1024.000000pt" viewBox="0 0 1024.000000 1024.000000"
 preserveAspectRatio="xMidYMid meet">

<g transform="translate(0.000000,1024.000000) scale(0.100000,-0.100000)"
fill="#000000" stroke="none">
<path d="M5015 9198 c-10 -6 -112 -93 -225 -192 -256 -226 -1025 -898 -1270
-1111 -102 -88 -230 -201 -285 -251 -93 -84 -100 -94 -103 -132 -6 -75 53
-142 124 -142 43 0 80 28 330 245 120 105 326 284 458 400 494 429 863 752
930 813 38 34 73 62 78 62 7 0 227 -186 543 -461 55 -48 274 -237 486 -420
212 -184 459 -397 548 -474 89 -77 176 -145 194 -152 80 -29 157 38 157 138 0
37 -6 47 -48 88 -118 114 -413 361 -424 355 -6 -4 -8 -3 -5 3 4 6 -12 27 -34
48 l-41 37 1 79 c0 43 0 189 1 323 l0 244 29 10 c57 20 81 102 50 168 -28 59
-57 64 -337 64 -214 0 -259 -3 -288 -16 -75 -36 -86 -142 -22 -199 19 -16 42
-34 52 -40 15 -9 17 -24 14 -108 l-3 -97 -93 79 c-62 54 -99 78 -110 75 -13
-4 -14 -3 -4 4 10 6 -54 67 -245 233 -142 123 -280 245 -308 270 -75 70 -107
82 -150 57z"/>
<path d="M4873 8553 c-432 -377 -727 -634 -943 -821 -129 -113 -248 -219 -264
-236 -52 -57 -86 -145 -93 -238 l-6 -84 -96 0 c-270 1 -463 -162 -517 -433
-14 -73 -15 -99 -5 -183 22 -177 76 -293 191 -408 120 -120 257 -178 426 -180
l40 0 18 -57 c43 -140 161 -339 249 -421 l25 -24 -126 -63 c-144 -72 -259
-153 -348 -247 l-62 -64 -7 50 c-8 65 -99 308 -134 361 -14 22 -48 56 -74 75
-98 74 -195 87 -338 46 -46 -14 -85 -23 -86 -22 -2 1 -53 121 -114 265 l-110
263 24 37 c134 202 141 416 21 621 -77 131 -248 247 -380 258 -97 7 -97 4 -3
-236 86 -221 93 -258 56 -313 -39 -60 -191 -117 -260 -98 -54 15 -82 56 -145
214 -82 206 -109 265 -121 265 -33 0 -120 -146 -146 -246 -20 -75 -20 -212 0
-287 18 -69 62 -158 103 -209 75 -95 212 -176 332 -199 36 -6 78 -16 93 -22
33 -12 41 -28 150 -289 l74 -177 -73 -35 c-179 -85 -268 -244 -235 -418 19
-96 128 -414 172 -498 21 -41 58 -100 80 -130 37 -48 44 -65 59 -155 27 -156
100 -310 158 -334 20 -8 702 -11 2528 -9 l2501 3 36 28 c62 47 71 75 64 202
-9 170 -59 313 -171 492 -105 168 -269 356 -429 491 -244 207 -431 321 -634
387 l-112 36 69 86 c79 98 141 217 166 316 l16 67 62 0 c296 1 528 201 598
515 57 258 -60 523 -277 631 -106 52 -210 65 -316 39 l-26 -7 -5 104 c-5 114
-23 169 -76 229 -16 19 -134 124 -262 234 -128 110 -434 374 -681 588 -247
213 -453 387 -458 387 -5 0 -85 -66 -178 -147z m329 -430 c16 -14 18 -34 18
-173 0 -108 -4 -160 -12 -168 -8 -8 -58 -12 -158 -12 -100 0 -150 4 -158 12
-8 8 -12 61 -12 175 0 144 2 163 18 172 9 6 77 11 151 11 111 0 138 -3 153
-17z m-472 -720 c100 -32 151 -64 237 -145 40 -37 77 -68 84 -68 6 0 47 33 90
74 107 103 223 157 366 171 173 17 359 -49 466 -165 62 -67 132 -198 146 -271
13 -72 2 -215 -20 -284 -29 -83 -99 -185 -175 -252 l-64 -56 74 -77 c185 -194
212 -416 78 -643 -166 -280 -536 -467 -927 -467 -473 0 -853 190 -1015 510
-35 68 -50 136 -50 225 1 151 44 257 154 373 l69 73 -85 87 c-92 94 -114 129
-153 246 -87 258 55 556 315 662 120 48 274 51 410 7z m-1195 -507 l35 -15 0
-83 0 -84 -39 4 c-33 3 -45 -1 -77 -30 -33 -31 -37 -40 -37 -82 1 -29 11 -67
27 -101 27 -54 95 -125 120 -125 11 0 15 -19 18 -76 l3 -76 -53 6 c-135 16
-254 101 -309 220 -24 53 -27 74 -28 156 0 82 4 103 26 150 48 101 119 149
222 150 32 0 73 -7 92 -14z m3231 -5 c186 -85 206 -399 35 -554 -64 -57 -121
-82 -238 -101 l-33 -5 0 74 c0 45 4 75 10 75 21 0 96 80 119 125 32 64 38 118
17 150 -9 14 -22 23 -28 19 -7 -4 -8 -3 -4 4 9 15 -26 32 -68 32 l-36 0 0 90
0 89 33 10 c55 16 148 12 193 -8z m-3799 -1267 c-3 -3 -12 -4 -19 -1 -8 3 -5
6 6 6 11 1 17 -2 13 -5z m73 -152 c48 -23 67 -57 124 -211 44 -121 48 -136 38
-170 -10 -33 -67 -101 -75 -90 -6 7 -189 462 -195 483 -5 17 -1 18 34 12 21
-4 55 -15 74 -24z m-263 -80 c71 -38 97 -115 57 -169 -16 -21 -66 -47 -207
-104 -102 -42 -193 -82 -202 -89 -23 -19 -19 -67 10 -95 29 -30 37 -30 95 -4
142 65 291 119 326 119 97 0 160 -108 102 -175 -15 -17 -82 -50 -193 -96 -93
-38 -175 -75 -182 -81 -32 -26 5 -118 47 -118 10 0 78 25 152 56 152 65 206
74 257 46 39 -21 71 -73 71 -114 0 -50 -45 -84 -190 -144 -226 -93 -238 -97
-306 -91 -188 14 -340 221 -434 587 -38 150 -20 259 54 315 17 13 117 57 221
99 206 81 261 91 322 58z m800 -198 c-3 -3 -12 -4 -19 -1 -8 3 -5 6 6 6 11 1
17 -2 13 -5z m414 -412 c-7 -2 -18 1 -23 6 -8 8 -4 9 13 5 13 -4 18 -8 10 -11z
m2317 -179 c39 -55 100 -189 116 -254 27 -111 17 -187 -40 -301 l-28 -58 -354
0 c-301 0 -353 2 -349 14 5 12 57 99 97 162 30 48 -15 69 -85 40 -43 -18 -114
-89 -159 -158 l-34 -53 -92 0 -92 0 6 33 c7 47 50 136 106 223 28 41 50 80 50
87 0 19 -45 24 -81 9 -90 -38 -179 -153 -247 -319 -11 -28 -13 -28 -102 -28
-82 0 -91 2 -86 18 2 9 10 44 16 77 18 95 91 236 155 299 86 84 219 145 395
180 129 26 434 50 667 54 l122 2 19 -27z"/>
<path d="M4455 7001 c-66 -40 -95 -100 -95 -194 0 -200 189 -290 294 -140 24
34 30 55 34 116 5 84 -7 133 -45 178 -50 59 -129 77 -188 40z"/>
<path d="M5533 7009 c-47 -14 -100 -81 -113 -145 -21 -100 17 -214 84 -255 42
-26 109 -25 153 2 80 49 114 211 65 306 -40 76 -116 114 -189 92z"/>
<path d="M4788 6525 c-46 -31 -62 -80 -45 -133 10 -31 17 -37 41 -37 24 0 33
7 50 40 18 33 27 41 55 43 47 5 76 -13 106 -65 37 -63 67 -60 129 12 39 46 53
55 80 55 35 0 55 -16 77 -65 29 -61 89 -31 89 45 0 78 -63 130 -158 130 -52 0
-109 -29 -143 -73 l-17 -20 -11 21 c-37 69 -181 96 -253 47z"/>
<path d="M4344 6080 c-12 -4 -31 -20 -42 -35 -17 -22 -19 -31 -11 -53 27 -71
193 -190 346 -247 191 -72 463 -91 668 -47 182 39 326 106 447 206 54 45 68
63 74 93 6 32 3 40 -20 60 -42 35 -68 29 -135 -31 -223 -199 -631 -263 -960
-151 -105 36 -181 79 -261 151 -75 68 -74 67 -106 54z"/>
<path d="M2946 3509 c-121 -20 -242 -111 -296 -224 -41 -83 -49 -162 -45 -445
2 -228 4 -249 25 -305 45 -118 105 -187 204 -235 87 -43 184 -57 293 -43 188
24 314 121 363 281 18 57 20 94 20 365 1 324 -1 343 -53 423 -94 147 -297 219
-511 183z m204 -231 c50 -25 85 -71 101 -130 6 -25 9 -134 7 -286 -3 -277 -5
-284 -80 -345 -67 -54 -198 -46 -256 16 -48 51 -55 89 -60 323 -5 243 3 306
44 366 52 75 158 99 244 56z"/>
<path d="M1376 3494 c-14 -14 -16 -83 -16 -614 0 -536 2 -598 16 -604 32 -12
211 -7 223 7 7 10 12 132 13 388 l3 374 105 -218 c114 -238 122 -247 188 -231
36 9 39 13 135 204 53 107 101 209 106 225 11 35 15 -170 12 -516 -1 -176 1
-218 13 -228 9 -8 50 -11 122 -9 l109 3 3 605 c2 560 1 606 -15 618 -11 8 -53
12 -118 12 -66 0 -107 -4 -118 -12 -15 -12 -146 -269 -224 -438 l-34 -75 -24
39 c-13 22 -75 140 -137 263 l-113 223 -117 0 c-93 0 -120 -3 -132 -16z"/>
<path d="M3721 3496 c-12 -15 -10 -1194 3 -1214 5 -8 44 -12 116 -12 98 0 110
2 120 19 6 13 10 149 10 373 0 300 2 349 13 328 8 -14 36 -63 64 -110 27 -47
103 -182 168 -300 65 -118 129 -234 142 -257 13 -24 34 -45 46 -48 12 -3 69
-5 127 -3 l105 3 3 605 c2 560 1 606 -15 618 -17 12 -168 17 -210 6 l-23 -6
-2 -377 -3 -376 -98 172 c-53 94 -144 260 -200 370 -72 137 -111 202 -128 210
-34 18 -223 17 -238 -1z"/>
<path d="M4872 3498 c-12 -15 -9 -1198 2 -1217 8 -12 201 -16 230 -5 14 5 16
30 16 168 l0 161 56 75 c58 77 74 91 75 68 0 -7 60 -116 133 -243 l133 -230
149 0 c132 0 149 2 152 17 3 15 -65 130 -325 552 -40 66 -73 123 -73 128 0 4
33 53 73 108 162 226 277 391 277 400 0 21 -44 30 -150 30 -109 0 -112 -1
-138 -28 -15 -16 -99 -130 -187 -255 -88 -125 -163 -227 -166 -227 -3 0 -6
111 -7 247 -1 187 -5 248 -14 255 -22 13 -224 10 -236 -4z"/>
<path d="M5972 3502 c-10 -7 -12 -137 -10 -618 l3 -609 395 0 395 0 3 104 c2
67 -1 108 -9 117 -9 11 -60 14 -265 14 l-254 0 0 130 0 130 213 2 212 3 0 110
0 110 -212 3 -213 2 0 130 0 130 63 1 c34 1 148 2 252 3 l190 1 7 45 c3 25 7
75 7 112 1 57 -2 69 -18 78 -23 12 -739 14 -759 2z"/>
<path d="M6892 3498 c-7 -7 -12 -17 -12 -24 0 -6 36 -81 80 -165 45 -85 130
-253 191 -373 l110 -219 -3 -211 c-1 -117 2 -217 6 -224 10 -17 232 -17 243 1
4 6 8 113 9 237 l2 225 181 353 c100 194 181 363 181 376 0 31 -20 36 -141 36
-78 0 -101 -3 -117 -17 -18 -17 -182 -365 -216 -458 -12 -35 -15 -37 -22 -20
-4 11 -39 88 -77 170 -38 83 -84 182 -102 222 -48 108 -39 103 -179 103 -82 0
-126 -4 -134 -12z"/>
<path d="M8081 3487 c-5 -12 -19 -141 -31 -287 -11 -146 -23 -288 -26 -316 -9
-77 3 -84 138 -84 108 0 111 1 144 30 93 81 238 53 279 -54 25 -66 17 -172
-18 -224 -66 -100 -217 -91 -275 15 -28 51 -52 58 -178 51 -98 -5 -108 -13
-99 -73 18 -121 127 -237 260 -277 68 -20 178 -28 244 -17 228 36 352 206 339
466 -3 72 -10 100 -35 154 -40 86 -91 142 -161 176 -51 24 -68 27 -167 28 -60
0 -132 -4 -159 -8 l-48 -9 6 49 c3 26 8 73 12 103 l6 55 238 -3 c208 -2 240
-1 254 13 21 22 23 206 3 224 -9 7 -124 11 -366 10 l-352 0 -8 -22z"/>
<path d="M2975 1936 c-95 -27 -134 -112 -122 -269 12 -146 66 -202 192 -194
83 4 112 20 145 79 18 33 25 62 28 126 7 121 -9 182 -59 226 -21 20 -47 36
-58 36 -10 0 -31 2 -47 5 -16 2 -51 -2 -79 -9z m120 -96 c20 -23 32 -131 21
-204 -18 -120 -142 -114 -160 8 -9 57 1 151 21 189 12 23 20 27 57 27 30 0 48
-6 61 -20z"/>
<path d="M4710 1944 c-92 -33 -120 -64 -120 -132 0 -84 10 -94 174 -158 63
-24 75 -43 53 -78 -23 -35 -84 -37 -115 -3 -12 13 -22 29 -22 35 0 8 -18 12
-51 12 l-51 0 7 -32 c15 -76 75 -118 168 -118 98 0 159 41 173 116 14 77 -21
118 -135 158 -44 15 -85 34 -91 41 -18 22 -7 58 21 74 22 12 29 12 55 0 16 -8
33 -24 39 -37 8 -19 17 -22 62 -22 l52 0 -9 31 c-13 45 -36 76 -69 93 -31 16
-117 28 -141 20z"/>
<path d="M7168 1936 c-58 -16 -72 -27 -98 -80 -26 -55 -35 -154 -21 -231 19
-102 67 -147 164 -153 101 -6 170 42 192 131 l7 27 -56 0 c-48 0 -56 -3 -56
-18 0 -26 -42 -62 -72 -62 -14 0 -36 8 -47 18 -61 49 -50 272 14 288 47 12 79
1 95 -33 14 -31 18 -33 68 -33 51 0 53 1 47 23 -16 52 -43 92 -76 108 -49 25
-107 30 -161 15z"/>
<path d="M2302 1708 l3 -232 45 -1 45 0 3 93 3 92 54 1 c30 1 63 2 73 3 15 1
17 -11 20 -96 3 -108 1 -106 71 -92 l31 7 -2 226 -3 226 -47 3 -48 3 0 -94 0
-94 -75 1 -75 1 0 93 0 92 -50 0 -50 0 2 -232z"/>
<path d="M3422 1708 l3 -233 45 0 45 1 0 147 c0 81 2 147 5 147 3 0 20 -36 38
-79 41 -97 49 -107 89 -116 l33 -7 45 93 c25 51 45 99 45 106 0 7 3 13 8 13 4
0 7 -69 7 -152 l0 -153 43 -1 42 -2 1 127 c0 69 1 173 1 231 l2 105 -50 3 -50
3 -62 -133 -63 -133 -61 133 -62 132 -53 0 -53 0 2 -232z"/>
<path d="M4097 1934 c-4 -4 -7 -108 -7 -230 l0 -223 33 -5 c17 -3 84 -5 147
-3 l115 2 0 40 0 40 -97 3 -98 3 0 54 0 55 85 0 85 0 0 40 0 40 -85 0 -85 0 0
55 0 55 101 0 100 0 -3 38 -3 37 -141 3 c-77 1 -143 -1 -147 -4z"/>
<path d="M5135 1928 c-2 -7 -3 -112 -2 -233 l2 -220 145 0 145 0 0 40 0 40
-97 3 -98 3 0 54 0 55 84 0 c88 0 93 2 92 50 -1 24 -3 25 -88 28 l-88 3 0 54
0 55 100 0 100 0 0 40 0 40 -145 0 c-108 0 -147 -3 -150 -12z"/>
<path d="M5642 1708 l3 -233 45 0 45 0 0 78 0 77 37 0 c37 0 39 -2 74 -72 20
-40 38 -75 40 -77 9 -10 96 -6 100 4 3 6 -14 44 -36 84 -22 41 -40 76 -40 78
0 3 11 14 25 25 47 37 56 144 17 210 -25 43 -77 58 -202 58 l-110 0 2 -232z
m194 146 c41 -11 57 -81 28 -122 -12 -18 -25 -22 -70 -22 -49 0 -54 2 -55 23
-1 33 -1 111 0 120 1 8 66 9 97 1z"/>
<path d="M6150 1928 c0 -34 135 -448 148 -453 8 -3 36 -3 61 1 l47 6 63 212
c35 116 66 219 69 229 4 14 -3 17 -46 17 l-51 0 -14 -52 c-9 -29 -30 -106 -48
-171 l-33 -119 -33 114 c-17 62 -39 139 -48 171 l-16 57 -50 0 c-32 0 -49 -4
-49 -12z"/>
<path d="M6742 1708 l3 -232 36 -2 c20 -1 41 1 48 5 8 5 11 67 9 232 l-3 224
-48 3 -47 3 2 -233z m73 144 c-3 -3 -11 0 -18 7 -9 10 -8 11 6 5 10 -3 15 -9
12 -12z"/>
<path d="M7612 1708 l3 -233 143 0 c136 -1 142 0 144 20 4 64 11 60 -95 63
l-97 3 0 54 0 55 85 0 85 0 0 40 0 40 -85 0 -85 0 0 55 0 55 95 0 95 0 0 40 0
40 -145 0 -145 0 2 -232z"/>
</g>
</svg>
