<?xml version="1.0" encoding="UTF-8"?>
<svg version="1.1" xmlns="http://www.w3.org/2000/svg" width="300" height="300">
<path d="M0 0 C99 0 198 0 300 0 C300 99 300 198 300 300 C201 300 102 300 0 300 C0 201 0 102 0 0 Z " fill="#A41F67" transform="translate(0,0)"/>
<path d="M0 0 C2.52539552 1.45713636 2.52539552 1.45713636 5.0625 2.1875 C7.37190757 1.46462789 7.37190757 1.46462789 9.5625 0 C16.88782563 -4.50068007 25.76795266 -4.04447336 34.0625 -2.8125 C42.81511568 -0.13024681 49.41799511 6.1488534 54.095047 13.89834595 C57.78651122 21.04412001 57.5777867 27.96832558 57.453125 35.84765625 C57.44564951 37.24726039 57.43996277 38.64687511 57.43597412 40.04649353 C57.42082027 43.70126068 57.38163015 47.35537543 57.3371582 51.0098877 C57.29598156 54.75064269 57.27791571 58.49150478 57.2578125 62.23242188 C57.21512299 69.55111081 57.14486056 76.86913028 57.0625 84.1875 C48.8125 84.1875 40.5625 84.1875 32.0625 84.1875 C32.0531543 82.44621826 32.04380859 80.70493652 32.03417969 78.91088867 C31.9986657 73.15910642 31.94487651 67.40765145 31.87859726 61.65615368 C31.83907934 58.16878051 31.8069126 54.68166144 31.79150391 51.1940918 C31.77346949 47.18497025 31.72353871 43.17679895 31.671875 39.16796875 C31.67064636 37.91477341 31.66941772 36.66157806 31.66815186 35.3704071 C31.64843323 34.20943008 31.6287146 33.04845306 31.60839844 31.85229492 C31.59951599 30.82859299 31.59063354 29.80489105 31.58148193 28.75016785 C31.28573112 26.0703331 31.28573112 26.0703331 29.2197876 24.35688782 C26.30264769 22.77561146 24.33146622 22.77018516 21.0625 23.1875 C19.29670529 24.30267707 19.29670529 24.30267707 18.0625 26.1875 C17.58896848 28.82884748 17.58896848 28.82884748 17.63012695 31.85229492 C17.61033279 33.01327194 17.59053864 34.17424896 17.57014465 35.3704071 C17.56375473 36.62360245 17.55736481 37.87679779 17.55078125 39.16796875 C17.52385445 41.09265739 17.52385445 41.09265739 17.49638367 43.05622864 C17.44887263 46.46413059 17.41907093 49.87196629 17.39294434 53.28009033 C17.36314402 56.75912563 17.31661199 60.23793261 17.27148438 63.71679688 C17.18543898 70.54024995 17.11964615 77.36374433 17.0625 84.1875 C8.8125 84.1875 0.5625 84.1875 -7.9375 84.1875 C-7.95208252 82.44621826 -7.96666504 80.70493652 -7.98168945 78.91088867 C-8.03332525 73.15914334 -8.09860698 67.40764008 -8.17321491 61.65615368 C-8.21795208 58.1688232 -8.25720032 54.68161043 -8.28393555 51.1940918 C-8.31490851 47.18508213 -8.36969816 43.17670633 -8.42578125 39.16796875 C-8.43217117 37.91477341 -8.4385611 36.66157806 -8.44514465 35.3704071 C-8.46493881 34.20943008 -8.48473297 33.04845306 -8.50512695 31.85229492 C-8.52178154 30.31674202 -8.52178154 30.31674202 -8.53877258 28.75016785 C-8.74470109 26.16908074 -8.74470109 26.16908074 -10.24186707 24.35298157 C-13.04987686 22.42291546 -15.65145984 22.88876908 -18.9375 23.1875 C-21.5914553 25.8414553 -21.20901383 27.12275003 -21.25634766 30.83056641 C-21.27621735 32.01163971 -21.29608704 33.19271301 -21.31655884 34.40957642 C-21.33388565 36.32992203 -21.33388565 36.32992203 -21.3515625 38.2890625 C-21.37092865 39.59579926 -21.3902948 40.90253601 -21.4102478 42.24887085 C-21.4616417 45.72417109 -21.50122822 49.19951012 -21.53839111 52.67498779 C-21.57838553 56.22092301 -21.62939096 59.76669841 -21.6796875 63.3125 C-21.77757646 70.27077328 -21.85702946 77.22891594 -21.9375 84.1875 C-30.5175 84.1875 -39.0975 84.1875 -47.9375 84.1875 C-48.09677471 76.34558352 -48.22470699 68.5045792 -48.3001852 60.66148186 C-48.33644448 57.01800473 -48.38547503 53.37570805 -48.46557617 49.73291016 C-48.5426385 46.20551403 -48.58369448 42.67923987 -48.6016407 39.15106583 C-48.62053273 37.17584395 -48.6750129 35.2010626 -48.73057556 33.22653198 C-48.73507338 22.6758602 -45.85225495 13.96481687 -38.92869568 5.82614136 C-29.01851111 -3.86396966 -12.25341471 -6.71849159 0 0 Z " fill="#FDFBFC" transform="translate(98.9375,153.8125)"/>
<path d="M0 0 C0.81855469 0.48726562 1.63710937 0.97453125 2.48046875 1.4765625 C4.79329238 2.63475957 4.79329238 2.63475957 7.17578125 1.7109375 C8.04589844 1.27007812 8.91601562 0.82921875 9.8125 0.375 C14.88226931 -2.0644537 19.09104769 -3.14808091 24.6875 -3.0625 C25.39076416 -3.05420166 26.09402832 -3.04590332 26.81860352 -3.03735352 C32.65977681 -2.84788454 36.94816081 -1.81457638 41.8125 1.375 C42.59238281 1.88417969 43.37226563 2.39335938 44.17578125 2.91796875 C51.42289506 8.10125637 55.32634074 13.85396985 57.8125 22.375 C58.05300903 25.45028687 58.05300903 25.45028687 58.03955078 28.74755859 C58.03939972 29.98839203 58.03924866 31.22922546 58.03909302 32.50765991 C58.02888225 33.84625411 58.0184503 35.18484663 58.0078125 36.5234375 C58.00407813 37.90491531 58.00123316 39.28639578 57.99923706 40.6678772 C57.99163392 44.28793771 57.97201437 47.90783543 57.9498291 51.52783203 C57.92929878 55.22816771 57.92022004 58.92852992 57.91015625 62.62890625 C57.88876496 69.87768665 57.85361033 77.12629969 57.8125 84.375 C49.5625 84.375 41.3125 84.375 32.8125 84.375 C32.8031543 82.63371826 32.79380859 80.89243652 32.78417969 79.09838867 C32.7486657 73.34660642 32.69487651 67.59515145 32.62859726 61.84365368 C32.58907934 58.35628051 32.5569126 54.86916144 32.54150391 51.3815918 C32.52346949 47.37247025 32.47353871 43.36429895 32.421875 39.35546875 C32.42064636 38.10227341 32.41941772 36.84907806 32.41815186 35.5579071 C32.39843323 34.39693008 32.3787146 33.23595306 32.35839844 32.03979492 C32.34951599 31.01609299 32.34063354 29.99239105 32.33148193 28.93766785 C32.03573112 26.2578331 32.03573112 26.2578331 29.9697876 24.54438782 C27.05264769 22.96311146 25.08146622 22.95768516 21.8125 23.375 C20.04670529 24.49017707 20.04670529 24.49017707 18.8125 26.375 C18.33896848 29.01634748 18.33896848 29.01634748 18.38012695 32.03979492 C18.36033279 33.20077194 18.34053864 34.36174896 18.32014465 35.5579071 C18.31375473 36.81110245 18.30736481 38.06429779 18.30078125 39.35546875 C18.27385445 41.28015739 18.27385445 41.28015739 18.24638367 43.24372864 C18.19887263 46.65163059 18.16907093 50.05946629 18.14294434 53.46759033 C18.11314402 56.94662563 18.06661199 60.42543261 18.02148438 63.90429688 C17.93543898 70.72774995 17.86964615 77.55124433 17.8125 84.375 C9.5625 84.375 1.3125 84.375 -7.1875 84.375 C-7.20208252 82.63371826 -7.21666504 80.89243652 -7.23168945 79.09838867 C-7.28332525 73.34664334 -7.34860698 67.59514008 -7.42321491 61.84365368 C-7.46795208 58.3563232 -7.50720032 54.86911043 -7.53393555 51.3815918 C-7.56490851 47.37258213 -7.61969816 43.36420633 -7.67578125 39.35546875 C-7.68217117 38.10227341 -7.6885611 36.84907806 -7.69514465 35.5579071 C-7.71493881 34.39693008 -7.73473297 33.23595306 -7.75512695 32.03979492 C-7.77178154 30.50424202 -7.77178154 30.50424202 -7.78877258 28.93766785 C-7.99080411 26.35000856 -7.99080411 26.35000856 -9.52702332 24.54048157 C-12.08907663 22.74218717 -14.14685151 23.05826578 -17.1875 23.375 C-18.1775 24.035 -19.1675 24.695 -20.1875 25.375 C-20.6654392 27.95716021 -20.6654392 27.95716021 -20.61987305 31.01806641 C-20.63966721 32.19913971 -20.65946136 33.38021301 -20.67985535 34.59707642 C-20.68624527 35.87730682 -20.69263519 37.15753723 -20.69921875 38.4765625 C-20.71716995 39.78329926 -20.73512115 41.09003601 -20.75361633 42.43637085 C-20.80119103 45.91169199 -20.8309515 49.38694789 -20.85705566 52.86248779 C-20.88682393 56.40845542 -20.93320454 59.95420253 -20.97851562 63.5 C-21.06620881 70.45835207 -21.12608608 77.41616712 -21.1875 84.375 C-29.7675 84.375 -38.3475 84.375 -47.1875 84.375 C-47.27164603 76.60084193 -47.3517509 68.82835645 -47.39450073 61.05413818 C-47.41552498 57.43302703 -47.44356574 53.8122973 -47.48925781 50.19140625 C-47.53307814 46.69652463 -47.55671218 43.20201024 -47.56700897 39.70687485 C-47.57787481 37.74058659 -47.60904181 35.77444377 -47.64068604 33.80838013 C-47.64366374 21.77913471 -44.73704884 14.18635378 -36.42578125 5.5078125 C-26.71836996 -3.7421815 -12.06736363 -6.01728594 0 0 Z " fill="#FDFBFC" transform="translate(98.1875,47.625)"/>
<path d="M0 0 C1.39745367 1.03278966 2.77408766 2.09453746 4.125 3.1875 C4.73859375 3.66574219 5.3521875 4.14398438 5.984375 4.63671875 C12.61548427 10.46094526 18.01197086 20.42067785 19.125 29.1875 C19.89672341 44.0476625 17.94879803 55.21072121 7.8984375 66.7421875 C-2.03243946 76.34958313 -13.48019994 80.59198618 -27.0703125 80.46484375 C-39.45740731 79.56188304 -49.77871641 74.09991338 -58.2421875 65.1640625 C-67.48817051 53.97155675 -68.94811112 42.42111703 -68.10888672 28.33349609 C-66.97485205 17.92831369 -60.24404872 8.83413518 -52.5234375 2.15234375 C-36.867779 -9.55212475 -16.68883638 -10.49736251 0 0 Z " fill="#FDFBFC" transform="translate(236.875,51.8125)"/>
<path d="M0 0 C0.84691406 -0.01160156 1.69382813 -0.02320313 2.56640625 -0.03515625 C10.3566501 0.00063354 17.10618915 1.93188476 23.875 5.8125 C24.57109375 6.20308594 25.2671875 6.59367188 25.984375 6.99609375 C31.03183406 10.24746792 34.48016353 13.84521821 37.8125 18.8125 C38.20244141 19.37259766 38.59238281 19.93269531 38.99414062 20.50976562 C45.46811738 29.9938649 46.1227456 40.11156083 45.125 51.375 C43.28173063 58.27620053 40.53962827 64.71875753 36.125 70.375 C35.444375 71.344375 34.76375 72.31375 34.0625 73.3125 C28.27421835 80.10122539 18.50301048 85.62381619 9.58569336 86.67407227 C6.8005225 86.8126893 4.03837071 86.83359496 1.25 86.8125 C0.32058594 86.83248047 -0.60882813 86.85246094 -1.56640625 86.87304688 C-13.16268111 86.86496021 -21.57244313 82.24498668 -29.875 74.375 C-40.06183694 63.38957738 -42.654729 51.92079576 -42.34375 37.32421875 C-41.71967578 27.17326159 -35.96201798 18.48341216 -29.046875 11.2734375 C-25.3289543 8.02360034 -21.28583265 5.57043706 -16.875 3.375 C-15.82183594 2.83359375 -14.76867187 2.2921875 -13.68359375 1.734375 C-9.19329203 -0.14714816 -4.80569751 -0.06523571 0 0 Z " fill="#FDFCFC" transform="translate(210.875,150.625)"/>
<path d="M0 0 C4.98669311 2.22688204 8.43173983 5.33519145 10.671875 10.3515625 C12.44539989 16.65279211 11.87948042 21.63110481 8.91796875 27.44140625 C7.21344357 30.05429908 5.28609417 31.67578098 2.671875 33.3515625 C1.681875 34.0115625 0.691875 34.6715625 -0.328125 35.3515625 C-6.15531187 36.0206387 -11.5447351 36.19632614 -16.890625 33.6640625 C-20.86419648 29.89426392 -24.82939428 25.85563156 -25.62890625 20.23828125 C-25.66093677 14.22721949 -25.05239048 9.14519585 -20.640625 4.62109375 C-14.32731964 -0.91620116 -8.3546733 -2.32697277 0 0 Z " fill="#A41F67" transform="translate(219.328125,176.6484375)"/>
<path d="M0 0 C5.54094464 3.73691616 8.62286437 7.40126304 10.6875 13.8125 C11.45021359 19.81886954 10.56371249 23.08677859 7.12109375 28.05078125 C3.64354094 32.3242862 0.32841999 34.45769496 -5.1328125 35.19140625 C-11.54442532 35.54760696 -15.54336167 35.40661067 -20.5 31.0625 C-24.51437601 27.04067616 -26.59602189 23.80732505 -26.6875 18.0625 C-26.57282201 12.87905502 -25.32958465 9.03056009 -22.3125 4.8125 C-15.74397261 -1.42760102 -8.62109174 -3.09058006 0 0 Z " fill="#A42067" transform="translate(220.3125,71.1875)"/>
<path d="M0 0 C2.5 0.5 2.5 0.5 4.875 2.0625 C6.5 4.5 6.5 4.5 6.4375 8.125 C5.5 11.5 5.5 11.5 2.5 13.5 C-0.83579974 14.01319996 -2.05843891 13.82222026 -4.8125 11.8125 C-6.5 9.5 -6.5 9.5 -7 7 C-6.17118793 2.85593966 -4.14406034 0.82881207 0 0 Z " fill="#F2E6EC" transform="translate(197.5,255.5)"/>
<path d="M0 0 C1.8125 1.0625 1.8125 1.0625 3 3 C3.36841966 6.43858351 3.58367385 8.90131981 1.9375 12 C-1.22796524 13.63378851 -3.65020286 12.85267564 -7 12 C-9 9 -9 9 -8.8125 5.4375 C-7.59177229 0.27288275 -4.97572317 -0.6219654 0 0 Z " fill="#EFDFE7" transform="translate(79,256)"/>
<path d="M0 0 C0.66 0.66 1.32 1.32 2 2 C1.67 2.33 1.34 2.66 1 3 C0.87669912 4.8096774 0.82209817 6.62407837 0.79467773 8.43774414 C0.77473251 9.59887222 0.75478729 10.76000031 0.73423767 11.95631409 C0.71752518 13.219832 0.70081268 14.48334991 0.68359375 15.78515625 C0.66281265 17.07111191 0.64203156 18.35706757 0.62062073 19.68199158 C0.56533824 23.10635904 0.51595639 26.5307875 0.46777344 29.95526123 C0.41760335 33.44744314 0.3618939 36.9395361 0.30664062 40.43164062 C0.1989836 47.28768333 0.09755551 54.14380633 0 61 C-0.99 61 -1.98 61 -3 61 C-3.06949335 53.48962286 -3.12280778 45.97927904 -3.15543652 38.46865368 C-3.17109635 34.98118424 -3.1923398 31.49393468 -3.22631836 28.0065918 C-3.2651328 23.99786257 -3.2797065 19.98936452 -3.29296875 15.98046875 C-3.30845261 14.72727341 -3.32393646 13.47407806 -3.33988953 12.1829071 C-3.34011612 11.02193008 -3.34034271 9.86095306 -3.34057617 8.66479492 C-3.34723801 7.64109299 -3.35389984 6.61739105 -3.36076355 5.56266785 C-2.95037913 2.64752037 -2.28869739 1.77365841 0 0 Z " fill="#B0497E" transform="translate(119,71)"/>
<path d="M0 0 C3.375 -0.125 3.375 -0.125 7 0 C9.35302007 2.35302007 9.39392208 3.27435295 9.75 6.5 C9.89695312 7.69109375 9.89695312 7.69109375 10.046875 8.90625 C10 11 10 11 8 13 C5.31160615 13.26991906 2.70858064 13.08737357 0 13 C0 8.71 0 4.42 0 0 Z " fill="#F9F3F6" transform="translate(90,256)"/>
<path d="M0 0 C0.66 0 1.32 0 2 0 C2 4.29 2 8.58 2 13 C1.01 12.67 0.02 12.34 -1 12 C-1.6875 9.9375 -1.6875 9.9375 -2 8 C-3.32 8 -4.64 8 -6 8 C-6.33 9.65 -6.66 11.3 -7 13 C-7.99 13 -8.98 13 -10 13 C-10 9.04 -10 5.08 -10 1 C-8.68 1.33 -7.36 1.66 -6 2 C-5.67 2.66 -5.34 3.32 -5 4 C-4.34 4 -3.68 4 -3 4 C-2.505 3.34 -2.01 2.68 -1.5 2 C-1.005 1.34 -0.51 0.68 0 0 Z " fill="#ECD8E2" transform="translate(61,256)"/>
<path d="M0 0 C1.23556641 0.01740234 1.23556641 0.01740234 2.49609375 0.03515625 C3.32238281 0.04417969 4.14867187 0.05320313 5 0.0625 C5.63808594 0.07410156 6.27617187 0.08570313 6.93359375 0.09765625 C6.93359375 1.08765625 6.93359375 2.07765625 6.93359375 3.09765625 C4.62359375 3.09765625 2.31359375 3.09765625 -0.06640625 3.09765625 C-0.06640625 3.75765625 -0.06640625 4.41765625 -0.06640625 5.09765625 C1.91359375 5.09765625 3.89359375 5.09765625 5.93359375 5.09765625 C5.93359375 6.08765625 5.93359375 7.07765625 5.93359375 8.09765625 C3.95359375 8.09765625 1.97359375 8.09765625 -0.06640625 8.09765625 C-0.06640625 8.75765625 -0.06640625 9.41765625 -0.06640625 10.09765625 C2.24359375 10.09765625 4.55359375 10.09765625 6.93359375 10.09765625 C6.93359375 11.08765625 6.93359375 12.07765625 6.93359375 13.09765625 C5.45452483 13.12454841 3.97531892 13.14400246 2.49609375 13.16015625 C1.26052734 13.17755859 1.26052734 13.17755859 0 13.1953125 C-2.06640625 13.09765625 -2.06640625 13.09765625 -3.06640625 12.09765625 C-3.16491796 10.26649742 -3.19613254 8.43145692 -3.19140625 6.59765625 C-3.19398438 5.59734375 -3.1965625 4.59703125 -3.19921875 3.56640625 C-3.01502055 0.14248679 -3.01502055 0.14248679 0 0 Z " fill="#EEDBE4" transform="translate(231.06640625,255.90234375)"/>
<path d="M0 0 C2.05078125 0.03255208 4.1015625 0.06510417 6.15234375 0.09765625 C6.48234375 1.08765625 6.81234375 2.07765625 7.15234375 3.09765625 C4.84234375 3.09765625 2.53234375 3.09765625 0.15234375 3.09765625 C0.15234375 3.75765625 0.15234375 4.41765625 0.15234375 5.09765625 C2.13234375 5.09765625 4.11234375 5.09765625 6.15234375 5.09765625 C6.15234375 6.08765625 6.15234375 7.07765625 6.15234375 8.09765625 C4.17234375 8.09765625 2.19234375 8.09765625 0.15234375 8.09765625 C0.15234375 8.75765625 0.15234375 9.41765625 0.15234375 10.09765625 C2.46234375 10.09765625 4.77234375 10.09765625 7.15234375 10.09765625 C7.15234375 11.08765625 7.15234375 12.07765625 7.15234375 13.09765625 C5.67327483 13.12454841 4.19406892 13.14400246 2.71484375 13.16015625 C1.47927734 13.17755859 1.47927734 13.17755859 0.21875 13.1953125 C-1.84765625 13.09765625 -1.84765625 13.09765625 -2.84765625 12.09765625 C-2.94616796 10.26649742 -2.97738254 8.43145692 -2.97265625 6.59765625 C-2.97523438 5.59734375 -2.9778125 4.59703125 -2.98046875 3.56640625 C-2.7965569 0.14780956 -2.7965569 0.14780956 0 0 Z " fill="#E9D4DE" transform="translate(134.84765625,255.90234375)"/>
<path d="M0 0 C3.76687864 1.88343932 4.79421646 2.69132469 7 6 C7.33 4.35 7.66 2.7 8 1 C8.99 1 9.98 1 11 1 C11 4.63 11 8.26 11 12 C9.68 12 8.36 12 7 12 C5.25 10 5.25 10 4 8 C3.34 9.65 2.68 11.3 2 13 C1.34 13 0.68 13 0 13 C0 8.71 0 4.42 0 0 Z " fill="#EDDCE4" transform="translate(211,256)"/>
<path d="M0 0 C0.66 0 1.32 0 2 0 C2.66 1.65 3.32 3.3 4 5 C4.78375 4.175 5.5675 3.35 6.375 2.5 C9 0 9 0 11 0 C11 4.29 11 8.58 11 13 C10.34 13 9.68 13 9 13 C8.67 11.02 8.34 9.04 8 7 C7.67 7.66 7.34 8.32 7 9 C5.68 8.67 4.36 8.34 3 8 C2.67 9.65 2.34 11.3 2 13 C1.01 12.67 0.02 12.34 -1 12 C-1.02687279 10.18757948 -1.04633715 8.37504767 -1.0625 6.5625 C-1.07410156 5.55316406 -1.08570313 4.54382813 -1.09765625 3.50390625 C-1 1 -1 1 0 0 Z " fill="#F7EEF2" transform="translate(173,256)"/>
<path d="M0 0 C2.46800047 1.15173355 4.04783565 2.04783565 6 4 C6.45375 3.34 6.9075 2.68 7.375 2 C7.91125 1.34 8.4475 0.68 9 0 C9.66 0 10.32 0 11 0 C10.38722388 2.96175123 9.74627478 4.38058783 8 7 C7.29835358 8.98799818 6.62627128 10.98698517 6 13 C4 12 4 12 3 9.125 C2.67 8.09375 2.34 7.0625 2 6 C1.34 5.01 0.68 4.02 0 3 C0 2.01 0 1.02 0 0 Z " fill="#EEDDE5" transform="translate(245,256)"/>
<path d="M0 0 C0.66 0 1.32 0 2 0 C2 3.3 2 6.6 2 10 C3.98 10 5.96 10 8 10 C8 10.99 8 11.98 8 13 C1.84765625 13.09765625 1.84765625 13.09765625 0 13 C-1 12 -1 12 -1.1328125 9.53125 C-1.13023438 8.5309375 -1.12765625 7.530625 -1.125 6.5 C-1.12757812 5.4996875 -1.13015625 4.499375 -1.1328125 3.46875 C-1 1 -1 1 0 0 Z " fill="#EAD2DD" transform="translate(117,256)"/>
<path d="M0 0 C0.66 0 1.32 0 2 0 C2.433125 1.2065625 2.433125 1.2065625 2.875 2.4375 C3.73262568 5.1326468 3.73262568 5.1326468 6 6 C5.01 6.33 4.02 6.66 3 7 C2.67 8.98 2.34 10.96 2 13 C1.01 12.67 0.02 12.34 -1 12 C-1.02687279 10.18757948 -1.04633715 8.37504767 -1.0625 6.5625 C-1.07410156 5.55316406 -1.08570313 4.54382813 -1.09765625 3.50390625 C-1 1 -1 1 0 0 Z " fill="#EBD5E0" transform="translate(173,256)"/>
<path d="M0 0 C1.67542976 0.28604898 3.34385343 0.61781233 5 1 C5 2.65 5 4.3 5 6 C2.625 6.625 2.625 6.625 0 7 C-0.66 6.34 -1.32 5.68 -2 5 C-1.46428571 1.46428571 -1.46428571 1.46428571 0 0 Z " fill="#A62368" transform="translate(196,259)"/>
<path d="M0 0 C1.67542976 0.28604898 3.34385343 0.61781233 5 1 C5.625 2.875 5.625 2.875 6 5 C5.34 5.66 4.68 6.32 4 7 C1.375 6.625 1.375 6.625 -1 6 C-1.042721 4.33388095 -1.04063832 2.66617115 -1 1 C-0.67 0.67 -0.34 0.34 0 0 Z " fill="#A52467" transform="translate(74,259)"/>
<path d="M0 0 C1.23556641 0.01740234 1.23556641 0.01740234 2.49609375 0.03515625 C3.32238281 0.04417969 4.14867187 0.05320313 5 0.0625 C5.63808594 0.07410156 6.27617187 0.08570313 6.93359375 0.09765625 C6.93359375 1.08765625 6.93359375 2.07765625 6.93359375 3.09765625 C4.29359375 3.09765625 1.65359375 3.09765625 -1.06640625 3.09765625 C-1.39640625 6.06765625 -1.72640625 9.03765625 -2.06640625 12.09765625 C-2.39640625 12.09765625 -2.72640625 12.09765625 -3.06640625 12.09765625 C-3.09327904 10.28523573 -3.1127434 8.47270392 -3.12890625 6.66015625 C-3.14050781 5.65082031 -3.15210938 4.64148438 -3.1640625 3.6015625 C-3.02917925 0.14315592 -3.02917925 0.14315592 0 0 Z " fill="#E2C8D4" transform="translate(231.06640625,255.90234375)"/>
<path d="M0 0 C0.99 0.33 1.98 0.66 3 1 C4.80129616 5.07661762 5.30216184 8.56829305 5 13 C4.67 13.66 4.34 14.32 4 15 C3.34 15 2.68 15 2 15 C1.93941406 14.25234375 1.87882813 13.5046875 1.81640625 12.734375 C1.73261719 11.74953125 1.64882812 10.7646875 1.5625 9.75 C1.48128906 8.77546875 1.40007812 7.8009375 1.31640625 6.796875 C1.04925416 4.43538247 0.64628032 2.28098935 0 0 Z " fill="#A8296D" transform="translate(226,184)"/>
<path d="M0 0 C0.99 0.33 1.98 0.66 3 1 C3 4.63 3 8.26 3 12 C2.01 12.33 1.02 12.66 0 13 C0 8.71 0 4.42 0 0 Z " fill="#E8CFDB" transform="translate(107,256)"/>
<path d="M0 0 C0.625 1.875 0.625 1.875 1 4 C-1 6 -1 6 -2.9453125 6.1953125 C-4.96354167 6.13020833 -6.98177083 6.06510417 -9 6 C-8.34 5.34 -7.68 4.68 -7 4 C-7 3.01 -7 2.02 -7 1 C-5.5459375 1.0309375 -5.5459375 1.0309375 -4.0625 1.0625 C-1.12534105 1.35618499 -1.12534105 1.35618499 0 0 Z " fill="#D193B3" transform="translate(99,263)"/>
<path d="M0 0 C3.375 -0.125 3.375 -0.125 7 0 C9 2 9 2 9.125 4.625 C9.08375 5.40875 9.0425 6.1925 9 7 C8.34 6.34 7.68 5.68 7 5 C4.41645782 4.83312552 4.41645782 4.83312552 2 5 C2 4.01 2 3.02 2 2 C1.34 1.34 0.68 0.68 0 0 Z " fill="#D49BB9" transform="translate(90,256)"/>
<path d="M0 0 C-0.33 0.99 -0.66 1.98 -1 3 C-2.4540625 3.4640625 -2.4540625 3.4640625 -3.9375 3.9375 C-7.10504047 4.68468021 -7.10504047 4.68468021 -8.375 7.125 C-8.58125 7.74375 -8.7875 8.3625 -9 9 C-9.36337162 5.72965541 -9.28544288 4.39116247 -7.3125 1.6875 C-4.60883753 -0.28544288 -3.27034459 -0.36337162 0 0 Z " fill="#E5CAD6" transform="translate(200,256)"/>
<path d="M0 0 C0.66 0 1.32 0 2 0 C2.268125 0.763125 2.53625 1.52625 2.8125 2.3125 C3.94424112 4.87380884 4.91223401 6.19692938 7 8 C4.625 8.1875 4.625 8.1875 2 8 C-0.1519437 4.77208445 -0.20086443 3.71599191 0 0 Z " fill="#F5EBF0" transform="translate(70,260)"/>
<path d="M0 0 C0.99 0.33 1.98 0.66 3 1 C3.33 1.99 3.66 2.98 4 4 C3.01 4.33 2.02 4.66 1 5 C1 6.98 1 8.96 1 11 C0.67 11 0.34 11 0 11 C0 7.37 0 3.74 0 0 Z " fill="#FBF8FA" transform="translate(52,257)"/>
<path d="M0 0 C1.45047396 2.90094791 0.45356803 4.55972596 -0.4375 7.625 C-0.72496094 8.62789062 -1.01242188 9.63078125 -1.30859375 10.6640625 C-1.53675781 11.43492188 -1.76492187 12.20578125 -2 13 C-2.33 13 -2.66 13 -3 13 C-3.31563182 7.73946963 -2.66590937 4.55426184 0 0 Z " fill="#A31562" transform="translate(197,78)"/>
<path d="M0 0 C2.97 0.495 2.97 0.495 6 1 C6 2.98 6 4.96 6 7 C1.125 2.25 1.125 2.25 0 0 Z " fill="#A72A6D" transform="translate(213,256)"/>
</svg>
