<?xml version="1.0" encoding="UTF-8"?>
<svg version="1.1" xmlns="http://www.w3.org/2000/svg" width="300" height="300">
<path d="M0 0 C99 0 198 0 300 0 C300 99 300 198 300 300 C201 300 102 300 0 300 C0 201 0 102 0 0 Z " fill="#FDFEFE" transform="translate(0,0)"/>
<path d="M0 0 C0.96385137 -0.00958323 0.96385137 -0.00958323 1.94717449 -0.01936007 C4.09261585 -0.03457753 6.23620058 -0.01417434 8.38157654 0.00622559 C9.92260855 0.00272339 11.46363694 -0.00293631 13.00465393 -0.0105896 C17.1844856 -0.02483212 21.36365899 -0.00778245 25.54342771 0.01569557 C29.91777374 0.03580623 34.29209249 0.02992497 38.66647339 0.02758789 C46.01123408 0.02764145 53.35573745 0.04739489 60.70042419 0.07946777 C69.19326265 0.116374 77.68576419 0.12514138 86.17867237 0.11817026 C94.34846967 0.11186675 102.51815137 0.12261583 110.68792534 0.14213562 C114.16512129 0.15031266 117.6422582 0.15301862 121.11946297 0.15144348 C125.21288579 0.15056501 129.30598806 0.16477037 133.39932632 0.19067001 C134.90215056 0.19783627 136.40500889 0.19991322 137.90784645 0.19655228 C139.95779188 0.19284201 142.00774425 0.20941588 144.05761719 0.22705078 C145.77900327 0.23264385 145.77900327 0.23264385 147.53516483 0.23834991 C150.79198218 0.66417065 152.16033435 1.31532555 154.46531677 3.62145996 C155.77674699 7.55575061 155.62935645 11.31753161 155.64231873 15.4197998 C155.64888992 16.31928848 155.65546112 17.21877716 155.66223145 18.14552307 C155.68195535 21.12448203 155.69362376 24.10339066 155.70359802 27.08239746 C155.70767355 28.09943378 155.71174908 29.11647011 155.7159481 30.16432571 C155.7368029 35.54521736 155.75110836 40.92608352 155.76048279 46.30700684 C155.77155845 51.8679035 155.80597351 57.42840126 155.84565449 62.98915672 C155.87177816 67.26309969 155.88017075 71.53694688 155.88376427 75.81096268 C155.88863959 77.86109747 155.90028038 79.91122772 155.91880226 81.96128464 C155.94310777 84.82929045 155.9422446 87.69625414 155.93528748 90.56433105 C155.95450256 91.83472481 155.95450256 91.83472481 155.97410583 93.13078308 C155.93882264 97.11983056 155.75532249 99.14854323 153.6234436 102.62503052 C150.27378225 105.72371891 147.51955774 105.7433066 143.14109802 105.71911621 C142.11307068 105.71589355 141.08504333 105.7126709 140.02586365 105.70935059 C138.95400818 105.70097168 137.88215271 105.69259277 136.77781677 105.68395996 C135.69435974 105.67944824 134.61090271 105.67493652 133.49461365 105.67028809 C130.81812592 105.65849739 128.141749 105.64204059 125.46531677 105.62145996 C125.76333191 104.87904053 126.06134705 104.13662109 126.36839294 103.3717041 C127.26446218 101.12504931 128.14671378 98.8746036 129.01609802 96.61755371 C131.92735594 89.08039138 134.85826694 81.5605376 138.00437927 74.11755371 C139.26716093 71.09565643 140.50723183 68.06633201 141.73875427 65.03161621 C142.14561462 64.03033691 142.55247498 63.02905762 142.97166443 61.99743652 C143.79357729 59.97282667 144.61359902 57.94744794 145.43162537 55.92126465 C145.80883728 54.99346191 146.18604919 54.06565918 146.57469177 53.10974121 C146.91468201 52.26967529 147.25467224 51.42960937 147.60496521 50.56408691 C148.46531677 48.62145996 148.46531677 48.62145996 149.46531677 47.62145996 C149.78991938 43.59062985 149.78991938 43.59062985 149.46531677 39.62145996 C146.59528955 37.35297761 146.59528955 37.35297761 143.09031677 37.37145996 C139.08697923 38.75192118 138.80510269 39.01950428 136.96531677 42.55895996 C136.09085 44.56233703 135.26539918 46.58723285 134.46531677 48.62145996 C134.0232489 49.72820068 134.0232489 49.72820068 133.57225037 50.8572998 C131.48384452 56.09250338 129.45820326 61.3492127 127.46531677 66.62145996 C125.19807153 64.35421472 124.6887788 62.81986236 123.65281677 59.80895996 C123.30734802 58.83313965 122.96187927 57.85731934 122.60594177 56.85192871 C122.22953552 55.78587402 121.85312927 54.71981934 121.46531677 53.62145996 C120.62285068 51.28387659 119.7686979 48.95047156 118.90281677 46.62145996 C118.50965271 45.54895996 118.11648865 44.47645996 117.71141052 43.37145996 C116.53664188 40.7788671 115.77516156 39.25903649 113.46531677 37.62145996 C108.41966675 37.8128348 108.41966675 37.8128348 104.46531677 40.62145996 C104.804589 45.86713059 106.31850893 50.51314621 108.21531677 55.37145996 C108.48191101 56.06956787 108.74850525 56.76767578 109.0231781 57.48693848 C110.94965238 62.46781681 113.10953096 67.31370084 115.35984802 72.15661621 C120.41383734 83.42540511 120.41383734 83.42540511 118.46531677 88.62145996 C118.14562927 89.28790527 117.82594177 89.95435059 117.49656677 90.64099121 C116.95516052 91.77601074 116.95516052 91.77601074 116.40281677 92.93395996 C116.04059021 93.63134277 115.67836365 94.32872559 115.30516052 95.04724121 C114.48893866 97.54905614 114.37732976 99.18613089 114.41282654 101.78234863 C114.43014832 103.04925537 114.44747009 104.31616211 114.46531677 105.62145996 C99.01874259 105.66817381 83.57217368 105.70344579 68.1255455 105.7250843 C60.95345957 105.73539834 53.78141751 105.7494611 46.60935974 105.77233887 C40.358437 105.79226886 34.10754604 105.80517547 27.85659242 105.80963695 C24.54653354 105.812245 21.23658683 105.81942499 17.92655182 105.83292007 C14.2320613 105.84738681 10.53776063 105.8494399 6.84324646 105.84851074 C5.19571129 105.85929657 5.19571129 105.85929657 3.51489258 105.87030029 C2.50810959 105.86755096 1.5013266 105.86480164 0.46403503 105.86196899 C-0.40982471 105.86381258 -1.28368446 105.86565617 -2.18402481 105.86755562 C-5.85818415 105.48289971 -7.89904749 104.38142301 -10.25843811 101.56054688 C-12.01667959 97.51146222 -11.96978539 93.96681737 -11.9546051 89.59606934 C-11.96307465 88.6962886 -11.97154419 87.79650787 -11.98027039 86.86946106 C-12.00363094 83.90123281 -12.00466288 80.9335231 -12.00343323 77.96520996 C-12.01053451 75.89924919 -12.01823346 73.8332904 -12.02650452 71.76733398 C-12.03994654 67.43984491 -12.04151892 63.11253828 -12.03565979 58.78503418 C-12.0297589 53.23972134 -12.06037306 47.69528255 -12.10077667 42.15013885 C-12.12662361 37.884738 -12.1295339 33.61954858 -12.12588501 29.3540802 C-12.12757855 27.30953267 -12.13724348 25.26497563 -12.1550293 23.22050476 C-12.17716334 20.36202392 -12.16754602 17.50532529 -12.1499176 14.64685059 C-12.16318085 13.80306351 -12.17644409 12.95927643 -12.19010925 12.08992004 C-12.17890045 11.3077562 -12.16769165 10.52559235 -12.15614319 9.71972656 C-12.1568557 9.04501564 -12.15756821 8.37030472 -12.15830231 7.67514801 C-10.30580298 1.57453972 -5.85191362 -0.00363211 0 0 Z " fill="#04BC04" transform="translate(70.53468322753906,147.3785400390625)"/>
<path d="M0 0 C1.00139008 -0.01583633 2.00278015 -0.03167267 3.03451538 -0.04798889 C4.11061066 -0.04302902 5.18670593 -0.03806915 6.29541016 -0.03295898 C7.40751862 -0.03915756 8.51962708 -0.04535614 9.66543579 -0.05174255 C12.01734542 -0.05884469 14.36930529 -0.05565994 16.72119141 -0.04296875 C20.31458527 -0.02912933 23.90536231 -0.06314028 27.49853516 -0.10131836 C29.78499413 -0.10226981 32.07145635 -0.10040936 34.35791016 -0.09545898 C35.42995697 -0.10871719 36.50200378 -0.1219754 37.60653687 -0.13563538 C45.9340432 -0.03206274 45.9340432 -0.03206274 49.65014648 2.88525391 C51.95947266 5.53344727 51.95947266 5.53344727 52.51025391 8.53344727 C50.71264073 18.32470199 41.4782388 27.13357632 35.35595703 34.77807617 C33.17016375 37.52560304 31.03222933 40.30908468 28.89697266 43.09594727 C25.48547046 47.54554316 22.07005766 51.99209185 18.65087891 56.43579102 C18.19620239 57.02678589 17.74152588 57.61778076 17.27307129 58.22668457 C16.16858061 59.6623046 15.06403277 61.09788066 13.95947266 62.53344727 C14.9987793 62.54802979 16.03808594 62.5626123 17.10888672 62.57763672 C20.9707248 62.63567907 24.83198341 62.71291106 28.69335938 62.79589844 C30.36351099 62.82911997 32.03377412 62.85716061 33.70410156 62.87988281 C36.10741629 62.91348061 38.50971164 62.96579673 40.91259766 63.02172852 C42.03000336 63.0313134 42.03000336 63.0313134 43.16998291 63.04109192 C47.33004559 63.15865631 50.01619509 63.45934695 52.95947266 66.53344727 C53.52587891 68.65454102 53.52587891 68.65454102 53.52197266 70.97094727 C53.54388672 71.7327832 53.56580078 72.49461914 53.58837891 73.27954102 C52.59966576 76.82294155 51.12556807 77.65227817 47.95947266 79.53344727 C44.13615851 80.11332907 40.3509592 80.04603459 36.49072266 79.99438477 C35.37765747 79.99346832 34.26459229 79.99255188 33.11779785 79.99160767 C30.76761605 79.98557343 28.41744188 79.96983291 26.06738281 79.94506836 C22.4725303 79.9085798 18.87870972 79.90404902 15.28369141 79.90454102 C12.99852626 79.89470877 10.71336809 79.88305131 8.42822266 79.86938477 C7.35415161 79.86715912 6.28008057 79.86493347 5.17346191 79.86264038 C4.16891968 79.84988068 3.16437744 79.83712097 2.12939453 79.82397461 C1.24956909 79.81635101 0.36974365 79.80872742 -0.53674316 79.8008728 C-3.36677569 79.49860116 -5.48866341 78.7841816 -8.04052734 77.53344727 C-11.00319021 73.85565888 -11.48358431 71.18266838 -11.04052734 66.53344727 C-9.56396484 63.95532227 -9.56396484 63.95532227 -7.41552734 61.28344727 C-6.82034302 60.52862061 -6.82034302 60.52862061 -6.21313477 59.75854492 C-5.32285842 58.63053674 -4.42658154 57.50724698 -3.52539062 56.38793945 C-1.35361459 53.67554045 0.76570746 50.9232715 2.8918457 48.17504883 C6.55985654 43.43811565 10.25069066 38.7189028 13.94091797 33.99926758 C15.25545393 32.31797415 16.56935321 30.63618271 17.88256836 28.95385742 C19.12176012 27.36639817 20.36243271 25.78009354 21.60473633 24.19506836 C22.16136963 23.4817334 22.71800293 22.76839844 23.29150391 22.03344727 C24.02977417 21.08985352 24.02977417 21.08985352 24.78295898 20.12719727 C26.03315714 18.52892076 26.03315714 18.52892076 26.95947266 16.53344727 C26.07686768 16.54915771 25.1942627 16.56486816 24.28491211 16.58105469 C20.9954638 16.63232725 17.70644305 16.66986644 14.41674805 16.69824219 C12.99578124 16.71328486 11.57486053 16.73372431 10.15405273 16.75976562 C8.1060038 16.79635074 6.05857115 16.81321824 4.01025391 16.82641602 C2.16427612 16.84998169 2.16427612 16.84998169 0.28100586 16.87402344 C-3.60760834 16.47530114 -6.25821733 15.31575728 -9.04052734 12.53344727 C-9.63638985 5.26392466 -9.63638985 5.26392466 -7.32894897 2.43519592 C-4.62473275 0.18790919 -3.4652436 0.02443556 0 0 Z " fill="#048DE2" transform="translate(70.04052734375,55.466552734375)"/>
<path d="M0 0 C0.495 0.433125 0.99 0.86625 1.5 1.3125 C1.809375 0.673125 2.11875 0.03375 2.4375 -0.625 C3.5 -2.6875 3.5 -2.6875 4.5 -3.6875 C8.45811483 -4.23979509 10.20540139 -3.86463654 13.66381836 -1.78515625 C16.3517382 0.58520719 16.95635728 2.28974886 17.22875977 5.83984375 C17.24801538 7.64316935 17.23360708 9.44706542 17.19140625 11.25 C17.19003159 12.20769287 17.18865692 13.16538574 17.1872406 14.15209961 C17.17819535 16.17280254 17.15460176 18.1934859 17.11743164 20.21386719 C17.0626828 23.30218831 17.05590263 26.3878068 17.05664062 29.4765625 C17.04189195 31.44273159 17.02440559 33.40888245 17.00390625 35.375 C16.99889854 36.75643188 16.99889854 36.75643188 16.99378967 38.16577148 C16.88689876 42.99326993 16.69207759 46.42351563 13.5 50.3125 C10.45016004 51.83741998 7.8576631 51.54812548 4.5 51.3125 C2.5625 49.8125 2.5625 49.8125 1.5 48.3125 C-1.98764929 49.66052128 -1.98764929 49.66052128 -5.30859375 51.36328125 C-10.82229343 53.75156828 -17.70926282 52.84091425 -23.3125 51.1875 C-30.34033307 47.05348055 -34.43513823 42.9053485 -37.5 35.3125 C-38.11875 33.9203125 -38.11875 33.9203125 -38.75 32.5 C-40.56840536 24.7717772 -40.37688912 16.37354256 -36.5 9.3125 C-26.85926065 -3.4117899 -14.41054989 -9.72712118 0 0 Z " fill="#068EE2" transform="translate(161.5,82.6875)"/>
<path d="M0 0 C2.13178023 0.00844891 4.2608228 -0.02014412 6.39233398 -0.05200195 C15.2599488 -0.09903291 21.1361742 0.60711942 28.21069336 6.22729492 C28.74952148 6.79448242 29.28834961 7.36166992 29.84350586 7.94604492 C30.67495117 8.79682617 30.67495117 8.79682617 31.52319336 9.66479492 C36.36571659 15.63287761 35.77070983 23.09417976 35.25415039 30.43774414 C34.37236159 36.63739774 30.21197929 40.69652437 25.46850586 44.38354492 C19.67545822 48.3449672 13.87100395 48.72037963 7.09350586 48.57104492 C5.91788086 48.55750977 5.91788086 48.55750977 4.71850586 48.54370117 C2.80170531 48.52032556 0.88506395 48.48446145 -1.03149414 48.44604492 C-1.01054688 49.03095703 -0.98959961 49.61586914 -0.96801758 50.21850586 C-0.88469299 52.87750958 -0.83278517 55.53623847 -0.78149414 58.19604492 C-0.7312207 59.57663086 -0.7312207 59.57663086 -0.67993164 60.98510742 C-0.58127737 67.79225188 -0.58127737 67.79225188 -2.82836914 71.05541992 C-6.07106799 73.10222983 -8.28114184 72.98180954 -12.03149414 72.44604492 C-14.9221157 70.28815589 -15.91834448 69.10716453 -16.53269958 65.51756287 C-16.53286575 64.38077591 -16.53303192 63.24398895 -16.53320312 62.07275391 C-16.54258408 60.78139023 -16.55196503 59.49002655 -16.56163025 58.15953064 C-16.55115304 56.75372656 -16.53978417 55.34792889 -16.52758789 53.94213867 C-16.52774289 52.4977257 -16.52923211 51.05331231 -16.53199768 49.60890198 C-16.53338096 46.58510908 -16.52083477 43.56179094 -16.49804688 40.53808594 C-16.46963631 36.66182548 -16.47240705 32.78635217 -16.48513699 28.91003323 C-16.4920902 25.92887137 -16.48430955 22.94789161 -16.47187996 19.96675301 C-16.46736372 18.53741211 -16.46703018 17.10805169 -16.47094536 15.67870903 C-16.47385435 13.6824204 -16.45520209 11.68613539 -16.43554688 9.68994141 C-16.43014389 8.55395004 -16.42474091 7.41795868 -16.41917419 6.24754333 C-16.03149414 3.44604492 -16.03149414 3.44604492 -14.69744873 1.58105469 C-10.74813416 -1.10960124 -4.67310663 -0.02827013 0 0 Z " fill="#F7FCF7" transform="translate(84.031494140625,164.553955078125)"/>
<path d="M0 0 C8.01974813 4.60967036 12.8065219 10.44629185 15.32421875 19.3359375 C15.53461632 22.07110589 15.64946289 24.66864312 15.63671875 27.3984375 C15.65283203 28.09259766 15.66894531 28.78675781 15.68554688 29.50195312 C15.68983841 34.02094454 14.98136602 36.70282381 12.32421875 40.3359375 C11.88722656 41.0165625 11.45023438 41.6971875 11 42.3984375 C6.80949449 48.35399834 1.7045985 53.02651529 -5.67578125 54.3359375 C-15.03300561 54.93516862 -22.37154218 54.78986061 -30.36328125 49.5859375 C-37.25987398 42.87573917 -40.74303111 35.44749636 -41.05078125 25.7734375 C-40.79984898 17.60673278 -37.88914847 10.63336192 -32.109375 4.73828125 C-22.77304048 -3.76258709 -11.50465895 -5.22433788 0 0 Z " fill="#088FE1" transform="translate(243.67578125,80.6640625)"/>
<path d="M0 0 C2.1875 1.1015625 2.1875 1.1015625 5.4375 3.1015625 C5.86160156 2.61429688 6.28570312 2.12703125 6.72265625 1.625 C8.4375 0.1015625 8.4375 0.1015625 11.875 -0.2734375 C16.97616578 0.26352732 16.97616578 0.26352732 19.4375 3.1015625 C20.05718383 6.3532209 19.99735869 9.57736012 19.96875 12.87890625 C19.9725769 13.84180069 19.97640381 14.80469513 19.98034668 15.79676819 C19.98306907 17.83351689 19.97568507 19.87030037 19.95898438 21.90698242 C19.93760285 25.02406924 19.95876313 28.13884498 19.984375 31.25585938 C19.98173132 33.23438009 19.97660552 35.21289936 19.96875 37.19140625 C19.97684692 38.12379623 19.98494385 39.05618622 19.99328613 40.01683044 C19.90028987 46.440443 19.90028987 46.440443 17.62304688 49.69360352 C14.42358168 51.75474246 12.16032573 51.56691572 8.4375 51.1015625 C6 49.6015625 6 49.6015625 4.4375 48.1015625 C3.53 48.7615625 2.6225 49.4215625 1.6875 50.1015625 C-3.48485629 53.02871748 -8.79056253 52.97772877 -14.5625 52.1015625 C-21.91461976 49.32764085 -26.82054333 43.35321496 -30.4375 36.6015625 C-32.89693163 29.00102981 -33.22179903 19.30889809 -29.5625 12.1015625 C-22.71510435 1.78169839 -12.40811225 -4.35040521 0 0 Z " fill="#F7FCF7" transform="translate(150.5625,184.8984375)"/>
<path d="M0 0 C3.15555372 0.85205827 4.79027665 2.25950928 7.09765625 4.56640625 C7.71911621 7.78514099 7.71911621 7.78514099 7.71289062 11.64233398 C7.71843964 12.34689728 7.72398865 13.05146057 7.72970581 13.77737427 C7.74149941 16.10227874 7.71723105 18.42523237 7.69140625 20.75 C7.68969478 22.36898205 7.6897612 23.98796687 7.69152832 25.60694885 C7.68987519 28.99905942 7.67118136 32.39050903 7.63964844 35.7824707 C7.60000205 40.12486848 7.59559945 44.46639937 7.60311127 48.80894375 C7.60618512 52.15220545 7.59404524 55.49527322 7.57698059 58.83848763 C7.56996148 60.43921758 7.56682474 62.03996952 7.56767273 63.64071465 C7.56586937 65.88123937 7.54444248 68.12073744 7.51757812 70.36108398 C7.50915894 71.63475327 7.50073975 72.90842255 7.49206543 74.22068787 C7.06957126 77.80464729 6.26082222 79.70857695 4.09765625 82.56640625 C1.00591873 84.11227501 -1.49663927 83.86000146 -4.90234375 83.56640625 C-7.26731814 81.6993212 -8.5626509 80.24579194 -9.90234375 77.56640625 C-10.01498039 75.31609077 -10.06173653 73.06239001 -10.0793457 70.80932617 C-10.0859169 70.1148085 -10.0924881 69.42029083 -10.09925842 68.70472717 C-10.11899833 66.40210872 -10.13065571 64.09955551 -10.140625 61.796875 C-10.14470053 61.01060541 -10.14877605 60.22433582 -10.15297508 59.41423988 C-10.17383916 55.25231819 -10.18813917 51.09042949 -10.19750977 46.9284668 C-10.20857274 42.63085806 -10.24296986 38.33376732 -10.28268147 34.03634167 C-10.30883527 30.73089133 -10.31720049 27.42556462 -10.32079124 24.12001991 C-10.32566074 22.53598852 -10.33728518 20.95196278 -10.35582924 19.36803246 C-10.38019494 17.14882839 -10.37926118 14.93096698 -10.37231445 12.71166992 C-10.37818069 11.44973312 -10.38404694 10.18779633 -10.39009094 8.88761902 C-9.43376814 2.37573837 -6.51984971 0.01296193 0 0 Z " fill="#068EE2" transform="translate(191.90234375,50.43359375)"/>
<path d="M0 0 C0.66 0.33 1.32 0.66 2 1 C1.01 2.485 1.01 2.485 0 4 C-0.18498136 7.05137086 -0.25205092 10.01026496 -0.22705078 13.0612793 C-0.22734283 13.98830658 -0.22763489 14.91533386 -0.22793579 15.87045288 C-0.22654104 18.93846963 -0.21097293 22.00624435 -0.1953125 25.07421875 C-0.19158289 27.19985318 -0.18873567 29.32548933 -0.18673706 31.4511261 C-0.17909654 37.04892717 -0.1594444 42.64662465 -0.1373291 48.24438477 C-0.11687973 53.95522663 -0.10773729 59.66608521 -0.09765625 65.37695312 C-0.07619895 76.58468096 -0.0420579 87.79233187 0 99 C2.44818208 100.22409104 4.0209856 100.1231358 6.75820923 100.12025452 C7.76224289 100.12162918 8.76627655 100.12300385 9.80073547 100.12442017 C10.90628281 100.12082489 12.01183014 100.11722961 13.15087891 100.11352539 C14.31184586 100.11367142 15.47281281 100.11381744 16.66896057 100.1139679 C20.5215133 100.11326903 24.37401818 100.10547781 28.2265625 100.09765625 C30.89171429 100.09579198 33.55686341 100.09431895 36.22201538 100.09336853 C42.52954085 100.09025745 48.83704904 100.08204706 55.14456689 100.07201904 C62.32464355 100.06085098 69.50472102 100.0553457 76.6848042 100.05032361 C91.45654498 100.03986427 106.22827219 100.02226914 121 100 C121.33 101.32 121.66 102.64 122 104 C106.55342581 104.04671385 91.10685691 104.08198583 75.66022873 104.10362434 C68.48814279 104.11393838 61.31610074 104.12800114 54.14404297 104.15087891 C47.89312023 104.1708089 41.64222927 104.18371551 35.39127564 104.18817699 C32.08121677 104.19078504 28.77127006 104.19796503 25.46123505 104.21146011 C21.76674453 104.22592685 18.07244386 104.22797994 14.37792969 104.22705078 C12.73039452 104.23783661 12.73039452 104.23783661 11.04957581 104.24884033 C10.04279282 104.246091 9.03600983 104.24334167 7.99871826 104.24050903 C7.12485851 104.24235262 6.25099876 104.24419621 5.35065842 104.24609566 C1.67688634 103.86148029 -0.3642038 102.75935215 -2.7247467 99.94007874 C-4.4839072 95.88435868 -4.42735982 92.33554455 -4.40405273 87.95874023 C-4.41091599 87.05735321 -4.41777924 86.15596619 -4.42485046 85.2272644 C-4.44312 82.25421302 -4.43928153 79.2816891 -4.43359375 76.30859375 C-4.4381547 74.24023771 -4.44346001 72.17188319 -4.44947815 70.10353088 C-4.45840898 65.77183875 -4.45598547 61.440331 -4.44604492 57.10864258 C-4.43454139 51.55437163 -4.4547883 46.00073511 -4.48396206 40.44654751 C-4.50229358 36.17690483 -4.50203792 31.90741514 -4.49632454 27.637743 C-4.49617103 25.58959118 -4.50224007 23.54142918 -4.51461601 21.49331474 C-4.52947063 18.63242415 -4.51889056 15.77271837 -4.50170898 12.91186523 C-4.51137695 12.06448288 -4.52104492 11.21710052 -4.53100586 10.34403992 C-4.45836898 4.57697674 -4.45836898 4.57697674 -1.96864319 1.44300842 C-1.31899094 0.96681564 -0.66933868 0.49062286 0 0 Z " fill="#1FBD20" transform="translate(63,149)"/>
<path d="M0 0 C3.27981751 2.06771104 4.84746007 3.77119011 7 7 C7.30078125 9.7421875 7.30078125 9.7421875 7.3125 12.875 C7.32925781 13.90367188 7.34601563 14.93234375 7.36328125 15.9921875 C6.86007297 20.1585356 5.13684284 22.73198299 2.375 25.8125 C-1.42252925 27.71126463 -4.86634716 27.96380507 -9 27 C-11.96412555 25.17081458 -13.56130992 23.16075851 -15 20 C-16.06812874 13.84045762 -15.65650772 8.22358245 -12 3 C-8.71322682 -0.6519702 -4.6526292 -0.85097791 0 0 Z " fill="#F5FAFC" transform="translate(154,93)"/>
<path d="M0 0 C3.66019912 1.98923865 4.75186463 3.38556956 6.3125 7.25 C7.25948925 12.41539591 7.95190942 16.85820381 5.75 21.8125 C3.3367231 24.82909613 1.841348 26.65453133 -2.08203125 27.390625 C-5.40828748 27.6333369 -7.93789911 27.81719292 -10.66015625 25.72265625 C-14.87265833 20.69958525 -15.33896513 17.1154823 -15.2890625 10.76953125 C-14.89197089 6.96496431 -13.53066832 4.81988756 -11 2 C-7.29592671 -0.46938219 -4.29621114 -0.66289195 0 0 Z " fill="#F6FBFC" transform="translate(235,93)"/>
<path d="M0 0 C3.34253016 2.71580576 4.67120173 4.20470325 5.44140625 8.41015625 C5.70754756 14.10214613 4.78255214 17.54993866 1 22 C-1 24 -1 24 -4.3125 24.3125 C-8.26913684 23.97719179 -9.9728607 23.52261608 -13 21 C-16.02850105 16.50946396 -16.95916708 12.2912294 -16 7 C-14.3875246 3.89022601 -12.95024501 1.7805584 -10.25 -0.4375 C-6.66075671 -1.33481082 -3.47236635 -1.14828748 0 0 Z " fill="#03BC03" transform="translate(150,199)"/>
<path d="M0 0 C14.19642857 -0.66964286 14.19642857 -0.66964286 17.875 1.875 C20.4675006 5.68750088 20.73895036 8.08848275 20.46875 12.62109375 C19.81630527 15.93225077 18.47138289 17.7466803 16 20 C11.53794887 22.23102556 4.78092876 21.04346299 0 21 C0 14.07 0 7.14 0 0 Z " fill="#04BC03" transform="translate(83,178)"/>
<path d="M0 0 C20.40113317 -0.09339201 40.80222303 -0.16395401 61.20352554 -0.20724869 C70.67595816 -0.22788442 80.14825804 -0.25602428 89.62060547 -0.30175781 C97.87556189 -0.34159469 106.13042219 -0.36742546 114.38547206 -0.37635398 C118.75754234 -0.38157409 123.12933764 -0.39386405 127.50131989 -0.42292023 C131.61516339 -0.45003969 135.72861824 -0.45845211 139.84254265 -0.45243073 C141.35346271 -0.45353253 142.86439557 -0.46150732 144.37523842 -0.4768219 C146.43685649 -0.49669696 148.49700335 -0.49195013 150.55865479 -0.48101807 C151.7127396 -0.48470524 152.86682442 -0.48839241 154.0558815 -0.49219131 C157.60085114 0.10044898 158.77240672 1.25292771 161 4 C158 4 158 4 156 3 C153.94747657 2.90584624 151.89180884 2.87809646 149.83712769 2.87974548 C148.52177032 2.87837082 147.20641296 2.87699615 145.85119629 2.87557983 C144.38500954 2.87911923 142.91882302 2.88275405 141.45263672 2.88647461 C139.91541546 2.88675655 138.37819408 2.88659861 136.8409729 2.8860321 C132.65939479 2.88574439 128.47784518 2.89163686 124.29627371 2.89860606 C119.92937965 2.90484399 115.56248499 2.90544375 111.19558716 2.90663147 C102.92247748 2.90974348 94.64938096 2.91795513 86.37627709 2.92798096 C76.95924119 2.93914611 67.54220466 2.94465356 58.12516379 2.94967639 C38.75010172 2.96013785 19.37505192 2.97773479 0 3 C0 2.01 0 1.02 0 0 Z " fill="#0DB60E" transform="translate(64,148)"/>
<path d="M0 0 C0.99 1.98 0.99 1.98 2 4 C-37.27 4 -76.54 4 -117 4 C-117.33 3.34 -117.66 2.68 -118 2 C-79.06 2 -40.12 2 0 2 C0 1.34 0 0.68 0 0 Z " fill="#35B636" transform="translate(183,249)"/>
<path d="M0 0 C0.66 0.33 1.32 0.66 2 1 C1.34 1.66 0.68 2.32 0 3 C-0.21715601 5.46710643 -0.3113626 7.82549782 -0.31884766 10.29541016 C-0.32889328 11.04672714 -0.3389389 11.79804413 -0.34928894 12.5721283 C-0.38023551 15.06109841 -0.39718765 17.54996043 -0.4140625 20.0390625 C-0.43276495 21.76257261 -0.45233766 23.48607348 -0.4727478 25.20956421 C-0.52417265 29.75018881 -0.56374278 34.29084314 -0.60089111 38.831604 C-0.64086604 43.46333226 -0.691988 48.09493578 -0.7421875 52.7265625 C-0.83906927 61.81762084 -0.92343467 70.90874945 -1 80 C-2.4747467 78.92941284 -2.4747467 78.92941284 -4 77 C-4.38768005 73.93948364 -4.38768005 73.93948364 -4.40405273 70.12939453 C-4.41434761 69.08739899 -4.41434761 69.08739899 -4.42485046 68.02435303 C-4.44315786 65.72696513 -4.43927497 63.43025773 -4.43359375 61.1328125 C-4.4381544 59.53481829 -4.44345962 57.93682605 -4.44947815 56.33883667 C-4.45841749 52.98801716 -4.45597774 49.63743586 -4.44604492 46.28662109 C-4.43456669 41.99681085 -4.45474419 37.70782515 -4.48396206 33.41812325 C-4.50233006 30.11692089 -4.50203024 26.81591578 -4.49632454 23.51467514 C-4.49617133 21.93345866 -4.50221555 20.35222881 -4.51461601 18.77106094 C-4.52953269 16.55665048 -4.5188455 14.34375823 -4.50170898 12.12939453 C-4.50154282 10.87047394 -4.50137665 9.61155334 -4.50120544 8.31448364 C-3.91751576 4.45452977 -2.66807943 2.78432205 0 0 Z " fill="#3099DF" transform="translate(186,51)"/>
<path d="M0 0 C2.3211351 3.48170265 2.25500519 4.85683196 2.27124023 8.96850586 C2.28142685 10.19665512 2.29161346 11.42480438 2.30210876 12.69017029 C2.30304976 13.34584929 2.30399075 14.00152828 2.30496025 14.67707634 C2.30862561 16.73271174 2.32535574 18.7878654 2.34571838 20.84339905 C2.40111666 26.686768 2.43181706 32.5302077 2.45629883 38.3737793 C2.4721842 41.95003356 2.50241225 45.52594539 2.54106331 49.10202217 C2.55270425 50.46352055 2.55864358 51.8250802 2.55874443 53.18662834 C2.55893672 55.09183354 2.57872722 56.99700619 2.59936523 58.90209961 C2.60443588 59.98559189 2.60950653 61.06908417 2.61473083 62.18540955 C3.04306956 65.31464537 3.89776442 66.69263644 6 69 C3 69 3 69 0.84187317 66.88920593 C-1.31111869 63.51197184 -1.49145645 61.74402737 -1.4699707 57.77270508 C-1.47289627 56.5382515 -1.47582184 55.30379791 -1.47883606 54.03193665 C-1.46172579 52.69446071 -1.44402692 51.35699218 -1.42578125 50.01953125 C-1.42085431 48.64141818 -1.41755741 47.2632984 -1.41581726 45.88517761 C-1.40819369 43.0043686 -1.38767995 40.12405939 -1.35668945 37.2434082 C-1.31700393 33.54775729 -1.29906092 29.85243024 -1.28938007 26.15659046 C-1.27941931 22.63169345 -1.2595339 19.10687561 -1.23828125 15.58203125 C-1.2348855 14.90841867 -1.23148975 14.2348061 -1.2279911 13.54078102 C-1.21643739 11.64018358 -1.19691525 9.73963957 -1.17700195 7.83911133 C-1.16715775 6.75721024 -1.15731354 5.67530914 -1.14717102 4.56062317 C-1 2 -1 2 0 0 Z " fill="#16BB15" transform="translate(66,168)"/>
<path d="M0 0 C14.19642857 -0.66964286 14.19642857 -0.66964286 17.875 2.5 C18.57625 3.325 19.2775 4.15 20 5 C19.01 5.33 18.02 5.66 17 6 C16.34 5.34 15.68 4.68 15 4 C11.01061087 3.41430021 7.02813544 3.25711503 3 3 C3 8.28 3 13.56 3 19 C6.3 19 9.6 19 13 19 C13 19.66 13 20.32 13 21 C8.71 21 4.42 21 0 21 C0 14.07 0 7.14 0 0 Z " fill="#16B816" transform="translate(83,178)"/>
<path d="M0 0 C-0.33 0.66 -0.66 1.32 -1 2 C-2.9609375 2.37890625 -2.9609375 2.37890625 -5.375 2.5625 C-8.19477465 2.78753088 -10.28663703 3.09554568 -13 4 C-12.67 4.99 -12.34 5.98 -12 7 C-11.9709133 9.25629652 -12.06480122 11.49190079 -12.16015625 13.74609375 C-11.97651786 16.33046812 -11.42760271 17.84431991 -10 20 C-5.66835023 21.34762437 -3.02599329 21.01299665 1 19 C0.125 22.875 0.125 22.875 -1 24 C-5.95580203 24.38121554 -9.1198362 24.23346983 -13 21 C-16.02850105 16.50946396 -16.95916708 12.2912294 -16 7 C-14.3875246 3.89022601 -12.95024501 1.7805584 -10.25 -0.4375 C-6.69498706 -1.32625323 -3.59859273 -0.59976545 0 0 Z " fill="#21B920" transform="translate(150,199)"/>
<path d="M0 0 C0.66 0 1.32 0 2 0 C2 1.98 2 3.96 2 6 C2.99 6.33 3.98 6.66 5 7 C5.8125 8.9375 5.8125 8.9375 6 11 C5.34 11.66 4.68 12.32 4 13 C3.67 12.34 3.34 11.68 3 11 C2.67 21.56 2.34 32.12 2 43 C1.01 43 0.02 43 -1 43 C-1.02467332 37.19759432 -1.04284724 31.39521902 -1.05493164 25.59277344 C-1.0599681 23.61783313 -1.06679751 21.64289657 -1.07543945 19.66796875 C-1.08753508 16.83332395 -1.0932351 13.99872834 -1.09765625 11.1640625 C-1.10281754 10.27756012 -1.10797882 9.39105774 -1.11329651 8.47769165 C-1.11387171 2.22774341 -1.11387171 2.22774341 0 0 Z " fill="#3EC63E" transform="translate(171,188)"/>
<path d="M0 0 C0.33 0 0.66 0 1 0 C1.25 5.625 1.25 5.625 -1 9 C6.59 8.67 14.18 8.34 22 8 C22.33 7.01 22.66 6.02 23 5 C23.33 5.99 23.66 6.98 24 8 C21.40218252 10.84522867 19.50102398 11.93050123 15.5480957 12.11352539 C14.60023193 12.10828857 13.65236816 12.10305176 12.67578125 12.09765625 C11.64775391 12.09443359 10.61972656 12.09121094 9.56054688 12.08789062 C8.48869141 12.07951172 7.41683594 12.07113281 6.3125 12.0625 C5.22904297 12.05798828 4.14558594 12.05347656 3.02929688 12.04882812 C0.35280915 12.03703743 -2.32356777 12.02058063 -5 12 C-3.39313833 7.97124393 -1.7179222 3.98245602 0 0 Z " fill="#27B928" transform="translate(201,241)"/>
<path d="M0 0 C1.05975037 0.02785583 2.11950073 0.05571167 3.21136475 0.08441162 C6.59491298 0.17775303 9.9767661 0.29945586 13.359375 0.421875 C15.65359094 0.49015138 17.94786267 0.55658019 20.2421875 0.62109375 C25.86540635 0.78325709 31.48749626 0.96871141 37.109375 1.171875 C37.109375 1.501875 37.109375 1.831875 37.109375 2.171875 C36.55671463 2.17996185 36.00405426 2.18804871 35.43464661 2.19638062 C29.67551914 2.28252813 23.91673184 2.3820361 18.15795898 2.48925781 C16.00957966 2.52750885 13.86113713 2.56236847 11.71264648 2.59375 C8.62200354 2.63948437 5.53179419 2.69746556 2.44140625 2.7578125 C1.48289261 2.76936371 0.52437897 2.78091492 -0.46318054 2.79281616 C-5.0145659 2.89323701 -8.76594774 3.00499386 -12.890625 5.171875 C-12.725625 6.265 -12.560625 7.358125 -12.390625 8.484375 C-11.890625 12.171875 -11.890625 12.171875 -11.890625 15.171875 C-13.390625 14.171875 -13.390625 14.171875 -14.890625 12.171875 C-15.647674 5.35843399 -15.647674 5.35843399 -13.5402832 2.05541992 C-9.30521199 -0.95513702 -5.05161398 -0.20867576 0 0 Z " fill="#148FE5" transform="translate(75.890625,55.828125)"/>
<path d="M0 0 C0.99 0 1.98 0 3 0 C3.9544927 7.10694565 4.47395271 11.58654884 1 18 C0.43819597 21.98932406 0.18876901 25.97726723 0 30 C-0.99 30 -1.98 30 -3 30 C-3.25060425 28.10688117 -3.47460633 26.21022961 -3.6875 24.3125 C-3.87892578 22.72888672 -3.87892578 22.72888672 -4.07421875 21.11328125 C-3.98691677 17.45119293 -2.89420536 16.06861269 -1 13 C-0.42845561 9.65501601 -0.42845561 9.65501601 -0.3125 6.1875 C-0.21388672 4.44533203 -0.21388672 4.44533203 -0.11328125 2.66796875 C-0.05720703 1.34732422 -0.05720703 1.34732422 0 0 Z " fill="#19BA19" transform="translate(119,184)"/>
<path d="M0 0 C4.18736668 -0.08760181 8.37449531 -0.14059435 12.5625 -0.1875 C13.74392578 -0.21263672 14.92535156 -0.23777344 16.14257812 -0.26367188 C24.31924134 -0.33238333 29.15847834 0.43898556 36 5 C35.67 5.66 35.34 6.32 35 7 C33.72938721 6.2733313 33.72938721 6.2733313 32.43310547 5.53198242 C28.70075917 3.86646734 26.13454948 3.578198 22.0703125 3.48828125 C20.78125 3.45283203 19.4921875 3.41738281 18.1640625 3.38085938 C16.81771358 3.35776507 15.47135928 3.33498245 14.125 3.3125 C12.75517629 3.27929117 11.38538308 3.24479825 10.015625 3.20898438 C6.6771659 3.12669841 3.33896315 3.05748072 0 3 C0 2.01 0 1.02 0 0 Z " fill="#30BC30" transform="translate(73,162)"/>
<path d="M0 0 C2.03120707 3.04681061 2.24659875 3.60118324 2.1953125 7.01171875 C2.18886719 7.76904297 2.18242188 8.52636719 2.17578125 9.30664062 C2.15902344 10.09232422 2.14226562 10.87800781 2.125 11.6875 C2.11597656 12.48478516 2.10695313 13.28207031 2.09765625 14.10351562 C2.07411585 16.069139 2.03824547 18.03460775 2 20 C2.66 20 3.32 20 4 20 C4.33 21.65 4.66 23.3 5 25 C4.34 25.33 3.68 25.66 3 26 C-0.74866333 17.34795116 -2.64611051 9.27214333 0 0 Z " fill="#2595DC" transform="translate(123,97)"/>
<path d="M0 0 C0.33 0 0.66 0 1 0 C1.14951272 9.26978839 -2.64623514 16.1109326 -7 24 C-7.66 24 -8.32 24 -9 24 C-7.0088253 17.71207988 -4.67276376 11.66884591 -2.0859375 5.6015625 C-0.94555901 2.95936609 -0.94555901 2.95936609 0 0 Z " fill="#22BB22" transform="translate(211,215)"/>
<path d="M0 0 C1.04027344 -0.01417969 2.08054688 -0.02835937 3.15234375 -0.04296875 C6.01296613 0.18357718 7.63920151 0.71016381 10.0625 2.1875 C8.0625 4.1875 8.0625 4.1875 4.1484375 4.3828125 C2.57800649 4.36950376 1.00763779 4.34563602 -0.5625 4.3125 C-1.36429688 4.30347656 -2.16609375 4.29445313 -2.9921875 4.28515625 C-4.97408523 4.26156223 -6.95582981 4.22569065 -8.9375 4.1875 C-8.9375 3.1975 -8.9375 2.2075 -8.9375 1.1875 C-5.74593552 0.12364517 -3.35252524 0.02072018 0 0 Z " fill="#2996DD" transform="translate(229.9375,77.8125)"/>
<path d="M0 0 C0.66 0.99 1.32 1.98 2 3 C1.1015625 5.91796875 1.1015625 5.91796875 -0.375 9.1875 C-0.85710937 10.27417969 -1.33921875 11.36085937 -1.8359375 12.48046875 C-2.22007812 13.31191406 -2.60421875 14.14335937 -3 15 C-5.22825644 12.77174356 -5.69239369 11.34238372 -6.625 8.375 C-6.88539063 7.55773437 -7.14578125 6.74046875 -7.4140625 5.8984375 C-7.60742188 5.27195313 -7.80078125 4.64546875 -8 4 C-7.01 4 -6.02 4 -5 4 C-4.01 5.485 -4.01 5.485 -3 7 C-2.01 4.69 -1.02 2.38 0 0 Z " fill="#13B613" transform="translate(201,199)"/>
<path d="M0 0 C0.66 0 1.32 0 2 0 C2 0.66 2 1.32 2 2 C1.34 2 0.68 2 0 2 C-1.11682794 4.15388245 -2.06067742 6.18669975 -2.8125 8.5 C-4.30904765 11.65062663 -6.24342066 12.89974907 -9 15 C-10.37368345 16.63356951 -11.71937515 18.2925002 -13 20 C-13.66 19.67 -14.32 19.34 -15 19 C-14.33613281 18.21496094 -13.67226562 17.42992188 -12.98828125 16.62109375 C-12.09572564 15.56042442 -11.20384163 14.49918971 -10.3125 13.4375 C-9.85423828 12.8919043 -9.39597656 12.34630859 -8.92382812 11.78417969 C-6.4803267 8.85232556 -4.1535687 5.90553118 -2 2.75 C-1.34 1.8425 -0.68 0.935 0 0 Z " fill="#178DD8" transform="translate(95,75)"/>
<path d="M0 0 C3.875 1.75 3.875 1.75 5 4 C5.12082534 5.66345582 5.1753794 7.33220591 5.1875 9 C5.20167969 9.886875 5.21585938 10.77375 5.23046875 11.6875 C5 14 5 14 3 16 C1.29910781 14.29910781 1.67252736 12.01353847 1.5 9.6875 C1.24991284 6.34258426 0.92061163 3.22981248 0 0 Z " fill="#1CBB1C" transform="translate(150,201)"/>
<path d="M0 0 C-0.33 0.99 -0.66 1.98 -1 3 C-3.5625 4.1875 -3.5625 4.1875 -6 5 C-5.835 6.093125 -5.67 7.18625 -5.5 8.3125 C-5 12 -5 12 -5 15 C-6.5 14 -6.5 14 -8 12 C-8.76712329 5.09589041 -8.76712329 5.09589041 -6.25 1.5 C-4 0 -4 0 0 0 Z " fill="#1A8FD8" transform="translate(69,56)"/>
<path d="M0 0 C0.33 0.99 0.66 1.98 1 3 C-1.45933991 2.88630789 -3.9167909 2.75957349 -6.375 2.625 C-7.07367188 2.5940625 -7.77234375 2.563125 -8.4921875 2.53125 C-13.7734375 2.2265625 -13.7734375 2.2265625 -16 0 C-11.32926942 -1.55691019 -4.58251709 -2.01630752 0 0 Z " fill="#2192DB" transform="translate(155,79)"/>
<path d="M0 0 C0.33 0 0.66 0 1 0 C0.85904936 1.6254308 0.71207913 3.25034051 0.5625 4.875 C0.48128906 5.77992188 0.40007812 6.68484375 0.31640625 7.6171875 C0 10 0 10 -1 12 C-1.66 12 -2.32 12 -3 12 C-2.67 12.99 -2.34 13.98 -2 15 C-2.33 15.66 -2.66 16.32 -3 17 C-3.99 17 -4.98 17 -6 17 C-4.13236819 11.27789404 -2.14710968 5.62338249 0 0 Z " fill="#28BD27" transform="translate(218,198)"/>
<path d="M0 0 C0.99 0 1.98 0 3 0 C3.33 3.96 3.66 7.92 4 12 C2.68 12.33 1.36 12.66 0 13 C0 8.71 0 4.42 0 0 Z " fill="#2DBF2D" transform="translate(119,184)"/>
<path d="M0 0 C2.80561393 1.40280696 3.00680507 3.0509005 4.125 5.9375 C4.47820312 6.83339844 4.83140625 7.72929687 5.1953125 8.65234375 C6 11 6 11 6 13 C5.01 13 4.02 13 3 13 C0.78145293 8.37802694 -0.38281159 5.23175837 0 0 Z " fill="#1ABA1A" transform="translate(179,206)"/>
<path d="M0 0 C0.33 0.99 0.66 1.98 1 3 C-0.60226955 3.22245393 -2.20696767 3.42746669 -3.8125 3.625 C-4.70582031 3.74101562 -5.59914062 3.85703125 -6.51953125 3.9765625 C-9 4 -9 4 -12 2 C-8.04 1.34 -4.08 0.68 0 0 Z " fill="#0EB90E" transform="translate(148,236)"/>
<path d="M0 0 C0.66 0 1.32 0 2 0 C2 3.63 2 7.26 2 11 C-1 8 -1 8 -1.25 4.9375 C-1 2 -1 2 0 0 Z " fill="#2A97DC" transform="translate(60,120)"/>
<path d="M0 0 C1.12588014 0.95729916 2.2506715 1.91587895 3.375 2.875 C4.00148438 3.40867188 4.62796875 3.94234375 5.2734375 4.4921875 C6.55836651 5.61432007 7.79371975 6.79371975 9 8 C8.01 8.495 8.01 8.495 7 9 C5.82460004 8.07347299 4.65989423 7.13336613 3.5 6.1875 C2.52546875 5.40439453 2.52546875 5.40439453 1.53125 4.60546875 C0 3 0 3 0 0 Z " fill="#19B719" transform="translate(123,227)"/>
<path d="M0 0 C0.33 0 0.66 0 1 0 C0.85904936 1.6254308 0.71207913 3.25034051 0.5625 4.875 C0.48128906 5.77992188 0.40007812 6.68484375 0.31640625 7.6171875 C0 10 0 10 -1 12 C-1.99 12 -2.98 12 -4 12 C-2.66666667 8 -1.33333333 4 0 0 Z " fill="#2DBE2D" transform="translate(211,215)"/>
<path d="M0 0 C0.99 0.99 1.98 1.98 3 3 C2 6 2 6 -0.0625 7.1875 C-0.701875 7.455625 -1.34125 7.72375 -2 8 C-2 6.02 -2 4.04 -2 2 C-1.34 2 -0.68 2 0 2 C0 1.34 0 0.68 0 0 Z " fill="#D8EFF6" transform="translate(125,121)"/>
<path d="M0 0 C0.33 0 0.66 0 1 0 C1.33 3.63 1.66 7.26 2 11 C1.34 11 0.68 11 0 11 C-0.66 12.32 -1.32 13.64 -2 15 C-2.66 14.67 -3.32 14.34 -4 14 C-3.525625 13.360625 -3.05125 12.72125 -2.5625 12.0625 C-0.52968613 8.07818481 -0.2789471 4.41505926 0 0 Z " fill="#359BD9" transform="translate(161,103)"/>
<path d="M0 0 C0.99 0.495 0.99 0.495 2 1 C2.73075648 3.3140622 3.40138258 5.64828869 4 8 C3.01 8 2.02 8 1 8 C-0.35439668 5.29120665 -0.06501451 2.99066732 0 0 Z " fill="#1CBA1C" transform="translate(185,221)"/>
<path d="M0 0 C0 3.23861295 -0.6250851 5.09740189 -2 8 C-2.99 8.495 -2.99 8.495 -4 9 C-4.33 8.01 -4.66 7.02 -5 6 C-3.59554165 3.7363436 -1.8032087 1.9791315 0 0 Z " fill="#1C91D9" transform="translate(68,110)"/>
<path d="M0 0 C0.66 0.66 1.32 1.32 2 2 C-2.43076923 4.09230769 -2.43076923 4.09230769 -5.3125 3.625 C-5.869375 3.41875 -6.42625 3.2125 -7 3 C-7 2.34 -7 1.68 -7 1 C-3.625 0.375 -3.625 0.375 0 0 Z " fill="#12B712" transform="translate(166,235)"/>
<path d="M0 0 C1.52299523 2.93720508 2.80100302 5.9168649 4 9 C3.01 9 2.02 9 1 9 C-0.4783226 6.04335481 -0.06032783 3.25770263 0 0 Z " fill="#1DB81D" transform="translate(119,217)"/>
</svg>
