<?xml version="1.0" encoding="UTF-8"?>
<svg version="1.1" xmlns="http://www.w3.org/2000/svg" width="400" height="400">
<path d="M0 0 C25.41 0 50.82 0 77 0 C77 7.59 77 15.18 77 23 C85.25 23 93.5 23 102 23 C102 30.92 102 38.84 102 47 C104.97 47 107.94 47 111 47 C111 133.13 111 219.26 111 308 C-0.21 308 -111.42 308 -226 308 C-223.25344949 302.50689899 -219.19731284 298.86848991 -214.875 294.5625 C-214.04484375 293.71623047 -213.2146875 292.86996094 -212.359375 291.99804688 C-211.53695312 291.17498047 -210.71453125 290.35191406 -209.8671875 289.50390625 C-209.12581543 288.75955322 -208.38444336 288.0152002 -207.62060547 287.24829102 C-205 285 -205 285 -203.02545261 284.3095808 C-200.28613633 283.22752819 -198.88875168 282.28780278 -197 280 C-195.76024409 274.1212677 -196.00027151 268.26560477 -196.10766602 262.28222656 C-196.1115602 260.44077453 -196.11191477 258.59931211 -196.10899353 256.75785828 C-196.11096953 251.75965919 -196.16213711 246.76301987 -196.22178006 241.7652216 C-196.27549664 236.54074122 -196.28314316 231.31620441 -196.2953949 226.0914917 C-196.32542825 216.1972788 -196.39539804 206.30377892 -196.48038954 196.40990138 C-196.59415335 182.95281138 -196.65261209 169.49550755 -196.71164691 156.03808546 C-196.72580099 152.81394339 -196.74014286 149.58980224 -196.75462341 146.36566162 C-196.7592772 145.3209601 -196.763931 144.27625858 -196.76872581 143.19989944 C-196.79776051 136.97056579 -196.83680934 130.74139092 -196.88495362 124.51217604 C-196.9146067 120.64770303 -196.9408277 116.78321024 -196.96676064 112.91871071 C-196.97987269 111.11949842 -196.99477231 109.32029819 -197.01153946 107.52111626 C-197.0342534 105.07603709 -197.05102966 102.63098652 -197.06642151 100.18585205 C-197.07479131 99.46456816 -197.08316111 98.74328427 -197.09178454 98.00014329 C-197.09932742 96.33316514 -197.05538021 94.66607505 -197 93 C-195.14719414 91.14719414 -192.09343637 91.85493105 -189.6157074 91.84178162 C-188.94106683 91.83684364 -188.26642627 91.83190566 -187.57134205 91.82681805 C-185.29422739 91.81137071 -183.01714107 91.80306299 -180.73999023 91.79467773 C-179.11424507 91.78510488 -177.48850243 91.77509516 -175.86276245 91.76467896 C-171.43529298 91.73755952 -167.00781278 91.7165882 -162.58030581 91.69667697 C-157.95847014 91.67486067 -153.33666781 91.64745075 -148.71485901 91.62062073 C-139.95654182 91.57063474 -131.19820617 91.5257179 -122.43985277 91.48259836 C-112.47143619 91.43327635 -102.50305306 91.37833961 -92.5346688 91.32291877 C-72.02314217 91.20900809 -51.51158488 91.10293026 -31 91 C-31 76.48 -31 61.96 -31 47 C-28.69 47 -26.38 47 -24 47 C-24 39.08 -24 31.16 -24 23 C-12.12 22.505 -12.12 22.505 0 22 C0 14.74 0 7.48 0 0 Z " fill="#FED8BD" transform="translate(258,46)"/>
<path d="M0 0 C0.89874816 0.00092179 1.79749632 0.00184359 2.72347927 0.00279331 C4.26211053 0.00072707 4.26211053 0.00072707 5.83182526 -0.00138092 C7.54083842 0.00401624 7.54083842 0.00401624 9.2843771 0.00952244 C10.49378428 0.0094019 11.70319147 0.00928137 12.94924736 0.00915718 C16.88511301 0.00990679 20.82093197 0.01753721 24.75678921 0.02539158 C27.17829776 0.02686085 29.59980664 0.02788165 32.02131557 0.02844334 C41.02559286 0.03369795 50.02986336 0.047659 59.03413296 0.06054783 C89.19819546 0.09148533 89.19819546 0.09148533 119.97163296 0.12304783 C119.97163296 51.27304783 119.97163296 102.42304783 119.97163296 155.12304783 C113.04163296 155.45304783 106.11163296 155.78304783 98.97163296 156.12304783 C85.90120977 159.1653015 78.60594465 164.30271359 69.37788296 173.78711033 C62.14945034 180.80432251 53.19706626 184.46726421 43.12702847 184.46252537 C42.35258389 184.44717747 41.57813931 184.43182957 40.78022671 184.41601658 C39.67330471 184.41148472 39.67330471 184.41148472 38.54402065 184.40686131 C35.83224564 184.39136704 33.12067267 184.34948594 30.40913296 184.31054783 C24.32475796 184.24867283 18.24038296 184.18679783 11.97163296 184.12304783 C11.97163296 171.91304783 11.97163296 159.70304783 11.97163296 147.12304783 C11.31163296 147.12304783 10.65163296 147.12304783 9.97163296 147.12304783 C9.28003895 148.97029835 9.28003895 148.97029835 8.97163296 151.12304783 C9.63163296 152.11304783 10.29163296 153.10304783 10.97163296 154.12304783 C11.19868374 157.30932713 11.19868374 157.30932713 11.16694546 161.19726658 C11.16411556 161.88109913 11.16128567 162.56493168 11.15837002 163.26948643 C11.14718979 165.45001948 11.12208987 167.63013928 11.09663296 169.81054783 C11.08660034 171.2903596 11.07747498 172.77017782 11.06928921 174.25000095 C11.04725777 177.87448383 11.01274297 181.49872549 10.97163296 185.12304783 C8.82750993 185.65087784 6.68127615 186.17014101 4.53413296 186.68554783 C2.74169155 187.12060642 2.74169155 187.12060642 0.91303921 187.56445408 C-0.05762486 187.74879002 -1.02828892 187.93312595 -2.02836704 188.12304783 C-3.70916711 186.44224776 -3.15309832 184.37430041 -3.16211045 182.13042927 C-3.15987973 181.41030785 -3.157649 180.69018642 -3.15535069 179.94824314 C-3.15691068 179.18855354 -3.15847067 178.42886395 -3.16007793 177.64615345 C-3.16409084 175.08114062 -3.16089717 172.51618618 -3.15776157 169.95117283 C-3.15911549 168.12015848 -3.16089536 166.2891444 -3.16307163 164.45813084 C-3.16764717 159.47067191 -3.16585592 154.48323357 -3.16269255 149.49577427 C-3.16016956 144.28852372 -3.16250631 139.081275 -3.16407871 133.87402439 C-3.16590059 125.12760188 -3.16349363 116.38118781 -3.15873814 107.63476658 C-3.15329548 97.50722293 -3.15505813 87.37969942 -3.16056454 77.25215626 C-3.16509516 68.5736343 -3.16574647 59.89511841 -3.16312587 51.21659565 C-3.16156281 46.02594517 -3.16137012 40.83530416 -3.16466236 35.64465427 C-3.16754033 30.76593675 -3.16556676 25.88724531 -3.1597681 21.00853062 C-3.15844011 19.21256141 -3.15883529 17.41659003 -3.16103077 15.62062168 C-3.16374073 13.17966848 -3.16036307 10.73880022 -3.15535069 8.29785252 C-3.15758141 7.57773109 -3.15981213 6.85760967 -3.16211045 6.11566639 C-3.13831254 0.190381 -3.13831254 0.190381 0 0 Z " fill="#FED9BE" transform="translate(64.0283670425415,137.87695217132568)"/>
<path d="M0 0 C0.97283936 0.00302124 1.94567871 0.00604248 2.94799805 0.00915527 C6.53575453 0.02469335 10.12335819 0.06657558 13.7109375 0.10546875 C21.7546875 0.16734375 29.7984375 0.22921875 38.0859375 0.29296875 C38.0859375 28.67296875 38.0859375 57.05296875 38.0859375 86.29296875 C-73.1240625 86.29296875 -184.3340625 86.29296875 -298.9140625 86.29296875 C-296.16751199 80.79986774 -292.11137534 77.16145866 -287.7890625 72.85546875 C-286.95890625 72.00919922 -286.12875 71.16292969 -285.2734375 70.29101562 C-279.15413723 64.16691966 -273.1652188 58.8251425 -264.6640625 56.48046875 C-263.44976562 56.13048828 -263.44976562 56.13048828 -262.2109375 55.7734375 C-259.9140625 55.29296875 -259.9140625 55.29296875 -255.9140625 55.29296875 C-255.98302863 50.95076996 -256.07103629 46.60949601 -256.17651367 42.26806641 C-256.20971605 40.79193737 -256.23776267 39.31568281 -256.26049805 37.83935547 C-256.29413201 35.71397543 -256.34644769 33.58974071 -256.40234375 31.46484375 C-256.42852783 30.18706055 -256.45471191 28.90927734 -256.48168945 27.59277344 C-256.92988296 24.17222945 -257.57754506 22.76276833 -259.9140625 20.29296875 C-259.2540625 20.29296875 -258.5940625 20.29296875 -257.9140625 20.29296875 C-257.4190625 18.80796875 -257.4190625 18.80796875 -256.9140625 17.29296875 C-256.2540625 17.29296875 -255.5940625 17.29296875 -254.9140625 17.29296875 C-254.71383565 20.27172814 -254.5289261 23.25032228 -254.3515625 26.23046875 C-254.26745117 27.44766602 -254.26745117 27.44766602 -254.18164062 28.68945312 C-253.69268322 37.26250634 -254.31277405 45.74138046 -254.9140625 54.29296875 C-249.70309366 54.24843384 -244.49329292 54.17820913 -239.28295898 54.08544922 C-237.51515056 54.05744242 -235.74722164 54.0361283 -233.97924805 54.02197266 C-217.94464507 53.88597093 -206.34885248 51.87569098 -194.671875 40.015625 C-193.92679687 39.24089844 -193.18171875 38.46617187 -192.4140625 37.66796875 C-184.25966754 29.37249429 -173.99879294 25.30672627 -162.35758972 24.94134521 C-160.37924282 24.9363231 -158.40080917 24.94719464 -156.42260742 24.97167969 C-154.78606956 24.97325829 -154.78606956 24.97325829 -153.11647034 24.97486877 C-150.76649893 24.97845385 -148.41652999 24.98853545 -146.06661034 25.00453949 C-142.33576074 25.02770873 -138.60549973 25.02863624 -134.87458801 25.02325439 C-124.27355579 25.01063817 -113.6728893 25.02717042 -103.07202148 25.08349609 C-96.56870616 25.11629539 -90.06611747 25.11482876 -83.56276894 25.09247589 C-81.09862056 25.09073736 -78.63442561 25.1018588 -76.17040062 25.12657928 C-57.48462803 25.30960925 -46.03193437 23.67417178 -32.140625 10.37109375 C-22.89094072 1.73805509 -12.3162883 -0.1838036 0 0 Z " fill="#000000" transform="translate(330.9140625,267.70703125)"/>
<path d="M0 0 C8.91 0 17.82 0 27 0 C27 7.59 27 15.18 27 23 C35.25 23 43.5 23 52 23 C52 30.92 52 38.84 52 47 C54.97 47 57.94 47 61 47 C61 104.75 61 162.5 61 222 C44.5 222.33 28 222.66 11 223 C2.63673563 225.23838351 2.63673563 225.23838351 -4.0625 229.1875 C-4.8875 229.7959375 -5.7125 230.404375 -6.5625 231.03125 C-9.69926984 233.56479487 -12.63597327 236.2721587 -15.50390625 239.10546875 C-19.02887213 241.78091234 -22.92113688 243.33274753 -27 245 C-27.17395612 239.59244983 -27.30049016 234.1865518 -27.38452148 228.77685547 C-27.41957274 226.93965258 -27.46723026 225.10264284 -27.52807617 223.26611328 C-28.08487881 206.01926847 -28.08487881 206.01926847 -23.8125 201.1796875 C-22.56205635 200.09581149 -21.29192804 199.03407857 -20 198 C-19.03067021 196.86337878 -18.09256158 195.69920963 -17.19140625 194.5078125 C-16.75803955 193.9523877 -16.32467285 193.39696289 -15.87817383 192.82470703 C-15.44400146 192.26380371 -15.0098291 191.70290039 -14.5625 191.125 C-13.62015699 189.91638174 -12.67744546 188.70805073 -11.734375 187.5 C-11.27611328 186.9121875 -10.81785156 186.324375 -10.34570312 185.71875 C-7.26551728 181.78469551 -4.13103804 177.89361177 -1 174 C2.74502433 175.24834144 3.76484276 176.86174026 6.1875 179.9375 C6.90292969 180.83339844 7.61835938 181.72929687 8.35546875 182.65234375 C10 185 10 185 10 187 C10.66 187 11.32 187 12 187 C12 140.8 12 94.6 12 47 C10.68 47 9.36 47 8 47 C8 39.41 8 31.82 8 24 C5.36 24 2.72 24 0 24 C0 16.08 0 8.16 0 0 Z " fill="#FE8228" transform="translate(308,46)"/>
<path d="M0 0 C14.52 0 29.04 0 44 0 C44.52141452 19.82266488 44.52141452 19.82266488 44.63476562 28.3671875 C44.71206084 34.16598939 44.80279482 39.96208755 44.98071289 45.75878906 C45.12348552 50.44050297 45.19999716 55.11931457 45.23340416 59.80303955 C45.25716153 61.57657531 45.30355284 63.34997767 45.37449074 65.12225342 C45.82348334 76.82045625 44.07251669 83.79197591 36.10922718 92.60668945 C34.98193584 93.8029234 33.84671908 94.99174109 32.70348167 96.17274475 C29.83233526 99.2525063 27.30654057 102.59630621 24.75 105.9375 C20.15047654 111.84952346 20.15047654 111.84952346 19 113 C18.83958807 116.10085221 18.74036598 119.18187579 18.68359375 122.28515625 C18.66281265 123.21597519 18.64203156 124.14679413 18.62062073 125.1058197 C18.55502069 128.09130182 18.49619198 131.07687484 18.4375 134.0625 C18.3943247 136.08138976 18.35071075 138.1002702 18.30664062 140.11914062 C18.19932871 145.07933297 18.09809112 150.03961709 18 155 C12.06 155 6.12 155 0 155 C0 103.85 0 52.7 0 0 Z " fill="#FE8126" transform="translate(184,138)"/>
<path d="M0 0 C0.89874816 0.00092179 1.79749632 0.00184359 2.72347927 0.00279331 C4.26211053 0.00072707 4.26211053 0.00072707 5.83182526 -0.00138092 C7.54083842 0.00401624 7.54083842 0.00401624 9.2843771 0.00952244 C10.49378428 0.0094019 11.70319147 0.00928137 12.94924736 0.00915718 C16.88511301 0.00990679 20.82093197 0.01753721 24.75678921 0.02539158 C27.17829776 0.02686085 29.59980664 0.02788165 32.02131557 0.02844334 C41.02559286 0.03369795 50.02986336 0.047659 59.03413296 0.06054783 C89.19819546 0.09148533 89.19819546 0.09148533 119.97163296 0.12304783 C119.97163296 51.27304783 119.97163296 102.42304783 119.97163296 155.12304783 C114.36163296 155.12304783 108.75163296 155.12304783 102.97163296 155.12304783 C102.97163296 154.79304783 102.97163296 154.46304783 102.97163296 154.12304783 C108.25163296 154.12304783 113.53163296 154.12304783 118.97163296 154.12304783 C118.97163296 103.96304783 118.97163296 53.80304783 118.97163296 2.12304783 C79.37163296 2.12304783 39.77163296 2.12304783 -1.02836704 2.12304783 C-1.11574571 31.50487168 -1.11574571 31.50487168 -1.17485142 60.8867197 C-1.19266443 72.86551858 -1.21362497 84.84425424 -1.2546854 96.822999 C-1.28457294 105.54637808 -1.30393853 114.26970595 -1.31063253 122.9931348 C-1.31454588 127.61277912 -1.32375285 132.23227695 -1.34555721 136.85187435 C-1.36591215 141.1995941 -1.37220285 145.54710693 -1.36769009 149.8948698 C-1.36851573 151.49082533 -1.37448735 153.08678773 -1.38598347 154.68270206 C-1.40091242 156.86198009 -1.3973197 159.04047715 -1.38913059 161.21977329 C-1.39189597 162.43930541 -1.39466135 163.65883753 -1.39751053 164.91532516 C-0.85767552 169.6062951 1.30397282 173.16070695 4.97163296 176.12304783 C6.62163296 176.78304783 8.27163296 177.44304783 9.97163296 178.12304783 C9.97163296 170.20304783 9.97163296 162.28304783 9.97163296 154.12304783 C10.30163296 154.12304783 10.63163296 154.12304783 10.97163296 154.12304783 C10.97163296 164.35304783 10.97163296 174.58304783 10.97163296 185.12304783 C6.68163296 186.11304783 2.39163296 187.10304783 -2.02836704 188.12304783 C-3.70916711 186.44224776 -3.15309832 184.37430041 -3.16211045 182.13042927 C-3.15987973 181.41030785 -3.157649 180.69018642 -3.15535069 179.94824314 C-3.15691068 179.18855354 -3.15847067 178.42886395 -3.16007793 177.64615345 C-3.16409084 175.08114062 -3.16089717 172.51618618 -3.15776157 169.95117283 C-3.15911549 168.12015848 -3.16089536 166.2891444 -3.16307163 164.45813084 C-3.16764717 159.47067191 -3.16585592 154.48323357 -3.16269255 149.49577427 C-3.16016956 144.28852372 -3.16250631 139.081275 -3.16407871 133.87402439 C-3.16590059 125.12760188 -3.16349363 116.38118781 -3.15873814 107.63476658 C-3.15329548 97.50722293 -3.15505813 87.37969942 -3.16056454 77.25215626 C-3.16509516 68.5736343 -3.16574647 59.89511841 -3.16312587 51.21659565 C-3.16156281 46.02594517 -3.16137012 40.83530416 -3.16466236 35.64465427 C-3.16754033 30.76593675 -3.16556676 25.88724531 -3.1597681 21.00853062 C-3.15844011 19.21256141 -3.15883529 17.41659003 -3.16103077 15.62062168 C-3.16374073 13.17966848 -3.16036307 10.73880022 -3.15535069 8.29785252 C-3.15758141 7.57773109 -3.15981213 6.85760967 -3.16211045 6.11566639 C-3.13831254 0.190381 -3.13831254 0.190381 0 0 Z " fill="#FDCBAB" transform="translate(64.0283670425415,137.87695217132568)"/>
<path d="M0 0 C3.49406769 1.66762322 4.82670681 2.74006022 7 6 C7.36410947 8.2839594 7.50246587 10.53698811 7.65625 12.84375 C7.89274238 15.29063757 7.89274238 15.29063757 10 18 C10.72753399 22.91508428 10.50435931 26.93308607 8.375 31.4375 C5.76606435 34.25240426 3.55965154 35.60709288 0 37 C-0.66 37 -1.32 37 -2 37 C-2 26.77 -2 16.54 -2 6 C-2.66 6 -3.32 6 -4 6 C-5.01111093 9.04913228 -5.01111093 9.04913228 -4 12 C-3.915085 13.8863912 -3.892807 15.77578515 -3.90234375 17.6640625 C-3.90556641 18.78554688 -3.90878906 19.90703125 -3.91210938 21.0625 C-3.92048828 22.238125 -3.92886719 23.41375 -3.9375 24.625 C-3.94201172 25.80835938 -3.94652344 26.99171875 -3.95117188 28.2109375 C-3.96298533 31.14067507 -3.97945742 34.07031272 -4 37 C-8.95818718 35.51185807 -11.60045234 33.98232726 -15 30 C-16.23003947 26.30988158 -16.47149365 22.84267321 -16 19 C-15 17.66666667 -14 16.33333333 -13 15 C-13.06414785 13.01141653 -13.12958579 11.02277516 -13.21875 9.03515625 C-12.8197693 5.32321082 -10.60661508 3.54455281 -8 1 C-5.17998673 -0.41000664 -3.12992745 -0.24548451 0 0 Z " fill="#FBFAF9" transform="translate(78,279)"/>
<path d="M0 0 C2.96400766 1.53039579 5.07057702 3.27201029 7 6 C7.62245249 8.64132799 7.81121459 11.02014021 7.83203125 13.73046875 C7.83396127 16.28369801 7.83396127 16.28369801 10 19 C10.46021936 24.6146762 10.15793998 28.15030646 7 33 C4.1557135 35.74947695 1.82612963 36.31180177 -2 37 C-2 26.66666667 -2 16.33333333 -2 6 C-2.66 6 -3.32 6 -4 6 C-4 7.32 -4 8.64 -4 10 C-4.33 10.33 -4.66 10.66 -5 11 C-4.67 11.33 -4.34 11.66 -4 12 C-3.91262355 13.85369611 -3.89301847 15.71067541 -3.90234375 17.56640625 C-3.90556641 18.69111328 -3.90878906 19.81582031 -3.91210938 20.97460938 C-3.92048828 22.15861328 -3.92886719 23.34261719 -3.9375 24.5625 C-3.94201172 25.75037109 -3.94652344 26.93824219 -3.95117188 28.16210938 C-3.96300325 31.10812226 -3.97948713 34.05403681 -4 37 C-8.96457204 35.51680835 -11.5570924 33.93475154 -15 30 C-16.71394406 26.57211188 -16.40615084 22.75689525 -16 19 C-15.01971384 17.65210653 -14.02028865 16.31787285 -13 15 C-13.06414785 13.01141653 -13.12958579 11.02277516 -13.21875 9.03515625 C-12.8197693 5.32321082 -10.60661508 3.54455281 -8 1 C-5.04206277 -0.47896861 -3.29779776 -0.4355582 0 0 Z " fill="#FBFAF9" transform="translate(112,279)"/>
<path d="M0 0 C13.86 0 27.72 0 42 0 C42 4.62 42 9.24 42 14 C28.14 14 14.28 14 0 14 C0 9.38 0 4.76 0 0 Z " fill="#FEFDFC" transform="translate(226,278)"/>
<path d="M0 0 C0.66 0 1.32 0 2 0 C2 85.8 2 171.6 2 260 C1.34 260 0.68 260 0 260 C0 174.2 0 88.4 0 0 Z " fill="#FE7F01" transform="translate(370,93)"/>
<path d="M0 0 C2.375 1 2.375 1 4 3 C4.42409945 5.03567738 4.62431378 6.9860645 4.7265625 9.0625 C4.90307886 11.32368327 4.90307886 11.32368327 7 14 C7.45506215 18.09555939 7.41629482 20.29075697 5.3125 23.875 C2.78639739 26.19628348 1.37234971 26.71897086 -2 27 C-2.36923077 19.61538462 -2.36923077 19.61538462 -0.5 16.5 C-0.005 16.005 0.49 15.51 1 15 C0.01 15.66 -0.98 16.32 -2 17 C-2 12.71 -2 8.42 -2 4 C-2.66 4 -3.32 4 -4 4 C-4.59070014 5.94603274 -4.59070014 5.94603274 -5 8 C-4.67 8.33 -4.34 8.66 -4 9 C-3.91368126 10.34267413 -3.89293527 11.68974322 -3.90234375 13.03515625 C-3.90556641 13.84404297 -3.90878906 14.65292969 -3.91210938 15.48632812 C-3.92048828 16.33646484 -3.92886719 17.18660156 -3.9375 18.0625 C-3.94201172 18.91650391 -3.94652344 19.77050781 -3.95117188 20.65039062 C-3.96299627 22.76695663 -3.98093231 24.88348685 -4 27 C-7.31971774 26.47699306 -8.7428851 26.2293187 -11.3125 23.9375 C-13.60413883 19.94835093 -13.37943807 17.55325683 -13 13 C-12.67 12.67 -12.34 12.34 -12 12 C-11.896875 10.741875 -11.79375 9.48375 -11.6875 8.1875 C-11.3361819 5.26684061 -11.02156345 4.03317454 -9.375 1.5 C-6.05555644 -0.59649067 -3.85467236 -0.48183405 0 0 Z " fill="#FDF6F2" transform="translate(345,235)"/>
<path d="M0 0 C0.33 0 0.66 0 1 0 C1.00238835 0.85606433 1.00477671 1.71212866 1.00723743 2.59413433 C1.06635514 23.41724625 1.1418845 44.24024211 1.23571491 65.06322765 C1.28069408 75.13304282 1.32010386 85.20282246 1.34643555 95.27270508 C1.36939844 104.04888847 1.40277732 112.82495962 1.44870156 121.60105401 C1.47265684 126.24859654 1.4913705 130.89602773 1.49761391 135.5436306 C1.50365434 139.9176907 1.52361639 144.29146584 1.55427551 148.66542053 C1.56307246 150.27101985 1.56677489 151.87665638 1.56500816 153.48227882 C1.56335733 155.67476976 1.58003712 157.86639006 1.60127258 160.0587616 C1.60588155 161.28566806 1.61049051 162.51257452 1.61523914 163.77665997 C2.17561787 168.47124144 4.3258765 172.03243871 8 175 C9.65 175.66 11.3 176.32 13 177 C13 169.08 13 161.16 13 153 C13.33 153 13.66 153 14 153 C14 163.23 14 173.46 14 184 C9.71 184.99 5.42 185.98 1 187 C-0.68194008 185.31805992 -0.12220343 183.2477417 -0.12908131 181.00271934 C-0.12616847 180.2819158 -0.12325563 179.56111226 -0.12025452 178.81846619 C-0.12110894 178.05807102 -0.12196337 177.29767586 -0.12284368 176.51423842 C-0.12450078 173.9468875 -0.11897339 171.37960083 -0.11352539 168.81225586 C-0.11324354 166.97961936 -0.11340121 165.14698275 -0.1139679 163.31434631 C-0.11425596 158.32281938 -0.10835777 153.33131625 -0.10139394 148.33979487 C-0.09516191 143.12940894 -0.09455672 137.91902251 -0.09336853 132.70863342 C-0.09025477 122.83468975 -0.08204078 112.96075709 -0.07201904 103.08681828 C-0.06085929 91.84879999 -0.0553478 80.61078119 -0.05032361 69.37275875 C-0.0398582 46.24849971 -0.02225789 23.12425047 0 0 Z " fill="#FECDC5" transform="translate(61,139)"/>
<path d="M0 0 C110.55 0 221.1 0 335 0 C335 0.33 335 0.66 335 1 C224.45 1 113.9 1 0 1 C0 0.67 0 0.34 0 0 Z " fill="#FF8001" transform="translate(33,355)"/>
<path d="M0 0 C0.33 0 0.66 0 1 0 C1 57.42 1 114.84 1 174 C-14.84 174 -30.68 174 -47 174 C-47 173.67 -47 173.34 -47 173 C-40.4 173 -33.8 173 -27 173 C-27.14033182 169.20805517 -27.28700628 165.41654322 -27.4375 161.625 C-27.47681641 160.54476562 -27.51613281 159.46453125 -27.55664062 158.3515625 C-27.59853516 157.3203125 -27.64042969 156.2890625 -27.68359375 155.2265625 C-27.72025146 154.27346191 -27.75690918 153.32036133 -27.79467773 152.33837891 C-27.85763465 149.97867651 -27.85763465 149.97867651 -29 148 C-28.34 148 -27.68 148 -27 148 C-27 147.01 -27 146.02 -27 145 C-26.34 145 -25.68 145 -25 145 C-24.67 148.96 -24.34 152.92 -24 157 C-22.02 156.01 -22.02 156.01 -20 155 C-20.64453125 155.68449219 -21.2890625 156.36898437 -21.953125 157.07421875 C-24.38171902 160.54562508 -24.58062692 162.6205163 -24.75 166.8125 C-24.8325 168.854375 -24.915 170.89625 -25 173 C-16.75 173 -8.5 173 0 173 C0 115.91 0 58.82 0 0 Z " fill="#FF8128" transform="translate(368,94)"/>
<path d="M0 0 C0.33 0 0.66 0 1 0 C1 14.52 1 29.04 1 44 C-53.12 44 -107.24 44 -163 44 C-163 43.67 -163 43.34 -163 43 C-109.21 43 -55.42 43 0 43 C0 28.81 0 14.62 0 0 Z " fill="#FFC7A6" transform="translate(225,93)"/>
<path d="M0 0 C0.33 0 0.66 0 1 0 C1 10.23 1 20.46 1 31 C-7 33 -7 33 -11 33 C-11 27.72 -11 22.44 -11 17 C-9.02 18.65 -7.04 20.3 -5 22 C-2.525 22.99 -2.525 22.99 0 24 C0 16.08 0 8.16 0 0 Z " fill="#EED1BB" transform="translate(74,292)"/>
<path d="M0 0 C0.66 0 1.32 0 2 0 C2.33 3.96 2.66 7.92 3 12 C4.32 11.34 5.64 10.68 7 10 C6.35546875 10.68449219 5.7109375 11.36898437 5.046875 12.07421875 C2.61828098 15.54562508 2.41937308 17.6205163 2.25 21.8125 C2.1675 23.854375 2.085 25.89625 2 28 C10.58 28 19.16 28 28 28 C28 28.33 28 28.66 28 29 C12.16 29 -3.68 29 -20 29 C-20 28.67 -20 28.34 -20 28 C-13.4 28 -6.8 28 0 28 C-0.14033182 24.20805517 -0.28700628 20.41654322 -0.4375 16.625 C-0.47681641 15.54476562 -0.51613281 14.46453125 -0.55664062 13.3515625 C-0.59853516 12.3203125 -0.64042969 11.2890625 -0.68359375 10.2265625 C-0.72025146 9.27346191 -0.75690918 8.32036133 -0.79467773 7.33837891 C-0.85763465 4.97867651 -0.85763465 4.97867651 -2 3 C-1.34 3 -0.68 3 0 3 C0 2.01 0 1.02 0 0 Z " fill="#C4631D" transform="translate(341,239)"/>
<path d="M0 0 C3.3 0 6.6 0 10 0 C10 3.3 10 6.6 10 10 C6.7 10 3.4 10 0 10 C0 6.7 0 3.4 0 0 Z " fill="#FFFDFC" transform="translate(156,225)"/>
<path d="M0 0 C3.3 0 6.6 0 10 0 C10 3.3 10 6.6 10 10 C6.7 10 3.4 10 0 10 C0 6.7 0 3.4 0 0 Z " fill="#FFFDFC" transform="translate(118,225)"/>
<path d="M0 0 C3.3 0 6.6 0 10 0 C10 3.3 10 6.6 10 10 C6.7 10 3.4 10 0 10 C0 6.7 0 3.4 0 0 Z " fill="#FFFDFC" transform="translate(80,225)"/>
<path d="M0 0 C3.3 0 6.6 0 10 0 C10 3.3 10 6.6 10 10 C6.7 10 3.4 10 0 10 C0 6.7 0 3.4 0 0 Z " fill="#FFFDFC" transform="translate(156,203)"/>
<path d="M0 0 C3.3 0 6.6 0 10 0 C10 3.3 10 6.6 10 10 C6.7 10 3.4 10 0 10 C0 6.7 0 3.4 0 0 Z " fill="#FFFDFC" transform="translate(118,203)"/>
<path d="M0 0 C3.3 0 6.6 0 10 0 C10 3.3 10 6.6 10 10 C6.7 10 3.4 10 0 10 C0 6.7 0 3.4 0 0 Z " fill="#FFFDFC" transform="translate(80,203)"/>
<path d="M0 0 C3.3 0 6.6 0 10 0 C10 3.3 10 6.6 10 10 C6.7 10 3.4 10 0 10 C0 6.7 0 3.4 0 0 Z " fill="#FFFDFC" transform="translate(156,181)"/>
<path d="M0 0 C3.3 0 6.6 0 10 0 C10 3.3 10 6.6 10 10 C6.7 10 3.4 10 0 10 C0 6.7 0 3.4 0 0 Z " fill="#FFFDFC" transform="translate(118,181)"/>
<path d="M0 0 C3.3 0 6.6 0 10 0 C10 3.3 10 6.6 10 10 C6.7 10 3.4 10 0 10 C0 6.7 0 3.4 0 0 Z " fill="#FFFDFB" transform="translate(80,181)"/>
<path d="M0 0 C3.3 0 6.6 0 10 0 C10 3.3 10 6.6 10 10 C6.7 10 3.4 10 0 10 C0 6.7 0 3.4 0 0 Z " fill="#FFFDFC" transform="translate(156,159)"/>
<path d="M0 0 C3.3 0 6.6 0 10 0 C10 3.3 10 6.6 10 10 C6.7 10 3.4 10 0 10 C0 6.7 0 3.4 0 0 Z " fill="#FFFDFC" transform="translate(118,159)"/>
<path d="M0 0 C3.3 0 6.6 0 10 0 C10 3.3 10 6.6 10 10 C6.7 10 3.4 10 0 10 C0 6.7 0 3.4 0 0 Z " fill="#FFFDFC" transform="translate(80,159)"/>
<path d="M0 0 C6.93359375 -0.09765625 6.93359375 -0.09765625 9 0 C10 1 10 1 10.09765625 3.06640625 C10.06510417 5.37760417 10.03255208 7.68880208 10 10 C6.7 10 3.4 10 0 10 C0 6.7 0 3.4 0 0 Z " fill="#FFF8F3" transform="translate(289,202)"/>
<path d="M0 0 C6.93359375 -0.09765625 6.93359375 -0.09765625 9 0 C10 1 10 1 10.09765625 3.06640625 C10.06510417 5.37760417 10.03255208 7.68880208 10 10 C6.7 10 3.4 10 0 10 C0 6.7 0 3.4 0 0 Z " fill="#FFF8F3" transform="translate(289,147)"/>
<path d="M0 0 C2.97 0 5.94 0 9 0 C9 3.3 9 6.6 9 10 C6.03 10 3.06 10 0 10 C0 6.7 0 3.4 0 0 Z " fill="#FFFAF7" transform="translate(289,184)"/>
<path d="M0 0 C0.66 0 1.32 0 2 0 C2.83923337 12.48521027 2.96846175 24.51760414 2 37 C12.56 37 23.12 37 34 37 C34 37.33 34 37.66 34 38 C23.11 38 12.22 38 1 38 C0.6875 22.75 0.6875 22.75 0.61206055 17.95605469 C0.57894775 16.70727539 0.54583496 15.45849609 0.51171875 14.171875 C0.48553467 12.8940918 0.45935059 11.61630859 0.43237305 10.29980469 C-0.01582046 6.8792607 -0.66348256 5.46979958 -3 3 C-2.34 3 -1.68 3 -1 3 C-0.67 2.01 -0.34 1.02 0 0 Z " fill="#645B54" transform="translate(74,285)"/>
<path d="M0 0 C0.66 0 1.32 0 2 0 C2 5.94 2 11.88 2 18 C2.66 18.33 3.32 18.66 4 19 C3.67 19.33 3.34 19.66 3 20 C2.76298761 22.85877909 2.57780818 25.69883297 2.4375 28.5625 C2.39431641 29.36880859 2.35113281 30.17511719 2.30664062 31.00585938 C2.20024738 33.00368805 2.09959112 35.0018207 2 37 C1.34 37 0.68 37 0 37 C-0.33 26.77 -0.66 16.54 -1 6 C-1.66 5.67 -2.32 5.34 -3 5 C-2.67 4.34 -2.34 3.68 -2 3 C-1.34 3.33 -0.68 3.66 0 4 C0 2.68 0 1.36 0 0 Z " fill="#7D7A78" transform="translate(108,285)"/>
<path d="M0 0 C2.97 0 5.94 0 9 0 C9 2.97 9 5.94 9 9 C6.03 9 3.06 9 0 9 C0 6.03 0 3.06 0 0 Z " fill="#FFFCFA" transform="translate(250,203)"/>
<path d="M0 0 C2.97 0 5.94 0 9 0 C9 2.97 9 5.94 9 9 C6.03 9 3.06 9 0 9 C0 6.03 0 3.06 0 0 Z " fill="#FFFCFB" transform="translate(250,184)"/>
<path d="M0 0 C2.97 0 5.94 0 9 0 C9 2.97 9 5.94 9 9 C6.03 9 3.06 9 0 9 C0 6.03 0 3.06 0 0 Z " fill="#FFFCFA" transform="translate(289,166)"/>
<path d="M0 0 C2.97 0 5.94 0 9 0 C9 2.97 9 5.94 9 9 C6.03 9 3.06 9 0 9 C0 6.03 0 3.06 0 0 Z " fill="#FFFDFB" transform="translate(250,166)"/>
<path d="M0 0 C2.97 0 5.94 0 9 0 C9 2.97 9 5.94 9 9 C6.03 9 3.06 9 0 9 C0 6.03 0 3.06 0 0 Z " fill="#FFFCFA" transform="translate(250,148)"/>
<path d="M0 0 C2.97 0 5.94 0 9 0 C9 2.97 9 5.94 9 9 C6.03 9 3.06 9 0 9 C0 6.03 0 3.06 0 0 Z " fill="#FFFCFA" transform="translate(289,129)"/>
<path d="M0 0 C2.97 0 5.94 0 9 0 C9 2.97 9 5.94 9 9 C6.03 9 3.06 9 0 9 C0 6.03 0 3.06 0 0 Z " fill="#FFFCFA" transform="translate(250,129)"/>
<path d="M0 0 C2.97 0 5.94 0 9 0 C9 2.97 9 5.94 9 9 C6.03 9 3.06 9 0 9 C0 6.03 0 3.06 0 0 Z " fill="#FFFCFA" transform="translate(289,111)"/>
<path d="M0 0 C2.97 0 5.94 0 9 0 C9 2.97 9 5.94 9 9 C6.03 9 3.06 9 0 9 C0 6.03 0 3.06 0 0 Z " fill="#FFFCFA" transform="translate(250,111)"/>
<path d="M0 0 C25.08 0 50.16 0 76 0 C76 0.33 76 0.66 76 1 C50.92 1 25.84 1 0 1 C0 0.67 0 0.34 0 0 Z " fill="#FFB091" transform="translate(259,44)"/>
<path d="M0 0 C2.64 0 5.28 0 8 0 C8 2.64 8 5.28 8 8 C5.36 8 2.72 8 0 8 C0 5.36 0 2.72 0 0 Z " fill="#FFFBF9" transform="translate(260,263)"/>
<path d="M0 0 C2.64 0 5.28 0 8 0 C8 2.64 8 5.28 8 8 C5.36 8 2.72 8 0 8 C0 5.36 0 2.72 0 0 Z " fill="#FFFCFA" transform="translate(242,263)"/>
<path d="M0 0 C2.64 0 5.28 0 8 0 C8 2.64 8 5.28 8 8 C5.36 8 2.72 8 0 8 C0 5.36 0 2.72 0 0 Z " fill="#FFFCF9" transform="translate(226,263)"/>
<path d="M0 0 C0.66 0 1.32 0 2 0 C2.33 3.96 2.66 7.92 3 12 C4.32 11.34 5.64 10.68 7 10 C6.360625 10.66 5.72125 11.32 5.0625 12 C2.41087498 15.85690912 2.31332879 18.37840033 2 23 C1.34 23 0.68 23 0 23 C-0.06058594 21.72382813 -0.12117188 20.44765625 -0.18359375 19.1328125 C-0.26799568 17.46352984 -0.35264386 15.79425963 -0.4375 14.125 C-0.47681641 13.28324219 -0.51613281 12.44148437 -0.55664062 11.57421875 C-0.59853516 10.76855469 -0.64042969 9.96289062 -0.68359375 9.1328125 C-0.73858032 8.01737061 -0.73858032 8.01737061 -0.79467773 6.87939453 C-0.89955865 4.91135688 -0.89955865 4.91135688 -2 3 C-1.34 3 -0.68 3 0 3 C0 2.01 0 1.02 0 0 Z " fill="#8B8B8B" transform="translate(341,239)"/>
<path d="M0 0 C0.66 0.33 1.32 0.66 2 1 C2 8.92 2 16.84 2 25 C0.35 25.33 -1.3 25.66 -3 26 C-2.67 25.34 -2.34 24.68 -2 24 C-1.34 24 -0.68 24 0 24 C0 16.08 0 8.16 0 0 Z " fill="#FFE3C6" transform="translate(234,69)"/>
<path d="M0 0 C0.33 0 0.66 0 1 0 C1 7.26 1 14.52 1 22 C-6.59 22 -14.18 22 -22 22 C-22 21.67 -22 21.34 -22 21 C-14.74 21 -7.48 21 0 21 C0 14.07 0 7.14 0 0 Z " fill="#FFD3BE" transform="translate(256,46)"/>
<path d="M0 0 C0.33 0 0.66 0 1 0 C1 6.93 1 13.86 1 21 C8.26 21 15.52 21 23 21 C23 21.33 23 21.66 23 22 C15.41 22 7.82 22 0 22 C0 14.74 0 7.48 0 0 Z " fill="#FE8222" transform="translate(336,46)"/>
<path d="M0 0 C0.33 0 0.66 0 1 0 C1.33 6.93 1.66 13.86 2 21 C3.98 21 5.96 21 8 21 C7.67 21.66 7.34 22.32 7 23 C4.69 23 2.38 23 0 23 C0 15.41 0 7.82 0 0 Z " fill="#FF851E" transform="translate(361,69)"/>
<path d="M0 0 C0.66 0.33 1.32 0.66 2 1 C1.67 1.99 1.34 2.98 1 4 C-2.0625 5.1875 -2.0625 5.1875 -5 6 C-5 5.01 -5 4.02 -5 3 C-2.625 1.25 -2.625 1.25 0 0 Z M-8 5 C-7.34 5 -6.68 5 -6 5 C-6.33 5.99 -6.66 6.98 -7 8 C-7.66 7.34 -8.32 6.68 -9 6 C-8.67 5.67 -8.34 5.34 -8 5 Z " fill="#190A02" transform="translate(309,271)"/>
<path d="M0 0 C0.33 0 0.66 0 1 0 C1 7.26 1 14.52 1 22 C-0.32 21.67 -1.64 21.34 -3 21 C-2.34 20.67 -1.68 20.34 -1 20 C-0.67 13.4 -0.34 6.8 0 0 Z " fill="#FFE2DB" transform="translate(231,70)"/>
<path d="M0 0 C2 1 2 1 2 1 Z " fill="#824302" transform="translate(57,326)"/>
<path d="" fill="#FF8001" transform="translate(0,0)"/>
<path d="" fill="#060603" transform="translate(0,0)"/>
<path d="" fill="#060603" transform="translate(0,0)"/>
<path d="" fill="#060603" transform="translate(0,0)"/>
<path d="" fill="#060603" transform="translate(0,0)"/>
<path d="" fill="#060603" transform="translate(0,0)"/>
<path d="" fill="#060603" transform="translate(0,0)"/>
<path d="" fill="#060603" transform="translate(0,0)"/>
<path d="" fill="#060603" transform="translate(0,0)"/>
<path d="" fill="#060603" transform="translate(0,0)"/>
<path d="" fill="#060603" transform="translate(0,0)"/>
<path d="" fill="#060603" transform="translate(0,0)"/>
<path d="" fill="#060603" transform="translate(0,0)"/>
<path d="" fill="#060603" transform="translate(0,0)"/>
<path d="" fill="#060603" transform="translate(0,0)"/>
<path d="" fill="#060603" transform="translate(0,0)"/>
<path d="" fill="#060603" transform="translate(0,0)"/>
<path d="" fill="#060603" transform="translate(0,0)"/>
<path d="" fill="#060603" transform="translate(0,0)"/>
<path d="" fill="#060603" transform="translate(0,0)"/>
<path d="" fill="#060603" transform="translate(0,0)"/>
<path d="" fill="#060603" transform="translate(0,0)"/>
<path d="" fill="#060603" transform="translate(0,0)"/>
<path d="" fill="#060603" transform="translate(0,0)"/>
<path d="" fill="#060603" transform="translate(0,0)"/>
<path d="" fill="#060603" transform="translate(0,0)"/>
<path d="" fill="#FF8001" transform="translate(0,0)"/>
<path d="" fill="#FF8001" transform="translate(0,0)"/>
<path d="" fill="#FF8001" transform="translate(0,0)"/>
</svg>
