<?xml version="1.0" encoding="UTF-8"?>
<svg version="1.1" xmlns="http://www.w3.org/2000/svg" width="400" height="400">
<path d="M0 0 C1.18722656 0.31195313 2.37445313 0.62390625 3.59765625 0.9453125 C4.83386719 1.29078125 6.07007813 1.63625 7.34375 1.9921875 C8.57996094 2.31445312 9.81617188 2.63671875 11.08984375 2.96875 C21.08999326 5.66151556 21.08999326 5.66151556 24.84375 8.8671875 C24.51375 11.1771875 24.18375 13.4871875 23.84375 15.8671875 C29.10015481 17.90899581 34.30706356 19.64811004 39.7578125 21.08105469 C40.5090165 21.28204773 41.26022051 21.48304077 42.03418827 21.69012451 C44.51137657 22.35191682 46.99003919 23.00799794 49.46875 23.6640625 C51.23230913 24.13401974 52.99577036 24.60434451 54.75914001 25.07501221 C58.50538737 26.07414322 62.25228313 27.07078968 65.99972534 28.06542969 C71.88705797 29.62807174 77.77286967 31.19638768 83.65844727 32.765625 C91.47896385 34.85029594 99.30002599 36.93290442 107.12158203 39.01367188 C120.67780917 42.62029454 134.23071604 46.23922956 147.78125 49.8671875 C148.86172607 50.15631012 149.94220215 50.44543274 151.05541992 50.74331665 C177.01034479 57.69085936 202.92893427 64.77171724 228.84375 71.8671875 C228.19962386 74.63842786 227.55352252 77.40918195 226.90625 80.1796875 C226.72384766 80.96537109 226.54144531 81.75105469 226.35351562 82.56054688 C226.17626953 83.31787109 225.99902344 84.07519531 225.81640625 84.85546875 C225.57289429 85.90021362 225.57289429 85.90021362 225.32446289 86.96606445 C224.90609435 88.6206281 224.38343631 90.24812858 223.84375 91.8671875 C224.46378906 91.96515625 225.08382813 92.063125 225.72265625 92.1640625 C232.73555603 93.34819114 239.46384886 95.11238748 246.265625 97.16015625 C249.85902127 98.09159372 249.85902127 98.09159372 253.546875 97.23046875 C256.84375 96.8671875 256.84375 96.8671875 259.375 98.30859375 C261.16340913 101.4240405 260.83521974 103.18505679 259.97607422 106.60522461 C259.66307373 107.69395874 259.66307373 107.69395874 259.34375 108.8046875 C259.14668457 109.55306885 258.94961914 110.3014502 258.74658203 111.07250977 C258.13857442 113.3456456 257.49583851 115.60634771 256.84375 117.8671875 C256.65651367 118.5375 256.46927734 119.2078125 256.27636719 119.8984375 C253.342371 130.3685665 253.342371 130.3685665 250.84375 132.8671875 C247.71875 132.4921875 247.71875 132.4921875 244.84375 131.8671875 C244.84375 130.8771875 244.84375 129.8871875 244.84375 128.8671875 C243.88984375 128.75503906 242.9359375 128.64289063 241.953125 128.52734375 C237.22730373 127.85273633 232.68917692 126.57251394 228.09375 125.3046875 C226.4124012 124.84161496 224.7301419 124.38183224 223.046875 123.92578125 C222.31114258 123.72267334 221.57541016 123.51956543 220.81738281 123.31030273 C218.69302224 122.75765543 218.69302224 122.75765543 215.84375 122.8671875 C213.36875 131.2821875 213.36875 131.2821875 210.84375 139.8671875 C205.79675587 139.23631323 201.58224231 138.67146156 196.79492188 137.37670898 C195.67436401 137.07647324 194.55380615 136.77623749 193.39929199 136.46690369 C192.21565063 136.14395828 191.03200928 135.82101288 189.8125 135.48828125 C188.58084106 135.15675552 187.34918213 134.8252298 186.0802002 134.48365784 C182.83072213 133.60797223 179.58256356 132.72768927 176.33496094 131.84509277 C173.01082361 130.94293755 169.68502903 130.04693527 166.359375 129.15039062 C159.85263582 127.39494839 153.3475681 125.63341952 146.84375 123.8671875 C146.18375 125.5171875 145.52375 127.1671875 144.84375 128.8671875 C141.21375 128.2071875 137.58375 127.5471875 133.84375 126.8671875 C133.51375 128.5171875 133.18375 130.1671875 132.84375 131.8671875 C130.86375 131.5371875 128.88375 131.2071875 126.84375 130.8671875 C133.55356816 142.79842051 140.30515817 154.70392985 147.15625 166.5546875 C152.42432395 175.66941078 157.68008785 184.7908771 162.90625 193.9296875 C163.24030853 194.51378387 163.57436707 195.09788025 163.91854858 195.69967651 C168.6506091 203.97853028 173.32598458 212.28788488 177.96875 220.6171875 C183.05892292 229.74898506 188.27917494 238.79583006 193.57226562 247.8112793 C199.67678488 258.23524489 205.56468031 268.7785814 211.42675781 279.34033203 C212.67280571 281.5623506 213.95100236 283.76111122 215.2421875 285.95703125 C216.84375 288.8671875 216.84375 288.8671875 216.84375 290.8671875 C213.86376947 291.56994064 212.66940652 291.848394 209.84375 290.8671875 C206.74466491 287.43264293 204.61293288 283.44324287 202.34375 279.4296875 C201.64566387 278.23924363 200.9450191 277.0502968 200.24194336 275.86279297 C198.79390127 273.409209 197.35990966 270.94822862 195.93701172 268.47998047 C193.42352235 264.1270351 190.82974638 259.82364452 188.23291016 255.52001953 C186.37542227 252.44108812 184.52868302 249.35590613 182.68359375 246.26953125 C178.63876154 239.51494285 174.55770907 232.78260529 170.46875 226.0546875 C170.11467072 225.47205139 169.76059143 224.88941528 169.39578247 224.28912354 C167.59790629 221.33101942 165.79955208 218.37320629 164.00097656 215.41552734 C160.79812335 210.14806233 157.59955631 204.87799551 154.40066528 199.60812378 C153.34993102 197.87736879 152.29891213 196.14678696 151.24780273 194.41625977 C147.93630222 188.96390571 144.62672211 183.51040965 141.3230896 178.05328369 C139.76765872 175.484172 138.21125885 172.91564799 136.65478516 170.34716797 C135.91520594 169.12610693 135.17609824 167.90476014 134.4375 166.68310547 C133.41136279 164.98592357 132.38344821 163.28981669 131.35546875 161.59375 C130.77240967 160.63033691 130.18935059 159.66692383 129.58862305 158.67431641 C127.73627258 155.69427924 125.79562375 152.78275216 123.84375 149.8671875 C123.10453283 164.9081166 122.63906548 179.9376458 122.39819336 194.99448586 C122.34209486 198.48984661 122.28188107 201.98511711 122.22070312 205.48039246 C122.04788999 215.39805108 121.88285816 225.31583663 121.71875 235.23364258 C121.61729157 241.34860557 121.51182224 247.46348951 121.40405273 253.57834435 C121.34494734 257.00480636 121.29057968 260.43132262 121.23632812 263.85786438 C121.19947596 265.96620121 121.16237959 268.07453379 121.125 270.18286133 C121.11146484 271.1206543 121.09792969 272.05844727 121.08398438 273.0246582 C120.97108692 279.01544929 120.52988927 284.91493373 119.84375 290.8671875 C117.53375 290.8671875 115.22375 290.8671875 112.84375 290.8671875 C112.0927877 272.53139115 111.60339592 254.20386805 111.30859375 235.85546875 C111.2654192 233.29330553 111.22200305 230.73114637 111.17835999 228.16899109 C111.07723252 222.19879014 110.97847518 216.22855322 110.88096577 210.25829238 C110.76947174 203.4403466 110.65479837 196.62245533 110.53991115 189.80456603 C110.30442046 175.82549612 110.07274943 161.84636515 109.84375 147.8671875 C109.40324814 148.61210953 108.96274628 149.35703156 108.50889587 150.12452698 C92.60365997 177.01399374 92.60365997 177.01399374 85.40625 188.8046875 C84.70425862 189.95757973 84.00244205 191.11057842 83.30078125 192.26367188 C81.86279501 194.62653782 80.42410708 196.98897407 78.98486328 199.35107422 C75.78560558 204.60310542 72.59578625 209.86086688 69.40524292 215.11819458 C67.63513098 218.03475973 65.8644097 220.95095488 64.09375 223.8671875 C63.38541375 225.03385239 62.67708041 226.20051906 61.96875 227.3671875 C57.71875 234.3671875 57.71875 234.3671875 56.65646362 236.11682129 C55.94740123 237.28469835 55.23835585 238.45258573 54.52932739 239.6204834 C52.76978735 242.51871559 51.00996191 245.41677368 49.24951172 248.31445312 C45.92693172 253.78407223 42.60742508 259.2554965 39.29730225 264.73266602 C37.73254955 267.32144475 36.16626196 269.90929319 34.59985352 272.49707031 C33.85315349 273.73163155 33.10720687 274.96664882 32.36206055 276.20214844 C31.32921693 277.91456235 30.29357367 279.62528671 29.2578125 281.3359375 C28.6695166 282.30982422 28.0812207 283.28371094 27.47509766 284.28710938 C24.39252896 289.16238414 24.39252896 289.16238414 22.84375 290.8671875 C19.15625 291.1171875 19.15625 291.1171875 15.84375 290.8671875 C17.18830698 287.32284323 18.75603344 284.05919557 20.609375 280.75390625 C21.16238281 279.76583984 21.71539062 278.77777344 22.28515625 277.75976562 C22.88199219 276.70208984 23.47882813 275.64441406 24.09375 274.5546875 C24.71636719 273.44673828 25.33898437 272.33878906 25.98046875 271.19726562 C30.76488866 262.71141824 35.65880935 254.29217933 40.59082031 245.89135742 C44.76456367 238.76518474 48.82781309 231.58332413 52.84375 224.3671875 C57.98006389 215.13787348 63.24587535 205.99481777 68.59375 196.88671875 C72.76619112 189.761903 76.82860099 182.58167183 80.84375 175.3671875 C87.13967846 164.05755555 93.62311337 152.86504198 100.17919922 141.70458984 C103.07725211 136.76455307 105.96002088 131.81559521 108.84375 126.8671875 C106.20375 125.8771875 103.56375 124.8871875 100.84375 123.8671875 C101.17375 122.2171875 101.50375 120.5671875 101.84375 118.8671875 C98.87375 117.8771875 95.90375 116.8871875 92.84375 115.8671875 C93.17375 113.5571875 93.50375 111.2471875 93.84375 108.8671875 C93.25208038 108.77583527 92.66041077 108.68448303 92.05081177 108.59036255 C83.00632244 107.07807794 74.24029285 104.68666683 65.3984375 102.296875 C63.73514877 101.85090852 62.07174542 101.40536933 60.40823364 100.9602356 C56.06432277 99.79682333 51.72178085 98.62838561 47.37957764 97.45861816 C40.39576074 95.57821806 33.40978536 93.70584979 26.42395401 91.83295059 C23.98552408 91.17847406 21.54763526 90.52201312 19.10983276 89.86520386 C17.62905694 89.46723401 16.14827328 89.06929333 14.66748047 88.67138672 C13.98705185 88.48751404 13.30662323 88.30364136 12.60557556 88.11419678 C9.76443149 87.2358965 9.76443149 87.2358965 6.84375 86.8671875 C6.18375 88.8471875 5.52375 90.8271875 4.84375 92.8671875 C-2.85213706 94.58688572 -9.06324922 92.69253711 -16.53125 90.5546875 C-17.71847656 90.23306641 -18.90570313 89.91144531 -20.12890625 89.58007812 C-28.87046172 87.15297578 -28.87046172 87.15297578 -31.15625 84.8671875 C-30.89693744 75.99954828 -28.11594235 67.42609233 -25.82421875 58.90625 C-25.38667738 57.26724129 -24.94928669 55.62819235 -24.51203918 53.98910522 C-23.59804903 50.57036198 -22.67847872 47.15317436 -21.75561523 43.73681641 C-20.57416394 39.35924779 -19.4126964 34.97664024 -18.25599194 30.5924778 C-17.36100597 27.21316241 -16.45263427 23.83755326 -15.54046059 20.46284103 C-15.10625082 18.84779895 -14.67689785 17.2314429 -14.25252342 15.6137886 C-13.65916118 13.35777513 -13.04723978 11.10760521 -12.43041992 8.85791016 C-12.2593573 8.19088074 -12.08829468 7.52385132 -11.91204834 6.83660889 C-11.09384371 3.92262897 -10.35746538 2.06737831 -8.19343567 -0.08563232 C-5.14116073 -1.65460164 -3.2669683 -0.87303565 0 0 Z M3.84375 87.8671875 C4.84375 90.8671875 4.84375 90.8671875 4.84375 90.8671875 Z " fill="#FE8127" transform="translate(88.15625,62.1328125)"/>
<path d="M0 0 C8.10568908 1.31799411 15.94911827 3.21460115 23.859375 5.40625 C25.04799133 5.73161743 26.23660767 6.05698486 27.46124268 6.39221191 C31.22538346 7.4237494 34.98769059 8.46180532 38.75 9.5 C41.29024865 10.19703723 43.83061225 10.89365568 46.37109375 11.58984375 C65.53376818 16.8469471 65.53376818 16.8469471 73 19 C72.35587386 21.77124036 71.70977252 24.54199445 71.0625 27.3125 C70.88009766 28.09818359 70.69769531 28.88386719 70.50976562 29.69335938 C70.33251953 30.45068359 70.15527344 31.20800781 69.97265625 31.98828125 C69.72914429 33.03302612 69.72914429 33.03302612 69.48071289 34.09887695 C69.06234435 35.7534406 68.53968631 37.38094108 68 39 C68.62003906 39.09796875 69.24007812 39.1959375 69.87890625 39.296875 C76.89180603 40.48100364 83.62009886 42.24519998 90.421875 44.29296875 C94.01527127 45.22440622 94.01527127 45.22440622 97.703125 44.36328125 C101 44 101 44 103.53125 45.44140625 C105.31965913 48.556853 104.99146974 50.31786929 104.13232422 53.73803711 C103.81932373 54.82677124 103.81932373 54.82677124 103.5 55.9375 C103.30293457 56.68588135 103.10586914 57.4342627 102.90283203 58.20532227 C102.29482442 60.4784581 101.65208851 62.73916021 101 65 C100.81276367 65.6703125 100.62552734 66.340625 100.43261719 67.03125 C97.498621 77.501379 97.498621 77.501379 95 80 C91.875 79.625 91.875 79.625 89 79 C89 78.01 89 77.02 89 76 C88.04609375 75.88785156 87.0921875 75.77570313 86.109375 75.66015625 C81.38355373 74.98554883 76.84542692 73.70532644 72.25 72.4375 C70.5686512 71.97442746 68.8863919 71.51464474 67.203125 71.05859375 C66.46739258 70.85548584 65.73166016 70.65237793 64.97363281 70.44311523 C62.84927224 69.89046793 62.84927224 69.89046793 60 70 C58.35 75.61 56.7 81.22 55 87 C50.00788699 86.37598587 45.81638831 85.82607051 41.078125 84.55712891 C39.43602051 84.1212999 39.43602051 84.1212999 37.76074219 83.67666626 C36.60219727 83.36313202 35.44365234 83.04959778 34.25 82.7265625 C32.43097168 82.23994644 32.43097168 82.23994644 30.57519531 81.74349976 C28.0194507 81.05845248 25.4643668 80.37136704 22.91015625 79.68066406 C19.65747973 78.80130675 16.40264986 77.93025573 13.14703369 77.06185341 C10.0135879 76.22501756 6.88185724 75.38182069 3.75 74.5390625 C2.59145508 74.22957672 1.43291016 73.92009094 0.23925781 73.60122681 C-5.64389387 72.00590684 -11.33774058 70.26058802 -17 68 C-16.37127015 62.23009373 -15.36493026 56.70094176 -14 51.0625 C-13.68712036 49.75817017 -13.68712036 49.75817017 -13.36791992 48.42749023 C-11.17014296 39.43170627 -8.74743571 30.49634961 -6.3125 21.5625 C-6.11454834 20.83531769 -5.91659668 20.10813538 -5.71264648 19.35891724 C-5.1402942 17.26073657 -4.56498471 15.16339473 -3.98828125 13.06640625 C-3.65352783 11.84896729 -3.31877441 10.63152832 -2.97387695 9.37719727 C-2.06322257 6.21924239 -1.06426835 3.10913521 0 0 Z " fill="#FE8227" transform="translate(244,115)"/>
<path d="M0 0 C18.17975908 3.86344395 18.17975908 3.86344395 24.8828125 6.2890625 C27.47526792 7.15959181 30.09187918 7.79540848 32.75 8.4375 C39.2560599 10.01371039 45.62193301 11.97342065 52 14 C51.67 15.98 51.34 17.96 51 20 C47.37 19.34 43.74 18.68 40 18 C39.505 20.475 39.505 20.475 39 23 C37.02 22.67 35.04 22.34 33 22 C39.70981816 33.93123301 46.46140817 45.83674235 53.3125 57.6875 C58.58057395 66.80222328 63.83633785 75.9236896 69.0625 85.0625 C69.39655853 85.64659637 69.73061707 86.23069275 70.07479858 86.83248901 C74.8068591 95.11134278 79.48223458 103.42069738 84.125 111.75 C89.21517292 120.88179756 94.43542494 129.92864256 99.72851562 138.9440918 C105.83303488 149.36805739 111.72093031 159.9113939 117.58300781 170.47314453 C118.82905571 172.6951631 120.10725236 174.89392372 121.3984375 177.08984375 C123 180 123 180 123 182 C120.02001947 182.70275314 118.82565652 182.9812065 116 182 C112.90091491 178.56545543 110.76918288 174.57605537 108.5 170.5625 C107.80191387 169.37205613 107.1012691 168.1831093 106.39819336 166.99560547 C104.95015127 164.5420215 103.51615966 162.08104112 102.09326172 159.61279297 C99.57977235 155.2598476 96.98599638 150.95645702 94.38916016 146.65283203 C92.53167227 143.57390062 90.68493302 140.48871863 88.83984375 137.40234375 C84.79501154 130.64775535 80.71395907 123.91541779 76.625 117.1875 C76.27092072 116.60486389 75.91684143 116.02222778 75.55203247 115.42193604 C73.75415629 112.46383192 71.95580208 109.50601879 70.15722656 106.54833984 C66.95437335 101.28087483 63.75580631 96.01080801 60.55691528 90.74093628 C59.50618102 89.01018129 58.45516213 87.27959946 57.40405273 85.54907227 C54.09255222 80.09671821 50.78297211 74.64322215 47.4793396 69.18609619 C45.92390872 66.6169845 44.36750885 64.04846049 42.81103516 61.47998047 C42.07145594 60.25891943 41.33234824 59.03757264 40.59375 57.81591797 C39.56761279 56.11873607 38.53969821 54.42262919 37.51171875 52.7265625 C36.92865967 51.76314941 36.34560059 50.79973633 35.74487305 49.80712891 C33.89252258 46.82709174 31.95187375 43.91556466 30 41 C29.26078283 56.0409291 28.79531548 71.0704583 28.55444336 86.12729836 C28.49834486 89.62265911 28.43813107 93.11792961 28.37695312 96.61320496 C28.20413999 106.53086358 28.03910816 116.44864913 27.875 126.36645508 C27.77354157 132.48141807 27.66807224 138.59630201 27.56030273 144.71115685 C27.50119734 148.13761886 27.44682968 151.56413512 27.39257812 154.99067688 C27.35572596 157.09901371 27.31862959 159.20734629 27.28125 161.31567383 C27.26094727 162.72236328 27.26094727 162.72236328 27.24023438 164.1574707 C27.12733692 170.14826179 26.68613927 176.04774623 26 182 C23.69 182 21.38 182 19 182 C18.2490377 163.66420365 17.75964592 145.33668055 17.46484375 126.98828125 C17.4216692 124.42611803 17.37825305 121.86395887 17.33460999 119.30180359 C17.23348252 113.33160264 17.13472518 107.36136572 17.03721577 101.39110488 C16.92572174 94.5731591 16.81104837 87.75526783 16.69616115 80.93737853 C16.46067046 66.95830862 16.22899943 52.97917765 16 39 C15.55949814 39.74492203 15.11899628 40.48984406 14.66514587 41.25733948 C-1.24009003 68.14680624 -1.24009003 68.14680624 -8.4375 79.9375 C-9.13949138 81.09039223 -9.84130795 82.24339092 -10.54296875 83.39648438 C-11.98095499 85.75935032 -13.41964292 88.12178657 -14.85888672 90.48388672 C-18.05814442 95.73591792 -21.24796375 100.99367938 -24.43850708 106.25100708 C-26.20861902 109.16757223 -27.9793403 112.08376738 -29.75 115 C-30.45833625 116.16666489 -31.16666959 117.33333156 -31.875 118.5 C-36.125 125.5 -36.125 125.5 -37.18728638 127.24963379 C-37.89634877 128.41751085 -38.60539415 129.58539823 -39.31442261 130.7532959 C-41.07396265 133.65152809 -42.83378809 136.54958618 -44.59423828 139.44726562 C-47.91681828 144.91688473 -51.23632492 150.388309 -54.54644775 155.86547852 C-56.11120045 158.45425725 -57.67748804 161.04210569 -59.24389648 163.62988281 C-59.99059651 164.86444405 -60.73654313 166.09946132 -61.48168945 167.33496094 C-62.51453307 169.04737485 -63.55017633 170.75809921 -64.5859375 172.46875 C-65.1742334 173.44263672 -65.7625293 174.41652344 -66.36865234 175.41992188 C-69.45122104 180.29519664 -69.45122104 180.29519664 -71 182 C-74.6875 182.25 -74.6875 182.25 -78 182 C-76.65544302 178.45565573 -75.08771656 175.19200807 -73.234375 171.88671875 C-72.68136719 170.89865234 -72.12835938 169.91058594 -71.55859375 168.89257812 C-70.66333984 167.30606445 -70.66333984 167.30606445 -69.75 165.6875 C-69.12738281 164.57955078 -68.50476563 163.47160156 -67.86328125 162.33007812 C-63.07886134 153.84423074 -58.18494065 145.42499183 -53.25292969 137.02416992 C-49.07918633 129.89799724 -45.01593691 122.71613663 -41 115.5 C-35.86368611 106.27068598 -30.59787465 97.12763027 -25.25 88.01953125 C-21.07755888 80.8947155 -17.01514901 73.71448433 -13 66.5 C-6.70407154 55.19036805 -0.22063663 43.99785448 6.33544922 32.83740234 C9.23350211 27.89736557 12.11627088 22.94840771 15 18 C12.36 17.01 9.72 16.02 7 15 C7.33 13.35 7.66 11.7 8 10 C5.03 9.01 2.06 8.02 -1 7 C-0.67 4.69 -0.34 2.38 0 0 Z " fill="#000000" transform="translate(182,171)"/>
<path d="M0 0 C1.18722656 0.31195313 2.37445313 0.62390625 3.59765625 0.9453125 C4.83386719 1.29078125 6.07007813 1.63625 7.34375 1.9921875 C8.57996094 2.31445312 9.81617188 2.63671875 11.08984375 2.96875 C21.08999326 5.66151556 21.08999326 5.66151556 24.84375 8.8671875 C24.24239317 13.88496065 23.16137236 18.53979001 21.65625 23.3671875 C18.74980547 32.98317887 16.23022018 42.68706587 13.73095703 52.41552734 C12.71844331 56.35469054 11.70130001 60.29264459 10.68359375 64.23046875 C8.73411402 71.77530426 6.78803578 79.32101187 4.84375 86.8671875 C5.83375 87.3621875 5.83375 87.3621875 6.84375 87.8671875 C6.18375 89.5171875 5.52375 91.1671875 4.84375 92.8671875 C-2.85213706 94.58688572 -9.06324922 92.69253711 -16.53125 90.5546875 C-17.71847656 90.23306641 -18.90570313 89.91144531 -20.12890625 89.58007812 C-28.87046172 87.15297578 -28.87046172 87.15297578 -31.15625 84.8671875 C-30.89693744 75.99954828 -28.11594235 67.42609233 -25.82421875 58.90625 C-25.38667738 57.26724129 -24.94928669 55.62819235 -24.51203918 53.98910522 C-23.59804903 50.57036198 -22.67847872 47.15317436 -21.75561523 43.73681641 C-20.57416394 39.35924779 -19.4126964 34.97664024 -18.25599194 30.5924778 C-17.36100597 27.21316241 -16.45263427 23.83755326 -15.54046059 20.46284103 C-15.10625082 18.84779895 -14.67689785 17.2314429 -14.25252342 15.6137886 C-13.65916118 13.35777513 -13.04723978 11.10760521 -12.43041992 8.85791016 C-12.2593573 8.19088074 -12.08829468 7.52385132 -11.91204834 6.83660889 C-11.09384371 3.92262897 -10.35746538 2.06737831 -8.19343567 -0.08563232 C-5.14116073 -1.65460164 -3.2669683 -0.87303565 0 0 Z M3.84375 87.8671875 C4.84375 90.8671875 4.84375 90.8671875 4.84375 90.8671875 Z " fill="#FED9BD" transform="translate(88.15625,62.1328125)"/>
<path d="M0 0 C7.3612034 0.63433216 14.01132401 2.23942319 21.0703125 4.359375 C25.11391356 5.50156101 27.60122226 6.06253745 31.8359375 5.3984375 C35 5 35 5 37.53125 6.44140625 C39.31965913 9.556853 38.99146974 11.31786929 38.13232422 14.73803711 C37.92365723 15.46385986 37.71499023 16.18968262 37.5 16.9375 C37.20440186 18.06007202 37.20440186 18.06007202 36.90283203 19.20532227 C36.29482442 21.4784581 35.65208851 23.73916021 35 26 C34.81276367 26.6703125 34.62552734 27.340625 34.43261719 28.03125 C31.498621 38.501379 31.498621 38.501379 29 41 C25.875 40.625 25.875 40.625 23 40 C23 39.01 23 38.02 23 37 C22.07960938 36.89429688 21.15921875 36.78859375 20.2109375 36.6796875 C14.91358258 35.91911009 9.78771194 34.50847183 4.625 33.125 C3.61566406 32.86847656 2.60632813 32.61195313 1.56640625 32.34765625 C0.60863281 32.09113281 -0.34914063 31.83460938 -1.3359375 31.5703125 C-2.20782715 31.34102051 -3.0797168 31.11172852 -3.97802734 30.87548828 C-4.64527832 30.58657715 -5.3125293 30.29766602 -6 30 C-7.24832526 26.25502423 -6.58070169 24.59104315 -5.56640625 20.80078125 C-5.24736328 19.59228516 -4.92832031 18.38378906 -4.59960938 17.13867188 C-4.25736328 15.87603516 -3.91511719 14.61339844 -3.5625 13.3125 C-3.22412109 12.03826172 -2.88574219 10.76402344 -2.53710938 9.45117188 C-1.69881741 6.29872181 -0.85282912 3.14854267 0 0 Z " fill="#FCD7BB" transform="translate(310,154)"/>
<path d="M0 0 C3.63 0.66 7.26 1.32 11 2 C12.05132535 6.20530141 11.85033587 7.43046119 10.671875 11.4375 C10.36636719 12.49839844 10.06085938 13.55929688 9.74609375 14.65234375 C9.41738281 15.75707031 9.08867187 16.86179688 8.75 18 C8.11809164 20.16617146 7.48787804 22.33283805 6.859375 24.5 C6.54605225 25.57725342 6.23272949 26.65450684 5.90991211 27.7644043 C4.74641575 31.90173119 3.72080194 36.06711939 2.69677734 40.24072266 C1.72413932 44.09242374 0.59431897 47.88788542 -0.5625 51.6875 C-2.28456831 57.42495568 -3.76532161 63.13527762 -5 69 C-5.495 69.99 -5.495 69.99 -6 71 C-9.3 70.34 -12.6 69.68 -16 69 C-16.88339267 64.58303666 -17.09428698 63.24304014 -16.1015625 59.203125 C-15.8737207 58.25993408 -15.64587891 57.31674316 -15.41113281 56.3449707 C-15.15170898 55.32363037 -14.89228516 54.30229004 -14.625 53.25 C-14.36041992 52.17903076 -14.09583984 51.10806152 -13.82324219 50.00463867 C-10.71853303 37.59722936 -7.35021676 25.25585764 -3.953125 12.92578125 C-3.46054199 11.13781128 -3.46054199 11.13781128 -2.95800781 9.3137207 C-2.05138632 6.17774376 -1.05620498 3.08843031 0 0 Z " fill="#FEF5F1" transform="translate(244,115)"/>
<path d="M0 0 C18.16273485 3.85982607 18.16273485 3.85982607 24.875 6.28515625 C27.51150668 7.17206934 30.17411184 7.83511299 32.875 8.5 C33.87917969 8.7475 34.88335937 8.995 35.91796875 9.25 C38.00217153 9.75718243 40.08818122 10.25698745 42.17578125 10.75 C43.16964844 10.9975 44.16351563 11.245 45.1875 11.5 C46.53908203 11.82484375 46.53908203 11.82484375 47.91796875 12.15625 C48.60503906 12.4346875 49.29210937 12.713125 50 13 C50.495 14.485 50.495 14.485 51 16 C45.07090494 15.4138281 39.68419734 14.19595619 34 12.4375 C33.22527344 12.20353516 32.45054687 11.96957031 31.65234375 11.72851562 C29.7664786 11.15809962 27.8829791 10.57987197 26 10 C26.49886719 11.09699219 26.99773437 12.19398438 27.51171875 13.32421875 C29.01501429 17.03708254 29.36226884 18.33235313 28 22 C26 24 26 24 23.5625 24.375 C21 24 21 24 19.1875 22 C18.795625 21.34 18.40375 20.68 18 20 C17.34 20.33 16.68 20.66 16 21 C16 19.68 16 18.36 16 17 C11.545 16.01 11.545 16.01 7 15 C7.33 13.35 7.66 11.7 8 10 C5.03 9.01 2.06 8.02 -1 7 C-0.67 4.69 -0.34 2.38 0 0 Z " fill="#090504" transform="translate(182,171)"/>
<path d="M0 0 C2.4375 1.3125 2.4375 1.3125 3.17285156 3.0234375 C3.52229678 6.04594517 2.89646838 8.31224432 2.109375 11.25 C1.80386719 12.39210937 1.49835938 13.53421875 1.18359375 14.7109375 C0.69052734 16.49371094 0.69052734 16.49371094 0.1875 18.3125 C-0.12574219 19.50101563 -0.43898438 20.68953125 -0.76171875 21.9140625 C-3.39059996 31.5787461 -3.39059996 31.5787461 -6.5625 35.3125 C-8.5425 34.9825 -10.5225 34.6525 -12.5625 34.3125 C-11.53507971 26.35382643 -9.68193987 18.83962571 -7.32739258 11.18969727 C-6.42454928 8.25588451 -5.57737703 5.39548075 -5.03515625 2.37109375 C-4.80119141 1.35208984 -4.80119141 1.35208984 -4.5625 0.3125 C-2.5625 -0.6875 -2.5625 -0.6875 0 0 Z " fill="#000000" transform="translate(345.5625,159.6875)"/>
<path d="M0 0 C1.81756098 3.09729048 2.20832824 5.15472276 1.99290466 8.72244263 C1.94369653 9.65723387 1.89448839 10.59202511 1.8437891 11.55514336 C1.7811761 12.56577906 1.7185631 13.57641476 1.65405273 14.61767578 C1.54066969 16.80456974 1.43007543 18.99160973 1.32199097 21.17877197 C1.26533642 22.30868813 1.20868187 23.43860428 1.15031052 24.60276031 C0.91298454 29.96667789 0.81607507 35.33049465 0.73461914 40.69873047 C0.71773261 41.77584856 0.70084608 42.85296665 0.68344784 43.96272469 C0.64959995 46.19604982 0.61680288 48.42939111 0.58500862 50.66274643 C0.53368677 54.21901255 0.47720048 57.77516459 0.41929626 61.33132935 C0.25533544 71.41999441 0.09592634 81.50870638 -0.04956055 91.59765625 C-0.13961669 97.81756789 -0.23910099 104.03726702 -0.34482002 110.2569313 C-0.38307804 112.61648171 -0.41772653 114.97609348 -0.4487133 117.33575058 C-0.49196304 120.60669815 -0.54716537 123.87723595 -0.60522461 127.14794922 C-0.61516449 128.12228409 -0.62510437 129.09661896 -0.63534546 130.10047913 C-0.65347794 130.98568741 -0.67161041 131.87089569 -0.69029236 132.78292847 C-0.70189864 133.55371672 -0.71350492 134.32450497 -0.72546291 135.11865044 C-1 137 -1 137 -3 139 C-2.76040798 124.1249852 -2.51708289 109.25003478 -2.26950932 94.37515068 C-2.15459817 87.46594766 -2.04083455 80.55672956 -1.92993164 73.64746094 C-1.82262502 66.96245474 -1.71191003 60.27751247 -1.59924126 53.59259415 C-1.55708524 51.0597425 -1.51601499 48.52687252 -1.4761219 45.99398422 C-1.23354433 30.6460081 -0.79874564 15.3296009 0 0 Z " fill="#000000" transform="translate(212,213)"/>
<path d="M0 0 C0.99 0.103125 1.98 0.20625 3 0.3125 C5 3.3125 5 3.3125 4.75 5.875 C4 8.3125 4 8.3125 2 10.3125 C-0.5 10.5625 -0.5 10.5625 -3 10.3125 C-5 8.3125 -5 8.3125 -5.25 5.3125 C-4.90578549 1.18192588 -4.11441953 0.42858537 0 0 Z " fill="#E5E5E5" transform="translate(206,184.6875)"/>
<path d="M0 0 C1.56393356 3.97376829 0.36145292 6.81377903 -0.9375 10.75 C-1.31777344 11.92046875 -1.69804687 13.0909375 -2.08984375 14.296875 C-2.39019531 15.18890625 -2.69054687 16.0809375 -3 17 C-5 14 -5 14 -4.5390625 11.08203125 C-4.23742187 10.00308594 -3.93578125 8.92414063 -3.625 7.8125 C-3.32851563 6.72582031 -3.03203125 5.63914063 -2.7265625 4.51953125 C-2.48679687 3.68808594 -2.24703125 2.85664063 -2 2 C-1.34 2 -0.68 2 0 2 C0 1.34 0 0.68 0 0 Z " fill="#27221E" transform="translate(339,174)"/>
<path d="M0 0 C0.33 0 0.66 0 1 0 C1 12.21 1 24.42 1 37 C0.67 37 0.34 37 0 37 C0 24.79 0 12.58 0 0 Z " fill="#010100" transform="translate(198,311)"/>
<path d="M0 0 C0.33 0 0.66 0 1 0 C1 12.21 1 24.42 1 37 C0.67 37 0.34 37 0 37 C0 24.79 0 12.58 0 0 Z " fill="#010100" transform="translate(197,253)"/>
<path d="M0 0 C6.06370342 0.60497958 11.65514242 1.8633028 17.5 3.5625 C18.32242188 3.79646484 19.14484375 4.03042969 19.9921875 4.27148438 C21.99629058 4.84242072 23.99836591 5.42046705 26 6 C22.51664404 7.19784792 20.30493975 6.78454679 16.796875 5.78515625 C15.8171875 5.51123047 14.8375 5.23730469 13.828125 4.95507812 C12.81234375 4.66052734 11.7965625 4.36597656 10.75 4.0625 C9.71875 3.77181641 8.6875 3.48113281 7.625 3.18164062 C5.0807248 2.46311846 2.53937099 1.73563156 0 1 C0 0.67 0 0.34 0 0 Z " fill="#FE8F33" transform="translate(214,105)"/>
<path d="M0 0 C1.00698122 4.02792488 0.86376936 5.79078668 0.0625 9.75 C-0.13214844 10.73484375 -0.32679688 11.7196875 -0.52734375 12.734375 C-0.68332031 13.48203125 -0.83929688 14.2296875 -1 15 C-1.99 15 -2.98 15 -4 15 C-2.68 10.05 -1.36 5.1 0 0 Z " fill="#FE9847" transform="translate(317,137)"/>
<path d="M0 0 C0.33 0 0.66 0 1 0 C1 5.94 1 11.88 1 18 C0.67 18 0.34 18 0 18 C-0.19430855 15.3753399 -0.38073238 12.75053235 -0.5625 10.125 C-0.61857422 9.37863281 -0.67464844 8.63226563 -0.73242188 7.86328125 C-1.11328125 2.2265625 -1.11328125 2.2265625 0 0 Z " fill="#000000" transform="translate(196,214)"/>
<path d="M0 0 C0 0.99 0 1.98 0 3 C0.99 3.33 1.98 3.66 3 4 C-3.625 3.25 -3.625 3.25 -7 1 C-4 0 -4 0 0 0 Z " fill="#190901" transform="translate(200,175)"/>
<path d="M0 0 C2 2 2 2 2.046875 3.875 C1.89992188 4.926875 1.89992188 4.926875 1.75 6 C1.61851562 7.051875 1.61851562 7.051875 1.484375 8.125 C1 10 1 10 -1 12 C-1.14285714 3.42857143 -1.14285714 3.42857143 0 0 Z " fill="#181512" transform="translate(341,161)"/>
<path d="M0 0 C1.31534494 3.65857532 0.65468309 6.08026481 -0.4375 9.75 C-0.86869141 11.22726563 -0.86869141 11.22726563 -1.30859375 12.734375 C-1.53675781 13.48203125 -1.76492187 14.2296875 -2 15 C-3.31534494 11.34142468 -2.65468309 8.91973519 -1.5625 5.25 C-1.27503906 4.26515625 -0.98757812 3.2803125 -0.69140625 2.265625 C-0.46324219 1.51796875 -0.23507813 0.7703125 0 0 Z " fill="#FFC466" transform="translate(59,126)"/>
<path d="M0 0 C5.23880078 0.55145271 9.97350697 1.42922093 15 3 C11.34142468 4.31534494 8.91973519 3.65468309 5.25 2.5625 C4.26515625 2.27503906 3.2803125 1.98757812 2.265625 1.69140625 C1.51796875 1.46324219 0.7703125 1.23507813 0 1 C0 0.67 0 0.34 0 0 Z " fill="#FE8A2F" transform="translate(281,123)"/>
<path d="M0 0 C5.23880078 0.55145271 9.97350697 1.42922093 15 3 C11.34142468 4.31534494 8.91973519 3.65468309 5.25 2.5625 C4.26515625 2.27503906 3.2803125 1.98757812 2.265625 1.69140625 C1.51796875 1.46324219 0.7703125 1.23507813 0 1 C0 0.67 0 0.34 0 0 Z " fill="#FE8D32" transform="translate(266,119)"/>
<path d="M0 0 C5.23880078 0.55145271 9.97350697 1.42922093 15 3 C11.34142468 4.31534494 8.91973519 3.65468309 5.25 2.5625 C4.26515625 2.27503906 3.2803125 1.98757812 2.265625 1.69140625 C1.51796875 1.46324219 0.7703125 1.23507813 0 1 C0 0.67 0 0.34 0 0 Z " fill="#FDBF93" transform="translate(240,112)"/>
<path d="M0 0 C5.23880078 0.55145271 9.97350697 1.42922093 15 3 C11.34142468 4.31534494 8.91973519 3.65468309 5.25 2.5625 C4.26515625 2.27503906 3.2803125 1.98757812 2.265625 1.69140625 C1.51796875 1.46324219 0.7703125 1.23507813 0 1 C0 0.67 0 0.34 0 0 Z " fill="#FE8A2F" transform="translate(199,101)"/>
<path d="M0 0 C5.23880078 0.55145271 9.97350697 1.42922093 15 3 C11.34142468 4.31534494 8.91973519 3.65468309 5.25 2.5625 C4.26515625 2.27503906 3.2803125 1.98757812 2.265625 1.69140625 C1.51796875 1.46324219 0.7703125 1.23507813 0 1 C0 0.67 0 0.34 0 0 Z " fill="#FE8D31" transform="translate(184,97)"/>
<path d="M0 0 C5.23880078 0.55145271 9.97350697 1.42922093 15 3 C11.34142468 4.31534494 8.91973519 3.65468309 5.25 2.5625 C4.26515625 2.27503906 3.2803125 1.98757812 2.265625 1.69140625 C1.51796875 1.46324219 0.7703125 1.23507813 0 1 C0 0.67 0 0.34 0 0 Z " fill="#FE8A2F" transform="translate(158,90)"/>
<path d="M0 0 C5.23880078 0.55145271 9.97350697 1.42922093 15 3 C11.34142468 4.31534494 8.91973519 3.65468309 5.25 2.5625 C4.26515625 2.27503906 3.2803125 1.98757812 2.265625 1.69140625 C1.51796875 1.46324219 0.7703125 1.23507813 0 1 C0 0.67 0 0.34 0 0 Z " fill="#FE8D32" transform="translate(143,86)"/>
<path d="M0 0 C5.23880078 0.55145271 9.97350697 1.42922093 15 3 C11.34142468 4.31534494 8.91973519 3.65468309 5.25 2.5625 C4.26515625 2.27503906 3.2803125 1.98757812 2.265625 1.69140625 C1.51796875 1.46324219 0.7703125 1.23507813 0 1 C0 0.67 0 0.34 0 0 Z " fill="#FE8A30" transform="translate(117,79)"/>
<path d="M0 0 C5.23880078 0.55145271 9.97350697 1.42922093 15 3 C11.34142468 4.31534494 8.91973519 3.65468309 5.25 2.5625 C4.26515625 2.27503906 3.2803125 1.98757812 2.265625 1.69140625 C1.51796875 1.46324219 0.7703125 1.23507813 0 1 C0 0.67 0 0.34 0 0 Z " fill="#FDD4AE" transform="translate(91,62)"/>
<path d="M0 0 C0.93423645 3.01031744 1.04449911 3.86650268 0 7 C-0.66 7 -1.32 7 -2 7 C-2.33 7.66 -2.66 8.32 -3 9 C-2.67 6.69 -2.34 4.38 -2 2 C-1.34 2 -0.68 2 0 2 C0 1.34 0 0.68 0 0 Z " fill="#14120F" transform="translate(339,174)"/>
<path d="M0 0 C4.96916636 0.51405169 9.29026351 1.23384882 14 3 C10.36804504 4.21065165 8.93468371 3.62784815 5.3125 2.5625 C4.31863281 2.27503906 3.32476562 1.98757812 2.30078125 1.69140625 C1.54152344 1.46324219 0.78226562 1.23507813 0 1 C0 0.67 0 0.34 0 0 Z " fill="#FDD4B2" transform="translate(327,156)"/>
<path d="M0 0 C0.66 0.33 1.32 0.66 2 1 C0.515 6.445 0.515 6.445 -1 12 C-2.24142712 7.03429151 -1.37261666 4.84452938 0 0 Z " fill="#FFC466" transform="translate(62,114)"/>
<path d="M0 0 C1.65 0.33 3.3 0.66 5 1 C3.68 1.33 2.36 1.66 1 2 C0.67 3.98 0.34 5.96 0 8 C-0.98120464 4.94736336 -0.98120464 3.05263664 0 0 Z " fill="#FEA250" transform="translate(304,185)"/>
<path d="M0 0 C1.258125 0.12375 2.51625 0.2475 3.8125 0.375 C4.87404297 0.47941406 4.87404297 0.47941406 5.95703125 0.5859375 C8 1 8 1 11 3 C9.741875 2.87625 8.48375 2.7525 7.1875 2.625 C6.12595703 2.52058594 6.12595703 2.52058594 5.04296875 2.4140625 C3 2 3 2 0 0 Z " fill="#FE9643" transform="translate(162,168)"/>
<path d="M0 0 C1.258125 0.12375 2.51625 0.2475 3.8125 0.375 C4.87404297 0.47941406 4.87404297 0.47941406 5.95703125 0.5859375 C8 1 8 1 11 3 C9.741875 2.87625 8.48375 2.7525 7.1875 2.625 C6.12595703 2.52058594 6.12595703 2.52058594 5.04296875 2.4140625 C3 2 3 2 0 0 Z " fill="#FE913F" transform="translate(121,157)"/>
<path d="M0 0 C1.258125 0.12375 2.51625 0.2475 3.8125 0.375 C4.87404297 0.47941406 4.87404297 0.47941406 5.95703125 0.5859375 C8 1 8 1 11 3 C9.741875 2.87625 8.48375 2.7525 7.1875 2.625 C6.12595703 2.52058594 6.12595703 2.52058594 5.04296875 2.4140625 C3 2 3 2 0 0 Z " fill="#FDD5B4" transform="translate(316,153)"/>
<path d="M0 0 C1.258125 0.12375 2.51625 0.2475 3.8125 0.375 C4.87404297 0.47941406 4.87404297 0.47941406 5.95703125 0.5859375 C8 1 8 1 11 3 C9.741875 2.87625 8.48375 2.7525 7.1875 2.625 C6.12595703 2.52058594 6.12595703 2.52058594 5.04296875 2.4140625 C3 2 3 2 0 0 Z " fill="#FFD1A0" transform="translate(68,153)"/>
<path d="M0 0 C1.258125 0.12375 2.51625 0.2475 3.8125 0.375 C4.87404297 0.47941406 4.87404297 0.47941406 5.95703125 0.5859375 C8 1 8 1 11 3 C9.741875 2.87625 8.48375 2.7525 7.1875 2.625 C6.12595703 2.52058594 6.12595703 2.52058594 5.04296875 2.4140625 C3 2 3 2 0 0 Z " fill="#FE882D" transform="translate(296,127)"/>
<path d="M0 0 C1.258125 0.12375 2.51625 0.2475 3.8125 0.375 C4.87404297 0.47941406 4.87404297 0.47941406 5.95703125 0.5859375 C8 1 8 1 11 3 C9.741875 2.87625 8.48375 2.7525 7.1875 2.625 C6.12595703 2.52058594 6.12595703 2.52058594 5.04296875 2.4140625 C3 2 3 2 0 0 Z " fill="#FE8E39" transform="translate(255,116)"/>
<path d="M0 0 C0.66 0.33 1.32 0.66 2 1 C1.01 3.97 0.02 6.94 -1 10 C-2.27351308 7.45297384 -1.80191925 6.5717055 -1.0625 3.875 C-0.86785156 3.15054688 -0.67320313 2.42609375 -0.47265625 1.6796875 C-0.31667969 1.12539062 -0.16070312 0.57109375 0 0 Z " fill="#FFC466" transform="translate(66,99)"/>
<path d="M0 0 C1.258125 0.12375 2.51625 0.2475 3.8125 0.375 C4.87404297 0.47941406 4.87404297 0.47941406 5.95703125 0.5859375 C8 1 8 1 11 3 C9.741875 2.87625 8.48375 2.7525 7.1875 2.625 C6.12595703 2.52058594 6.12595703 2.52058594 5.04296875 2.4140625 C3 2 3 2 0 0 Z " fill="#FE882D" transform="translate(173,94)"/>
<path d="M0 0 C1.258125 0.12375 2.51625 0.2475 3.8125 0.375 C4.87404297 0.47941406 4.87404297 0.47941406 5.95703125 0.5859375 C8 1 8 1 11 3 C9.741875 2.87625 8.48375 2.7525 7.1875 2.625 C6.12595703 2.52058594 6.12595703 2.52058594 5.04296875 2.4140625 C3 2 3 2 0 0 Z " fill="#FE882D" transform="translate(132,83)"/>
<path d="M0 0 C7.75 0.75 7.75 0.75 10 3 C6.7 2.34 3.4 1.68 0 1 C0 0.67 0 0.34 0 0 Z " fill="#FE8D33" transform="translate(307,130)"/>
<path d="M0 0 C0.33 0 0.66 0 1 0 C0.67 2.31 0.34 4.62 0 7 C0.99 7.33 1.98 7.66 3 8 C1.68 8 0.36 8 -1 8 C-0.67 5.36 -0.34 2.72 0 0 Z " fill="#FDBA86" transform="translate(114,71)"/>
<path d="M0 0 C4.95 0.99 4.95 0.99 10 2 C5.59232396 3.10191901 4.1077065 2.58706842 0 1 C0 0.67 0 0.34 0 0 Z " fill="#FED5B4" transform="translate(81,59)"/>
<path d="M0 0 C1.0326802 2.78823655 1.04509293 3.8677274 0.0625 6.75 C-0.288125 7.4925 -0.63875 8.235 -1 9 C-2.60031344 5.79937313 -1.03173691 3.27728194 0 0 Z " fill="#FE8830" transform="translate(302,193)"/>
<path d="M0 0 C2.31 0.33 4.62 0.66 7 1 C5.1875 1.625 5.1875 1.625 3 2 C2.01 1.34 1.02 0.68 0 0 Z " fill="#FE933F" transform="translate(274,198)"/>
<path d="M0 0 C2.31 0.33 4.62 0.66 7 1 C5.1875 1.625 5.1875 1.625 3 2 C2.01 1.34 1.02 0.68 0 0 Z " fill="#FE9B46" transform="translate(259,194)"/>
<path d="M0 0 C2.31 0.33 4.62 0.66 7 1 C5.1875 1.625 5.1875 1.625 3 2 C2.01 1.34 1.02 0.68 0 0 Z " fill="#FFD1A1" transform="translate(324,191)"/>
<path d="M0 0 C2.31 0.33 4.62 0.66 7 1 C5.1875 1.625 5.1875 1.625 3 2 C2.01 1.34 1.02 0.68 0 0 Z " fill="#FE933F" transform="translate(248,191)"/>
<path d="M0 0 C0.625 1.8125 0.625 1.8125 1 4 C0.34 4.99 -0.32 5.98 -1 7 C-0.67 4.69 -0.34 2.38 0 0 Z " fill="#000000" transform="translate(346,177)"/>
<path d="M0 0 C2.31 0.33 4.62 0.66 7 1 C5.1875 1.625 5.1875 1.625 3 2 C2.01 1.34 1.02 0.68 0 0 Z " fill="#FE9340" transform="translate(151,165)"/>
<path d="M0 0 C2.31 0.33 4.62 0.66 7 1 C5.1875 1.625 5.1875 1.625 3 2 C2.01 1.34 1.02 0.68 0 0 Z " fill="#FE9240" transform="translate(136,161)"/>
<path d="M0 0 C2.31 0.33 4.62 0.66 7 1 C5.1875 1.625 5.1875 1.625 3 2 C2.01 1.34 1.02 0.68 0 0 Z " fill="#FE9240" transform="translate(110,154)"/>
<path d="M0 0 C2.31 0.33 4.62 0.66 7 1 C5.1875 1.625 5.1875 1.625 3 2 C2.01 1.34 1.02 0.68 0 0 Z " fill="#FE9240" transform="translate(95,150)"/>
<path d="M0 0 C0.33 0 0.66 0 1 0 C1 1.98 1 3.96 1 6 C0.34 5.67 -0.32 5.34 -1 5 C-0.67 3.35 -0.34 1.7 0 0 Z " fill="#FFC466" transform="translate(55,141)"/>
<path d="M0 0 C0.66 0.33 1.32 0.66 2 1 C1.34 2.65 0.68 4.3 0 6 C-1.24546405 3.50907189 -0.7767578 2.58919267 0 0 Z " fill="#FFC466" transform="translate(69,88)"/>
<path d="M0 0 C2.97 0.495 2.97 0.495 6 1 C5.01 1.33 4.02 1.66 3 2 C2.01 1.34 1.02 0.68 0 0 Z " fill="#FFCA81" transform="translate(83,157)"/>
<path d="M0 0 C2.97 0.495 2.97 0.495 6 1 C4.125 1.625 4.125 1.625 2 2 C1.34 1.34 0.68 0.68 0 0 Z " fill="#FFD09C" transform="translate(58,150)"/>
<path d="M0 0 C2.97 0.495 2.97 0.495 6 1 C5.01 1.33 4.02 1.66 3 2 C2.01 1.34 1.02 0.68 0 0 Z " fill="#FDD5B5" transform="translate(106,66)"/>
<path d="M0 0 C2.475 0.495 2.475 0.495 5 1 C5 1.33 5 1.66 5 2 C3.35 2 1.7 2 0 2 C0 1.34 0 0.68 0 0 Z " fill="#D39463" transform="translate(235,187)"/>
<path d="M0 0 C0.99 0 1.98 0 3 0 C2.67 0.99 2.34 1.98 2 3 C2 2.34 2 1.68 2 1 C1.34 0.67 0.68 0.34 0 0 Z " fill="#984E1E" transform="translate(177,172)"/>
<path d="M0 0 C0.99 0.495 0.99 0.495 2 1 C1.67 1.66 1.34 2.32 1 3 C0.67 2.01 0.34 1.02 0 0 Z " fill="#000000" transform="translate(304,347)"/>
<path d="M0 0 C0.99 0.495 0.99 0.495 2 1 C1.67 1.66 1.34 2.32 1 3 C0.67 2.01 0.34 1.02 0 0 Z " fill="#000000" transform="translate(300,340)"/>
<path d="M0 0 C0.99 0.495 0.99 0.495 2 1 C1.67 1.66 1.34 2.32 1 3 C0.67 2.01 0.34 1.02 0 0 Z " fill="#000000" transform="translate(296,333)"/>
<path d="M0 0 C0.99 0.495 0.99 0.495 2 1 C1.67 1.66 1.34 2.32 1 3 C0.67 2.01 0.34 1.02 0 0 Z " fill="#000000" transform="translate(292,326)"/>
<path d="M0 0 C0.99 0.495 0.99 0.495 2 1 C1.67 1.66 1.34 2.32 1 3 C0.67 2.01 0.34 1.02 0 0 Z " fill="#000000" transform="translate(288,319)"/>
<path d="M0 0 C0.99 0.495 0.99 0.495 2 1 C1.67 1.66 1.34 2.32 1 3 C0.67 2.01 0.34 1.02 0 0 Z " fill="#000000" transform="translate(284,312)"/>
<path d="M0 0 C0.99 0.495 0.99 0.495 2 1 C1.67 1.66 1.34 2.32 1 3 C0.67 2.01 0.34 1.02 0 0 Z " fill="#000000" transform="translate(280,305)"/>
<path d="M0 0 C0.99 0.495 0.99 0.495 2 1 C1.67 1.66 1.34 2.32 1 3 C0.67 2.01 0.34 1.02 0 0 Z " fill="#000000" transform="translate(276,298)"/>
<path d="M0 0 C0.99 0.495 0.99 0.495 2 1 C1.67 1.66 1.34 2.32 1 3 C0.67 2.01 0.34 1.02 0 0 Z " fill="#000000" transform="translate(272,291)"/>
<path d="M0 0 C0.99 0.495 0.99 0.495 2 1 C1.67 1.66 1.34 2.32 1 3 C0.67 2.01 0.34 1.02 0 0 Z " fill="#000000" transform="translate(268,284)"/>
<path d="M0 0 C0 3 0 3 0 3 Z " fill="#000000" transform="translate(153,285)"/>
<path d="M0 0 C0.99 0.495 0.99 0.495 2 1 C1.67 1.66 1.34 2.32 1 3 C0.67 2.01 0.34 1.02 0 0 Z " fill="#000000" transform="translate(264,277)"/>
<path d="M0 0 C0.99 0.495 0.99 0.495 2 1 C1.67 1.66 1.34 2.32 1 3 C0.67 2.01 0.34 1.02 0 0 Z " fill="#000000" transform="translate(260,270)"/>
<path d="M0 0 C0.99 0.495 0.99 0.495 2 1 C1.67 1.66 1.34 2.32 1 3 C0.67 2.01 0.34 1.02 0 0 Z " fill="#000000" transform="translate(256,263)"/>
<path d="M0 0 C0.99 0.495 0.99 0.495 2 1 C1.67 1.66 1.34 2.32 1 3 C0.67 2.01 0.34 1.02 0 0 Z " fill="#000000" transform="translate(252,256)"/>
<path d="M0 0 C0 3 0 3 0 3 Z " fill="#000000" transform="translate(170,257)"/>
<path d="M0 0 C0 3 0 3 0 3 Z " fill="#000000" transform="translate(173,252)"/>
<path d="M0 0 C0.99 0.495 0.99 0.495 2 1 C1.67 1.66 1.34 2.32 1 3 C0.67 2.01 0.34 1.02 0 0 Z " fill="#000000" transform="translate(248,249)"/>
<path d="M0 0 C0.99 0.495 0.99 0.495 2 1 C1.67 1.66 1.34 2.32 1 3 C0.67 2.01 0.34 1.02 0 0 Z " fill="#000000" transform="translate(244,242)"/>
<path d="M0 0 C0.99 0.495 0.99 0.495 2 1 C1.67 1.66 1.34 2.32 1 3 C0.67 2.01 0.34 1.02 0 0 Z " fill="#000000" transform="translate(240,235)"/>
<path d="M0 0 C0.99 0.495 0.99 0.495 2 1 C1.67 1.66 1.34 2.32 1 3 C0.67 2.01 0.34 1.02 0 0 Z " fill="#000000" transform="translate(236,228)"/>
<path d="M0 0 C0 3 0 3 0 3 Z " fill="#000000" transform="translate(187,229)"/>
<path d="M0 0 C0 3 0 3 0 3 Z " fill="#000000" transform="translate(190,224)"/>
<path d="M0 0 C0.99 0.495 0.99 0.495 2 1 C1.67 1.66 1.34 2.32 1 3 C0.67 2.01 0.34 1.02 0 0 Z " fill="#000000" transform="translate(232,221)"/>
<path d="M0 0 C0.99 0.495 0.99 0.495 2 1 C1.67 1.66 1.34 2.32 1 3 C0.67 2.01 0.34 1.02 0 0 Z " fill="#000000" transform="translate(228,214)"/>
<path d="M0 0 C0.99 0.495 0.99 0.495 2 1 C1.67 1.66 1.34 2.32 1 3 C0.67 2.01 0.34 1.02 0 0 Z " fill="#000000" transform="translate(224,207)"/>
<path d="M0 0 C4 1 4 1 4 1 Z " fill="#FE933F" transform="translate(292,203)"/>
<path d="M0 0 C4 1 4 1 4 1 Z " fill="#FEA34C" transform="translate(285,201)"/>
<path d="M0 0 C0.99 0.495 0.99 0.495 2 1 C1.67 1.66 1.34 2.32 1 3 C0.67 2.01 0.34 1.02 0 0 Z " fill="#000000" transform="translate(220,200)"/>
<path d="M0 0 C4 1 4 1 4 1 Z " fill="#FE933F" transform="translate(281,200)"/>
<path d="M0 0 C4 1 4 1 4 1 Z " fill="#FEA34C" transform="translate(270,197)"/>
<path d="M0 0 C4 1 4 1 4 1 Z " fill="#FE933F" transform="translate(266,196)"/>
<path d="M0 0 C4 1 4 1 4 1 Z " fill="#FE933F" transform="translate(255,193)"/>
<path d="M0 0 C4 1 4 1 4 1 Z " fill="#FFCF95" transform="translate(320,190)"/>
<path d="M0 0 C4 1 4 1 4 1 Z " fill="#FEA34C" transform="translate(244,190)"/>
<path d="M0 0 C1 4 1 4 1 4 Z " fill="#000000" transform="translate(343,188)"/>
<path d="M0 0 C4 1 4 1 4 1 Z " fill="#FFD4AD" transform="translate(316,189)"/>
<path d="M0 0 C4 1 4 1 4 1 Z " fill="#FE9340" transform="translate(240,189)"/>
<path d="M0 0 C4 1 4 1 4 1 Z " fill="#FFCF95" transform="translate(309,187)"/>
<path d="M0 0 C1 4 1 4 1 4 Z " fill="#000000" transform="translate(344,184)"/>
<path d="M0 0 C1 4 1 4 1 4 Z " fill="#000000" transform="translate(347,173)"/>
<path d="M0 0 C4 1 4 1 4 1 Z " fill="#FE9340" transform="translate(173,171)"/>
<path d="M0 0 C1 4 1 4 1 4 Z " fill="#000000" transform="translate(348,169)"/>
<path d="M0 0 C4 1 4 1 4 1 Z " fill="#FE9340" transform="translate(158,167)"/>
<path d="M0 0 C4 1 4 1 4 1 Z " fill="#FE9240" transform="translate(147,164)"/>
<path d="M0 0 C1 4 1 4 1 4 Z " fill="#000000" transform="translate(350,162)"/>
<path d="M0 0 C4 1 4 1 4 1 Z " fill="#FE9340" transform="translate(143,163)"/>
<path d="M0 0 C4 1 4 1 4 1 Z " fill="#FE9340" transform="translate(132,160)"/>
<path d="M0 0 C4 1 4 1 4 1 Z " fill="#FE9340" transform="translate(117,156)"/>
<path d="M0 0 C4 1 4 1 4 1 Z " fill="#FFD4AD" transform="translate(79,156)"/>
<path d="M0 0 C4 1 4 1 4 1 Z " fill="#FE9240" transform="translate(106,153)"/>
<path d="M0 0 C4 1 4 1 4 1 Z " fill="#FE9340" transform="translate(102,152)"/>
<path d="M0 0 C4 1 4 1 4 1 Z " fill="#FFD4AD" transform="translate(64,152)"/>
<path d="M0 0 C0.99 0.495 0.99 0.495 2 1 C1.34 1.66 0.68 2.32 0 3 C0 2.01 0 1.02 0 0 Z " fill="#FFC466" transform="translate(70,84)"/>
<path d="M0 0 C1 4 1 4 1 4 Z " fill="#FFC466" transform="translate(72,77)"/>
<path d="M0 0 C0.99 0.495 0.99 0.495 2 1 C1.34 1.66 0.68 2.32 0 3 C0 2.01 0 1.02 0 0 Z " fill="#FFC466" transform="translate(73,73)"/>
<path d="M0 0 C0.99 0.495 0.99 0.495 2 1 C1.34 1.66 0.68 2.32 0 3 C0 2.01 0 1.02 0 0 Z " fill="#FFC466" transform="translate(74,69)"/>
<path d="M0 0 C3 1 3 1 3 1 Z " fill="#FEAE55" transform="translate(296,204)"/>
<path d="M0 0 C3 1 3 1 3 1 Z " fill="#FE8333" transform="translate(289,202)"/>
<path d="M0 0 C3 1 3 1 3 1 Z " fill="#010100" transform="translate(228,192)"/>
<path d="M0 0 C3 1 3 1 3 1 Z " fill="#010100" transform="translate(225,191)"/>
<path d="" fill="#000000" transform="translate(0,0)"/>
<path d="M0 0 C0.99 0.495 0.99 0.495 2 1 C1.01 1.495 1.01 1.495 0 2 C0 1.34 0 0.68 0 0 Z " fill="#010100" transform="translate(194,189)"/>
<path d="M0 0 C3 1 3 1 3 1 Z " fill="#FFD2A5" transform="translate(313,188)"/>
<path d="M0 0 C3 1 3 1 3 1 Z " fill="#010100" transform="translate(190,188)"/>
<path d="M0 0 C3 1 3 1 3 1 Z " fill="#010100" transform="translate(184,180)"/>
<path d="" fill="#000000" transform="translate(0,0)"/>
<path d="" fill="#FE822D" transform="translate(0,0)"/>
<path d="" fill="#000000" transform="translate(0,0)"/>
<path d="" fill="#010100" transform="translate(0,0)"/>
<path d="" fill="#000000" transform="translate(0,0)"/>
<path d="" fill="#010100" transform="translate(0,0)"/>
<path d="" fill="#000000" transform="translate(0,0)"/>
<path d="" fill="#000000" transform="translate(0,0)"/>
<path d="" fill="#010100" transform="translate(0,0)"/>
<path d="" fill="#000000" transform="translate(0,0)"/>
<path d="" fill="#000000" transform="translate(0,0)"/>
<path d="" fill="#010100" transform="translate(0,0)"/>
<path d="" fill="#000000" transform="translate(0,0)"/>
<path d="" fill="#010100" transform="translate(0,0)"/>
<path d="" fill="#000000" transform="translate(0,0)"/>
<path d="" fill="#000000" transform="translate(0,0)"/>
<path d="" fill="#010100" transform="translate(0,0)"/>
<path d="" fill="#000000" transform="translate(0,0)"/>
<path d="" fill="#000000" transform="translate(0,0)"/>
<path d="" fill="#010100" transform="translate(0,0)"/>
<path d="" fill="#000000" transform="translate(0,0)"/>
<path d="" fill="#000000" transform="translate(0,0)"/>
<path d="" fill="#000000" transform="translate(0,0)"/>
<path d="" fill="#000000" transform="translate(0,0)"/>
<path d="" fill="#010100" transform="translate(0,0)"/>
<path d="" fill="#010100" transform="translate(0,0)"/>
<path d="" fill="#010100" transform="translate(0,0)"/>
<path d="" fill="#000000" transform="translate(0,0)"/>
<path d="" fill="#000000" transform="translate(0,0)"/>
<path d="" fill="#010100" transform="translate(0,0)"/>
<path d="" fill="#010100" transform="translate(0,0)"/>
<path d="" fill="#000000" transform="translate(0,0)"/>
<path d="" fill="#010100" transform="translate(0,0)"/>
<path d="" fill="#000000" transform="translate(0,0)"/>
<path d="" fill="#010100" transform="translate(0,0)"/>
<path d="" fill="#000000" transform="translate(0,0)"/>
<path d="" fill="#000000" transform="translate(0,0)"/>
<path d="" fill="#010100" transform="translate(0,0)"/>
<path d="" fill="#000000" transform="translate(0,0)"/>
<path d="" fill="#000000" transform="translate(0,0)"/>
<path d="" fill="#010100" transform="translate(0,0)"/>
<path d="" fill="#000000" transform="translate(0,0)"/>
<path d="" fill="#010100" transform="translate(0,0)"/>
<path d="" fill="#000000" transform="translate(0,0)"/>
<path d="" fill="#000000" transform="translate(0,0)"/>
<path d="" fill="#010100" transform="translate(0,0)"/>
<path d="" fill="#000000" transform="translate(0,0)"/>
<path d="" fill="#000000" transform="translate(0,0)"/>
<path d="" fill="#010100" transform="translate(0,0)"/>
<path d="" fill="#000000" transform="translate(0,0)"/>
<path d="" fill="#000000" transform="translate(0,0)"/>
<path d="" fill="#000000" transform="translate(0,0)"/>
<path d="" fill="#000000" transform="translate(0,0)"/>
<path d="" fill="#010100" transform="translate(0,0)"/>
<path d="" fill="#000000" transform="translate(0,0)"/>
<path d="" fill="#000000" transform="translate(0,0)"/>
<path d="" fill="#000000" transform="translate(0,0)"/>
<path d="" fill="#010100" transform="translate(0,0)"/>
<path d="" fill="#000000" transform="translate(0,0)"/>
<path d="" fill="#000000" transform="translate(0,0)"/>
<path d="" fill="#010100" transform="translate(0,0)"/>
<path d="" fill="#000000" transform="translate(0,0)"/>
<path d="" fill="#010100" transform="translate(0,0)"/>
<path d="" fill="#000000" transform="translate(0,0)"/>
<path d="" fill="#000000" transform="translate(0,0)"/>
<path d="" fill="#010100" transform="translate(0,0)"/>
<path d="" fill="#000000" transform="translate(0,0)"/>
<path d="" fill="#000000" transform="translate(0,0)"/>
<path d="" fill="#010100" transform="translate(0,0)"/>
<path d="" fill="#010100" transform="translate(0,0)"/>
<path d="" fill="#000000" transform="translate(0,0)"/>
<path d="" fill="#000000" transform="translate(0,0)"/>
<path d="" fill="#000000" transform="translate(0,0)"/>
<path d="" fill="#000000" transform="translate(0,0)"/>
<path d="" fill="#010100" transform="translate(0,0)"/>
<path d="" fill="#000000" transform="translate(0,0)"/>
<path d="" fill="#000000" transform="translate(0,0)"/>
<path d="" fill="#000000" transform="translate(0,0)"/>
<path d="" fill="#000000" transform="translate(0,0)"/>
<path d="" fill="#010100" transform="translate(0,0)"/>
<path d="" fill="#000000" transform="translate(0,0)"/>
<path d="" fill="#000000" transform="translate(0,0)"/>
<path d="" fill="#000000" transform="translate(0,0)"/>
<path d="" fill="#010100" transform="translate(0,0)"/>
<path d="" fill="#000000" transform="translate(0,0)"/>
<path d="" fill="#000000" transform="translate(0,0)"/>
<path d="" fill="#010100" transform="translate(0,0)"/>
<path d="" fill="#000000" transform="translate(0,0)"/>
<path d="" fill="#010100" transform="translate(0,0)"/>
<path d="" fill="#000000" transform="translate(0,0)"/>
<path d="" fill="#000000" transform="translate(0,0)"/>
<path d="" fill="#010100" transform="translate(0,0)"/>
<path d="" fill="#000000" transform="translate(0,0)"/>
<path d="" fill="#000000" transform="translate(0,0)"/>
<path d="" fill="#010100" transform="translate(0,0)"/>
<path d="" fill="#010100" transform="translate(0,0)"/>
<path d="" fill="#000000" transform="translate(0,0)"/>
<path d="" fill="#000000" transform="translate(0,0)"/>
<path d="" fill="#010100" transform="translate(0,0)"/>
<path d="" fill="#000000" transform="translate(0,0)"/>
<path d="" fill="#010100" transform="translate(0,0)"/>
<path d="" fill="#000000" transform="translate(0,0)"/>
<path d="" fill="#000000" transform="translate(0,0)"/>
<path d="" fill="#000000" transform="translate(0,0)"/>
<path d="" fill="#010100" transform="translate(0,0)"/>
<path d="" fill="#000000" transform="translate(0,0)"/>
<path d="" fill="#010100" transform="translate(0,0)"/>
<path d="" fill="#000000" transform="translate(0,0)"/>
<path d="" fill="#000000" transform="translate(0,0)"/>
<path d="" fill="#000000" transform="translate(0,0)"/>
<path d="" fill="#010100" transform="translate(0,0)"/>
<path d="" fill="#000000" transform="translate(0,0)"/>
<path d="" fill="#010100" transform="translate(0,0)"/>
<path d="" fill="#000000" transform="translate(0,0)"/>
<path d="" fill="#000000" transform="translate(0,0)"/>
<path d="" fill="#010100" transform="translate(0,0)"/>
<path d="" fill="#000000" transform="translate(0,0)"/>
<path d="" fill="#000000" transform="translate(0,0)"/>
<path d="" fill="#010100" transform="translate(0,0)"/>
<path d="" fill="#010100" transform="translate(0,0)"/>
<path d="" fill="#000000" transform="translate(0,0)"/>
<path d="" fill="#000000" transform="translate(0,0)"/>
<path d="" fill="#010100" transform="translate(0,0)"/>
<path d="" fill="#010100" transform="translate(0,0)"/>
<path d="" fill="#000000" transform="translate(0,0)"/>
<path d="" fill="#000000" transform="translate(0,0)"/>
<path d="" fill="#010100" transform="translate(0,0)"/>
<path d="" fill="#000000" transform="translate(0,0)"/>
<path d="" fill="#010100" transform="translate(0,0)"/>
<path d="" fill="#000000" transform="translate(0,0)"/>
<path d="" fill="#000000" transform="translate(0,0)"/>
<path d="" fill="#000000" transform="translate(0,0)"/>
<path d="" fill="#010100" transform="translate(0,0)"/>
<path d="" fill="#000000" transform="translate(0,0)"/>
<path d="" fill="#010100" transform="translate(0,0)"/>
<path d="" fill="#000000" transform="translate(0,0)"/>
<path d="" fill="#000000" transform="translate(0,0)"/>
<path d="" fill="#010100" transform="translate(0,0)"/>
<path d="" fill="#000000" transform="translate(0,0)"/>
<path d="" fill="#000000" transform="translate(0,0)"/>
<path d="" fill="#010100" transform="translate(0,0)"/>
<path d="" fill="#000000" transform="translate(0,0)"/>
<path d="" fill="#000000" transform="translate(0,0)"/>
<path d="" fill="#010100" transform="translate(0,0)"/>
<path d="M0 0 C2 1 2 1 2 1 Z " fill="#010100" transform="translate(336,197)"/>
<path d="" fill="#000000" transform="translate(0,0)"/>
<path d="M0 0 C2 1 2 1 2 1 Z " fill="#010100" transform="translate(334,196)"/>
<path d="" fill="#000000" transform="translate(0,0)"/>
<path d="" fill="#010100" transform="translate(0,0)"/>
<path d="" fill="#000000" transform="translate(0,0)"/>
<path d="" fill="#010100" transform="translate(0,0)"/>
<path d="M0 0 C2 1 2 1 2 1 Z " fill="#010100" transform="translate(187,181)"/>
<path d="M0 0 C2 1 2 1 2 1 Z " fill="#010100" transform="translate(181,179)"/>
<path d="M0 0 C2 1 2 1 2 1 Z " fill="#000000" transform="translate(345,158)"/>
<path d="M0 0 C2 1 2 1 2 1 Z " fill="#000000" transform="translate(341,158)"/>
<path d="M0 0 C2 1 2 1 2 1 Z " fill="#010100" transform="translate(343,157)"/>
<path d="M0 0 C2 1 2 1 2 1 Z " fill="#FFCF95" transform="translate(89,157)"/>
<path d="" fill="#FFC466" transform="translate(0,0)"/>
<path d="" fill="#FFC466" transform="translate(0,0)"/>
<path d="" fill="#FFC466" transform="translate(0,0)"/>
<path d="" fill="#FFCF95" transform="translate(0,0)"/>
<path d="" fill="#FFC466" transform="translate(0,0)"/>
<path d="" fill="#FFC466" transform="translate(0,0)"/>
<path d="M0 0 C2 1 2 1 2 1 Z " fill="#FDD9C3" transform="translate(79,60)"/>
<path d="" fill="#010100" transform="translate(0,0)"/>
<path d="" fill="#000000" transform="translate(0,0)"/>
<path d="" fill="#010100" transform="translate(0,0)"/>
<path d="" fill="#000000" transform="translate(0,0)"/>
<path d="" fill="#010100" transform="translate(0,0)"/>
<path d="" fill="#000000" transform="translate(0,0)"/>
<path d="" fill="#000000" transform="translate(0,0)"/>
<path d="" fill="#010100" transform="translate(0,0)"/>
<path d="" fill="#010100" transform="translate(0,0)"/>
<path d="" fill="#000000" transform="translate(0,0)"/>
<path d="" fill="#010100" transform="translate(0,0)"/>
<path d="" fill="#010100" transform="translate(0,0)"/>
<path d="" fill="#000000" transform="translate(0,0)"/>
<path d="" fill="#010100" transform="translate(0,0)"/>
<path d="" fill="#000000" transform="translate(0,0)"/>
<path d="" fill="#010100" transform="translate(0,0)"/>
<path d="" fill="#000000" transform="translate(0,0)"/>
<path d="" fill="#010100" transform="translate(0,0)"/>
<path d="" fill="#000000" transform="translate(0,0)"/>
<path d="" fill="#000000" transform="translate(0,0)"/>
<path d="" fill="#010100" transform="translate(0,0)"/>
<path d="" fill="#010100" transform="translate(0,0)"/>
<path d="" fill="#010100" transform="translate(0,0)"/>
<path d="" fill="#000000" transform="translate(0,0)"/>
<path d="" fill="#010100" transform="translate(0,0)"/>
<path d="" fill="#010100" transform="translate(0,0)"/>
<path d="" fill="#000000" transform="translate(0,0)"/>
<path d="" fill="#010100" transform="translate(0,0)"/>
<path d="" fill="#010100" transform="translate(0,0)"/>
<path d="" fill="#010100" transform="translate(0,0)"/>
<path d="" fill="#010100" transform="translate(0,0)"/>
<path d="" fill="#000000" transform="translate(0,0)"/>
<path d="" fill="#010100" transform="translate(0,0)"/>
<path d="" fill="#010100" transform="translate(0,0)"/>
<path d="" fill="#010100" transform="translate(0,0)"/>
<path d="" fill="#010100" transform="translate(0,0)"/>
<path d="" fill="#000000" transform="translate(0,0)"/>
<path d="" fill="#010100" transform="translate(0,0)"/>
<path d="" fill="#010100" transform="translate(0,0)"/>
<path d="" fill="#010100" transform="translate(0,0)"/>
<path d="" fill="#010100" transform="translate(0,0)"/>
<path d="" fill="#010100" transform="translate(0,0)"/>
<path d="" fill="#000000" transform="translate(0,0)"/>
<path d="" fill="#010100" transform="translate(0,0)"/>
<path d="" fill="#010100" transform="translate(0,0)"/>
<path d="" fill="#010100" transform="translate(0,0)"/>
<path d="" fill="#010100" transform="translate(0,0)"/>
<path d="" fill="#000000" transform="translate(0,0)"/>
<path d="" fill="#010100" transform="translate(0,0)"/>
<path d="" fill="#010100" transform="translate(0,0)"/>
<path d="" fill="#010100" transform="translate(0,0)"/>
<path d="" fill="#010100" transform="translate(0,0)"/>
<path d="" fill="#000000" transform="translate(0,0)"/>
<path d="" fill="#010100" transform="translate(0,0)"/>
<path d="" fill="#010100" transform="translate(0,0)"/>
<path d="" fill="#010100" transform="translate(0,0)"/>
<path d="" fill="#010100" transform="translate(0,0)"/>
<path d="" fill="#000000" transform="translate(0,0)"/>
<path d="" fill="#010100" transform="translate(0,0)"/>
<path d="" fill="#010100" transform="translate(0,0)"/>
<path d="" fill="#010100" transform="translate(0,0)"/>
<path d="" fill="#010100" transform="translate(0,0)"/>
<path d="" fill="#000000" transform="translate(0,0)"/>
<path d="" fill="#010100" transform="translate(0,0)"/>
<path d="" fill="#010100" transform="translate(0,0)"/>
<path d="" fill="#010100" transform="translate(0,0)"/>
<path d="" fill="#010100" transform="translate(0,0)"/>
<path d="" fill="#010100" transform="translate(0,0)"/>
<path d="" fill="#010100" transform="translate(0,0)"/>
<path d="" fill="#010100" transform="translate(0,0)"/>
<path d="" fill="#010100" transform="translate(0,0)"/>
<path d="" fill="#010100" transform="translate(0,0)"/>
<path d="" fill="#010100" transform="translate(0,0)"/>
<path d="" fill="#000000" transform="translate(0,0)"/>
<path d="" fill="#010100" transform="translate(0,0)"/>
<path d="" fill="#010100" transform="translate(0,0)"/>
<path d="" fill="#010100" transform="translate(0,0)"/>
<path d="" fill="#010100" transform="translate(0,0)"/>
<path d="" fill="#000000" transform="translate(0,0)"/>
<path d="" fill="#010100" transform="translate(0,0)"/>
<path d="" fill="#010100" transform="translate(0,0)"/>
<path d="" fill="#010100" transform="translate(0,0)"/>
<path d="" fill="#010100" transform="translate(0,0)"/>
<path d="" fill="#000000" transform="translate(0,0)"/>
<path d="" fill="#010100" transform="translate(0,0)"/>
<path d="" fill="#010100" transform="translate(0,0)"/>
<path d="" fill="#010100" transform="translate(0,0)"/>
<path d="" fill="#010100" transform="translate(0,0)"/>
<path d="" fill="#010100" transform="translate(0,0)"/>
<path d="" fill="#000000" transform="translate(0,0)"/>
<path d="" fill="#010100" transform="translate(0,0)"/>
<path d="" fill="#010100" transform="translate(0,0)"/>
<path d="" fill="#010100" transform="translate(0,0)"/>
<path d="" fill="#010100" transform="translate(0,0)"/>
<path d="" fill="#010100" transform="translate(0,0)"/>
<path d="" fill="#010100" transform="translate(0,0)"/>
<path d="" fill="#010100" transform="translate(0,0)"/>
<path d="" fill="#010100" transform="translate(0,0)"/>
<path d="" fill="#010100" transform="translate(0,0)"/>
<path d="" fill="#000000" transform="translate(0,0)"/>
<path d="" fill="#010100" transform="translate(0,0)"/>
<path d="" fill="#010100" transform="translate(0,0)"/>
<path d="" fill="#010100" transform="translate(0,0)"/>
<path d="" fill="#010100" transform="translate(0,0)"/>
<path d="" fill="#010100" transform="translate(0,0)"/>
<path d="" fill="#010100" transform="translate(0,0)"/>
<path d="" fill="#010100" transform="translate(0,0)"/>
<path d="" fill="#010100" transform="translate(0,0)"/>
<path d="" fill="#010100" transform="translate(0,0)"/>
<path d="" fill="#FFC466" transform="translate(0,0)"/>
<path d="" fill="#010100" transform="translate(0,0)"/>
<path d="" fill="#010100" transform="translate(0,0)"/>
<path d="" fill="#010100" transform="translate(0,0)"/>
<path d="" fill="#010100" transform="translate(0,0)"/>
<path d="" fill="#010100" transform="translate(0,0)"/>
<path d="" fill="#010100" transform="translate(0,0)"/>
<path d="" fill="#010100" transform="translate(0,0)"/>
<path d="" fill="#040303" transform="translate(0,0)"/>
<path d="" fill="#010100" transform="translate(0,0)"/>
<path d="" fill="#010100" transform="translate(0,0)"/>
<path d="" fill="#010100" transform="translate(0,0)"/>
<path d="" fill="#FE8333" transform="translate(0,0)"/>
<path d="" fill="#010100" transform="translate(0,0)"/>
<path d="" fill="#000000" transform="translate(0,0)"/>
<path d="" fill="#010100" transform="translate(0,0)"/>
<path d="" fill="#010100" transform="translate(0,0)"/>
<path d="" fill="#FFC466" transform="translate(0,0)"/>
<path d="" fill="#FFC466" transform="translate(0,0)"/>
<path d="" fill="#FE8333" transform="translate(0,0)"/>
<path d="" fill="#FFC466" transform="translate(0,0)"/>
<path d="" fill="#FFC466" transform="translate(0,0)"/>
<path d="" fill="#FFDAC5" transform="translate(0,0)"/>
<path d="" fill="#FFC466" transform="translate(0,0)"/>
<path d="" fill="#FFC466" transform="translate(0,0)"/>
</svg>
